<svg width="19" height="12" viewBox="0 0 19 12" fill="none" xmlns="http://www.w3.org/2000/svg">
<path fill-rule="evenodd" clip-rule="evenodd" d="M0 6C0 5.82321 0.070228 5.65367 0.195235 5.52866C0.320241 5.40366 0.489787 5.33343 0.666573 5.33343H16.3884L12.193 1.13935C12.0678 1.01418 11.9975 0.844425 11.9975 0.667415C11.9975 0.490406 12.0678 0.320646 12.193 0.195481C12.3181 0.0703166 12.4879 4.17049e-09 12.6649 0C12.8419 -4.17049e-09 13.0117 0.0703166 13.1368 0.195481L18.4694 5.52807C18.5315 5.58998 18.5807 5.66354 18.6143 5.74452C18.6479 5.82551 18.6652 5.91232 18.6652 6C18.6652 6.08768 18.6479 6.17449 18.6143 6.25548C18.5807 6.33646 18.5315 6.41002 18.4694 6.47193L13.1368 11.8045C13.0117 11.9297 12.8419 12 12.6649 12C12.4879 12 12.3181 11.9297 12.193 11.8045C12.0678 11.6794 11.9975 11.5096 11.9975 11.3326C11.9975 11.1556 12.0678 10.9858 12.193 10.8607L16.3884 6.66657H0.666573C0.489787 6.66657 0.320241 6.59635 0.195235 6.47134C0.070228 6.34633 0 6.17679 0 6Z" fill="#702206"/>
</svg>
