<svg width="21" height="21" viewBox="0 0 21 21" fill="none" xmlns="http://www.w3.org/2000/svg">
<path d="M20.7082 17.4622L17.7474 20.3993C17.3104 20.8475 16.7311 20.9993 16.1669 21C13.6719 20.9253 11.3136 19.6997 9.37724 18.4412C6.19885 16.129 3.28255 13.2618 1.45222 9.79706C0.750228 8.34415 -0.0734619 6.49036 0.00523565 4.86866C0.0122532 4.25861 0.176648 3.65988 0.606291 3.26665L3.56705 0.307385C4.18186 -0.215567 4.77642 -0.0347575 5.16985 0.574382L7.5518 5.09117C7.8025 5.62627 7.65869 6.1996 7.28464 6.58196L6.19383 7.67221C6.12649 7.76445 6.08362 7.86945 6.08253 7.98373C6.50082 9.60286 7.76801 11.0952 8.88745 12.1222C10.0069 13.1493 11.2101 14.5407 12.772 14.8701C12.9651 14.9239 13.2016 14.9429 13.3397 14.8145L14.6086 13.524C15.0461 13.1924 15.6776 13.0304 16.1446 13.3015H16.1669L20.4633 15.838C21.094 16.2333 21.1598 16.9974 20.7082 17.4622Z" fill="#65473C"/>
</svg>
