<svg width="123" height="118" viewBox="0 0 123 118" fill="none" xmlns="http://www.w3.org/2000/svg">
<path fill-rule="evenodd" clip-rule="evenodd" d="M76.683 117.964C86.8011 115.317 96.3714 110.029 104.301 102.1C128.104 78.2966 128.104 39.7034 104.301 15.8998C96.3714 7.97065 86.8011 2.68274 76.683 0.0361328V2.10618C86.2812 4.70858 95.3501 9.77787 102.886 17.3141C125.909 40.3366 125.909 77.6634 102.886 100.686C95.3501 108.222 86.2812 113.291 76.683 115.894V117.964ZM44.7891 2.36616C35.5351 5.03874 26.8071 10.0214 19.5144 17.3141C-3.50807 40.3366 -3.50807 77.6634 19.5144 100.686C26.8071 107.979 35.5351 112.961 44.7891 115.634V117.713C35.0147 114.991 25.7864 109.786 18.1002 102.1C-5.70333 78.2966 -5.70333 39.7034 18.1002 15.8998C25.7864 8.21366 35.0147 3.00934 44.7891 0.286908V2.36616Z" fill="white"/>
</svg>
