<svg width="14" height="19" viewBox="0 0 14 19" fill="none" xmlns="http://www.w3.org/2000/svg">
<path d="M6.61454 14.3052C6.38642 14.3052 6.23909 14.3254 6.15186 14.3454V17.3023C6.23927 17.3225 6.38008 17.3225 6.50729 17.3225C7.43239 17.329 8.03595 16.8197 8.03595 15.7401C8.0425 14.8013 7.49282 14.3052 6.61454 14.3052Z" fill="#65473C"/>
<path d="M2.6642 14.2917C2.45647 14.2917 2.31566 14.3118 2.2417 14.3318V15.6662C2.32901 15.6862 2.43636 15.6931 2.5833 15.6931C3.12684 15.6931 3.46193 15.4181 3.46193 14.9555C3.46196 14.5399 3.17348 14.2917 2.6642 14.2917Z" fill="#65473C"/>
<path d="M13.7806 4.55308C13.7795 4.46595 13.7519 4.37988 13.6921 4.31186L10.0286 0.127425C10.0278 0.126252 10.0264 0.125873 10.0257 0.124803C10.0038 0.100415 9.97876 0.0803047 9.95182 0.0625742C9.94382 0.0573999 9.93543 0.0527431 9.92705 0.0480173C9.90377 0.035392 9.87938 0.0249055 9.85358 0.0172476C9.84702 0.0152469 9.84047 0.0124183 9.83357 0.0106245C9.80594 0.00393245 9.7772 0 9.74843 0H0.745095C0.334327 0 0 0.334361 0 0.74513V18.2549C0 18.6658 0.334327 19 0.745095 19H13.0392C13.4499 19 13.7843 18.6658 13.7843 18.2549V4.59482C13.7843 4.58082 13.7821 4.56709 13.7806 4.55308ZM4.05873 16.0014C3.7102 16.3299 3.19387 16.4776 2.59031 16.4776C2.4564 16.4776 2.33536 16.4707 2.24184 16.4576V18.0733H1.22941V13.6144C1.54438 13.5609 1.98716 13.5205 2.61084 13.5205C3.24096 13.5205 3.69026 13.6413 3.99188 13.8825C4.28037 14.1106 4.4743 14.4861 4.4743 14.9285C4.4743 15.3712 4.32714 15.7467 4.05873 16.0014ZM8.37032 17.5371C7.8948 17.9325 7.17065 18.1202 6.28585 18.1202C5.75603 18.1202 5.38076 18.0868 5.12553 18.0533V13.6144C5.50108 13.5544 5.99077 13.5205 6.50692 13.5205C7.36472 13.5205 7.92136 13.6748 8.35742 14.0033C8.8269 14.352 9.12197 14.9085 9.12197 15.7063C9.12159 16.5715 8.80651 17.1681 8.37032 17.5371ZM12.5553 14.3922H10.8184V15.4247H12.441V16.2564H10.8184V18.0733H9.79283V13.5544H12.5553V14.3922ZM0.745095 12.6512V0.74513H9.37589V4.55736C9.37589 4.76299 9.54253 4.92991 9.74843 4.92991H13.0392L13.0395 12.6512H0.745095Z" fill="#65473C"/>
<path d="M10.7147 8.00758C10.6929 8.00555 10.1679 7.95763 9.36206 7.95763C9.10959 7.95763 8.85529 7.96257 8.60424 7.97202C7.01287 6.7778 5.70944 5.58264 5.01164 4.91285C5.02436 4.8391 5.03313 4.7808 5.0372 4.73603C5.12923 3.76447 5.02692 3.10858 4.73412 2.78654C4.5424 2.57608 4.26081 2.50606 3.96719 2.58626C3.78485 2.63403 3.44732 2.81092 3.33924 3.17102C3.21992 3.56895 3.41172 4.05192 3.91559 4.61198C3.92359 4.62047 4.09458 4.79964 4.40528 5.10323C4.20335 6.06609 3.67474 8.14391 3.41827 9.14168C2.81588 9.46355 2.31398 9.85128 1.92542 10.2961L1.89997 10.3252L1.88351 10.3601C1.8435 10.4442 1.65222 10.8805 1.79583 11.2311C1.8614 11.3905 1.98427 11.5069 2.15119 11.568L2.19593 11.58C2.19593 11.58 2.23629 11.5888 2.30725 11.5888C2.61805 11.5888 3.38522 11.4254 3.79672 9.90903L3.89641 9.52482C5.33275 8.82667 7.12819 8.60145 8.42959 8.53871C9.099 9.03513 9.76514 9.49115 10.4106 9.89499L10.4317 9.9072C10.4629 9.9232 10.746 10.0629 11.0774 10.0633C11.5511 10.0633 11.8971 9.77256 12.0259 9.26597L12.0324 9.23133C12.0684 8.94182 11.9957 8.68086 11.8222 8.47686C11.4566 8.04712 10.7759 8.00965 10.7147 8.00758ZM2.31884 11.0297C2.31594 11.0262 2.31456 11.023 2.31311 11.0193C2.28221 10.9449 2.31929 10.7644 2.37386 10.6322C2.60815 10.3703 2.88939 10.1298 3.21392 9.9133C2.89788 10.9364 2.43826 11.0248 2.31884 11.0297ZM4.32549 4.23243C3.84015 3.69217 3.84742 3.42432 3.87354 3.33415C3.91638 3.18344 4.10976 3.12649 4.11142 3.12597C4.20883 3.09948 4.26795 3.10468 4.32059 3.16246C4.43964 3.29323 4.54188 3.68789 4.50149 4.41181C4.38689 4.29666 4.32549 4.23243 4.32549 4.23243ZM4.07471 8.83316L4.0831 8.80114L4.08199 8.80152C4.32501 7.8497 4.67548 6.45599 4.877 5.56074L4.88428 5.56767L4.885 5.5634C5.53696 6.17734 6.53663 7.07535 7.73358 8.00934L7.72013 8.00989L7.73993 8.02483C6.61235 8.12007 5.26559 8.34236 4.07471 8.83316ZM11.4799 9.14541C11.394 9.4609 11.2288 9.50402 11.0775 9.50402C10.9018 9.50402 10.7326 9.43089 10.694 9.41323C10.2545 9.13775 9.80487 8.83757 9.35116 8.51642C9.35478 8.51642 9.35806 8.51642 9.36206 8.51642C10.1399 8.51642 10.658 8.56365 10.6783 8.56509C10.8082 8.56992 11.2193 8.63063 11.3965 8.83892C11.466 8.92057 11.4926 9.01815 11.4799 9.14541Z" fill="#65473C"/>
</svg>
