<svg width="21" height="15" viewBox="0 0 21 15" fill="none" xmlns="http://www.w3.org/2000/svg">
<path d="M0.810492 2.079L9.43549 6.71235C9.72529 6.8676 10.1002 6.9412 10.4774 6.9412C10.8546 6.9412 11.2295 6.8676 11.5193 6.71235L20.1443 2.079C20.7066 1.77655 21.2379 0.600098 20.2064 0.600098H0.749542C-0.282007 0.600098 0.249292 1.77655 0.810492 2.079ZM20.4053 4.61245L11.5193 9.2435C11.1283 9.4482 10.8546 9.47235 10.4774 9.47235C10.1002 9.47235 9.82649 9.4482 9.43549 9.2435C9.04449 9.0388 1.23254 4.94365 0.594292 4.6113C0.145793 4.3767 0.150392 4.65155 0.150392 4.86315V13.2501C0.150392 13.7331 0.801292 14.4001 1.30039 14.4001H19.7004C20.1995 14.4001 20.8504 13.7331 20.8504 13.2501V4.8643C20.8504 4.6527 20.855 4.37785 20.4053 4.61245Z" fill="#65473C"/>
</svg>
