<svg width="17" height="29" viewBox="0 0 17 29" fill="none" xmlns="http://www.w3.org/2000/svg">
<path d="M14.2211 5.0765H17V0.0030879H11.95C11.5287 -0.0144409 6.39333 -0.112602 5.06231 4.96315C5.04303 5.01632 4.61767 6.22347 4.61767 9.04327L0 9.05729V14.3784L4.62351 14.365V28.4003H11.6859V14.3773H16.3602V9.0421H11.6859V7.36343C11.6859 6.31988 12.1258 5.0765 14.2211 5.0765ZM15.1916 10.2101V13.2081H10.5173V27.2311H5.79209V13.1929L1.16859 13.2064V10.2224L5.80437 10.2089L5.79209 9.61471C5.73133 6.6278 6.15728 5.37157 6.17656 5.31139C7.32528 0.93971 11.7116 1.1594 11.8997 1.17109L15.8314 1.17226V3.9085H14.2211C11.4907 3.9085 10.5179 5.69293 10.5179 7.36284V10.2101H15.1916Z" />
</svg>
