<svg width="27" height="11" viewBox="0 0 65 27" fill="none" xmlns="http://www.w3.org/2000/svg">
<path d="M65 9.00317H61.5144C59.7544 3.7783 54.8185 0 49.0078 0C43.0631 0 38.0276 3.95132 36.3792 9.36419C35.3364 8.67501 33.9992 8.24811 32.4992 8.24811C30.9997 8.24811 29.6628 8.67488 28.6199 9.36405C26.971 3.95118 21.9347 0.000138506 15.9901 0.000138506C10.1795 0.000138506 5.24398 3.77844 3.48425 9.0033H0V11.7116H2.87787C2.82245 12.2019 2.78765 12.6984 2.78765 13.2033C2.78765 20.4833 8.71022 26.405 15.9901 26.405C23.27 26.405 29.1932 20.4832 29.1932 13.2033C29.1932 13.1274 29.1832 13.0541 29.1818 12.9784H29.1913C29.1913 12.0223 30.5501 10.9564 32.4994 10.9564C34.4493 10.9564 35.8075 12.0223 35.8075 12.9784H35.8175C35.8161 13.0539 35.8061 13.1274 35.8061 13.2033C35.8061 20.4833 41.728 26.405 49.0078 26.405C56.2877 26.405 62.211 20.4832 62.211 13.2033C62.211 12.6984 62.1762 12.2019 62.1208 11.7116H65V9.00317ZM15.9901 23.6967C10.2038 23.6967 5.49594 18.9889 5.49594 13.2033C5.49594 7.41632 10.2038 2.70843 15.9901 2.70843C21.7771 2.70843 26.4849 7.41632 26.4849 13.2033C26.4849 18.9889 21.7771 23.6967 15.9901 23.6967ZM49.008 23.6967C43.2224 23.6967 38.5145 18.9889 38.5145 13.2033C38.5145 7.41632 43.2224 2.70843 49.008 2.70843C54.7949 2.70843 59.5028 7.41632 59.5028 13.2033C59.5027 18.9889 54.7948 23.6967 49.008 23.6967Z"/>
</svg>
