<svg width="63" height="63" viewBox="0 0 88 88" fill="none" xmlns="http://www.w3.org/2000/svg">
<path d="M82.5 33H5.5C2.46767 33 0 30.5323 0 27.5V5.5C0 2.46767 2.46767 0 5.5 0H82.5C85.5323 0 88 2.46767 88 5.5V27.5C88 30.5323 85.5323 33 82.5 33ZM5.5 3.66667C4.49167 3.66667 3.66667 4.488 3.66667 5.5V27.5C3.66667 28.512 4.49167 29.3333 5.5 29.3333H82.5C83.5083 29.3333 84.3333 28.512 84.3333 27.5V5.5C84.3333 4.488 83.5083 3.66667 82.5 3.66667H5.5Z" fill="white"/>
<path d="M34.8333 66.0002H5.5C2.46767 66.0002 0 63.5325 0 60.5002V45.8335C0 42.8012 2.46767 40.3335 5.5 40.3335H34.8333C37.8657 40.3335 40.3333 42.8012 40.3333 45.8335V60.5002C40.3333 63.5325 37.8657 66.0002 34.8333 66.0002ZM5.5 44.0002C4.49167 44.0002 3.66667 44.8215 3.66667 45.8335V60.5002C3.66667 61.5122 4.49167 62.3335 5.5 62.3335H34.8333C35.8417 62.3335 36.6667 61.5122 36.6667 60.5002V45.8335C36.6667 44.8215 35.8417 44.0002 34.8333 44.0002H5.5Z" fill="white"/>
<path d="M86.166 44.0002H49.4993C48.4873 44.0002 47.666 43.1788 47.666 42.1668C47.666 41.1548 48.4873 40.3335 49.4993 40.3335H86.166C87.178 40.3335 87.9993 41.1548 87.9993 42.1668C87.9993 43.1788 87.178 44.0002 86.166 44.0002Z" fill="white"/>
<path d="M86.166 55.0002H49.4993C48.4873 55.0002 47.666 54.1788 47.666 53.1668C47.666 52.1548 48.4873 51.3335 49.4993 51.3335H86.166C87.178 51.3335 87.9993 52.1548 87.9993 53.1668C87.9993 54.1788 87.178 55.0002 86.166 55.0002Z" fill="white"/>
<path d="M86.166 66.0002H49.4993C48.4873 66.0002 47.666 65.1788 47.666 64.1668C47.666 63.1548 48.4873 62.3335 49.4993 62.3335H86.166C87.178 62.3335 87.9993 63.1548 87.9993 64.1668C87.9993 65.1788 87.178 66.0002 86.166 66.0002Z" fill="white"/>
<path d="M86.1667 77.0002H1.83333C0.821333 77.0002 0 76.1788 0 75.1668C0 74.1548 0.821333 73.3335 1.83333 73.3335H86.1667C87.1787 73.3335 88 74.1548 88 75.1668C88 76.1788 87.1787 77.0002 86.1667 77.0002Z" fill="white"/>
<path d="M86.1667 88.0002H1.83333C0.821333 88.0002 0 87.1788 0 86.1668C0 85.1548 0.821333 84.3335 1.83333 84.3335H86.1667C87.1787 84.3335 88 85.1548 88 86.1668C88 87.1788 87.1787 88.0002 86.1667 88.0002Z" fill="white"/>
</svg>
