<svg width="21" height="21" viewBox="0 0 21 21" fill="none" xmlns="http://www.w3.org/2000/svg">
<path d="M16.596 13.0084C16.1661 12.5608 15.6475 12.3214 15.0979 12.3214C14.5528 12.3214 14.0298 12.5563 13.5821 13.004L12.1815 14.4001C12.0663 14.3381 11.9511 14.2805 11.8403 14.2228C11.6807 14.1431 11.53 14.0677 11.4015 13.9879C10.0895 13.1547 8.89727 12.0688 7.75377 10.6638C7.19974 9.96351 6.82744 9.37403 6.55708 8.77568C6.92052 8.44327 7.25736 8.09755 7.58534 7.76514C7.70945 7.64104 7.83355 7.5125 7.95765 7.3884C8.88841 6.45764 8.88841 5.25209 7.95765 4.32132L6.74766 3.11134C6.61026 2.97394 6.46843 2.83211 6.33547 2.69028C6.06953 2.41548 5.79031 2.13182 5.50221 1.86589C5.07229 1.4404 4.55816 1.21436 4.01743 1.21436C3.4767 1.21436 2.9537 1.4404 2.51048 1.86589C2.50605 1.87032 2.50605 1.87032 2.50162 1.87475L0.994672 3.395C0.427351 3.96232 0.103801 4.65374 0.0328863 5.45597C-0.0734864 6.75017 0.307682 7.95572 0.600207 8.74466C1.31822 10.6815 2.39081 12.4766 3.99084 14.4001C5.93214 16.7182 8.2679 18.5487 10.9361 19.8384C11.9555 20.3215 13.3162 20.8933 14.8364 20.9908C14.9295 20.9952 15.027 20.9997 15.1156 20.9997C16.1395 20.9997 16.9993 20.6318 17.673 19.9005C17.6775 19.8916 17.6863 19.8872 17.6907 19.8783C17.9212 19.5991 18.1872 19.3465 18.4664 19.0761C18.657 18.8944 18.852 18.7038 19.0426 18.5044C19.4814 18.0478 19.7118 17.516 19.7118 16.9708C19.7118 16.4212 19.4769 15.8938 19.0293 15.4506L16.596 13.0084ZM18.1827 17.6755C18.1783 17.6755 18.1783 17.68 18.1827 17.6755C18.0099 17.8617 17.8326 18.0301 17.642 18.2163C17.3539 18.4911 17.0614 18.7791 16.7866 19.1027C16.3389 19.5814 15.8115 19.8074 15.1201 19.8074C15.0536 19.8074 14.9827 19.8074 14.9162 19.803C13.5998 19.7188 12.3765 19.2046 11.4591 18.7659C8.95046 17.5514 6.74766 15.8273 4.91716 13.6422C3.40579 11.8206 2.39525 10.1364 1.72598 8.32803C1.31379 7.22441 1.1631 6.36457 1.22958 5.55347C1.2739 5.03491 1.47335 4.60499 1.84122 4.23711L3.3526 2.72573C3.56978 2.52185 3.80025 2.41105 4.02629 2.41105C4.30552 2.41105 4.53156 2.57947 4.67339 2.7213C4.67783 2.72573 4.68226 2.73017 4.68669 2.7346C4.95705 2.98723 5.21412 3.24873 5.48448 3.52796C5.62188 3.66979 5.76371 3.81162 5.90554 3.95788L7.11553 5.16787C7.58534 5.63769 7.58534 6.07204 7.11553 6.54185C6.987 6.67039 6.8629 6.79892 6.73436 6.92302C6.36206 7.30419 6.00748 7.65877 5.62188 8.00448C5.61302 8.01334 5.60415 8.01778 5.59972 8.02664C5.21855 8.40781 5.28947 8.78011 5.36925 9.03275C5.37368 9.04604 5.37811 9.05934 5.38254 9.07264C5.69723 9.83498 6.14045 10.553 6.81414 11.4084L6.81857 11.4128C8.04186 12.9198 9.33163 14.0943 10.7544 14.9941C10.9361 15.1093 11.1222 15.2024 11.2995 15.291C11.4591 15.3708 11.6098 15.4461 11.7383 15.5259C11.756 15.5348 11.7738 15.5481 11.7915 15.5569C11.9422 15.6323 12.084 15.6677 12.2303 15.6677C12.5982 15.6677 12.8286 15.4373 12.904 15.3619L14.4198 13.8461C14.5705 13.6954 14.8098 13.5137 15.089 13.5137C15.3638 13.5137 15.5899 13.6866 15.7273 13.8372C15.7317 13.8417 15.7317 13.8417 15.7361 13.8461L18.1783 16.2883C18.6348 16.7403 18.6348 17.2057 18.1827 17.6755Z" />
<path d="M11.3485 4.99459C12.5097 5.18961 13.5646 5.7392 14.4067 6.58132C15.2488 7.42343 15.794 8.4783 15.9934 9.63953C16.0422 9.93206 16.2948 10.1359 16.5829 10.1359C16.6183 10.1359 16.6494 10.1315 16.6848 10.1271C17.0128 10.0739 17.23 9.76363 17.1768 9.43565C16.9375 8.03064 16.2726 6.74974 15.2577 5.73477C14.2427 4.7198 12.9618 4.05497 11.5568 3.81563C11.2288 3.76244 10.923 3.97962 10.8654 4.30317C10.8077 4.62672 11.0205 4.94141 11.3485 4.99459Z" />
<path d="M20.9748 9.26354C20.5803 6.94994 19.49 4.84465 17.8147 3.16928C16.1393 1.49391 14.034 0.403587 11.7204 0.00912211C11.3968 -0.0484964 11.091 0.173113 11.0334 0.496663C10.9802 0.824646 11.1974 1.13047 11.5254 1.18809C13.5908 1.53823 15.4745 2.51774 16.9725 4.01139C18.4706 5.50947 19.4457 7.39316 19.7958 9.45856C19.8446 9.75108 20.0972 9.95497 20.3853 9.95497C20.4208 9.95497 20.4518 9.95053 20.4873 9.9461C20.8108 9.89735 21.0324 9.58709 20.9748 9.26354Z" />
</svg>
