<svg width="40" height="40" viewBox="0 0 137 137" fill="none" xmlns="http://www.w3.org/2000/svg">
<path d="M68.5002 136.84C30.7122 136.84 0.160156 106.288 0.160156 68.5002C0.160156 30.7122 30.7122 0.160156 68.5002 0.160156C106.288 0.160156 136.84 30.7122 136.84 68.5002C136.84 106.288 106.288 136.84 68.5002 136.84ZM68.5002 8.20016C35.1342 8.20016 8.20016 35.1342 8.20016 68.5002C8.20016 101.866 35.1342 128.8 68.5002 128.8C101.866 128.8 128.8 101.866 128.8 68.5002C128.8 35.1342 101.866 8.20016 68.5002 8.20016Z" fill="white"/>
<path d="M48.4004 103.473V33.5254L108.7 68.4994L48.4004 103.473ZM56.4404 47.1934V89.4034L92.6204 68.0974L56.4404 47.1934Z" fill="white"/>
</svg>
