<svg width="66" height="66" viewBox="0 0 66 66" fill="none" xmlns="http://www.w3.org/2000/svg">
<path d="M33.0005 23.1108C29.9638 23.1108 27.502 25.5727 27.502 28.6094C27.5055 31.6448 29.9652 34.1044 33.0005 34.108C36.0373 34.108 38.4991 31.6462 38.4991 28.6094C38.4991 25.5727 36.0373 23.1108 33.0005 23.1108ZM33.0005 31.9086C31.1784 31.9086 29.7014 30.4315 29.7014 28.6094C29.7033 26.7882 31.1793 25.3122 33.0005 25.3103C34.8226 25.3103 36.2997 26.7873 36.2997 28.6094C36.2997 30.4315 34.8226 31.9086 33.0005 31.9086Z" fill="#702206"/>
<path d="M44.3692 26.3584L42.8501 25.6882C42.791 25.4761 42.7273 25.2709 42.6589 25.0722L43.504 23.6139C43.6984 23.2783 43.7017 22.8651 43.5125 22.5265C43.0683 21.7329 42.5376 20.9909 41.9301 20.3142C41.6632 20.0159 41.2552 19.8862 40.8653 19.9759L39.5974 20.2662V13.2133C39.5954 10.8092 38.2867 8.59626 36.1809 7.43634C37.8583 5.67912 37.7937 2.89464 36.0365 1.21702C34.2795 -0.460465 31.495 -0.395857 29.8175 1.36149C28.1947 3.06138 28.1947 5.73658 29.8175 7.43634C27.7118 8.59626 26.403 10.8092 26.4009 13.2133V20.2662L25.1331 19.9759C24.7432 19.8864 24.3357 20.0157 24.0688 20.3136C23.4614 20.9904 22.9305 21.7321 22.4858 22.5254C22.2968 22.8643 22.3001 23.2775 22.4945 23.6133L23.3396 25.0717C23.272 25.2683 23.2089 25.4709 23.1506 25.6796L21.5708 26.3529C21.1655 26.5257 20.9023 26.9238 20.9023 27.3645V29.8538C20.9023 30.2945 21.1655 30.6926 21.5708 30.8654L23.1506 31.5387C23.2091 31.7481 23.272 31.95 23.3396 32.146L22.4945 33.6044C22.3001 33.94 22.2968 34.3532 22.4858 34.6918C22.9302 35.4852 23.461 36.2272 24.0683 36.9041C24.335 37.2027 24.743 37.3323 25.1331 37.2424L26.73 36.8768C26.8869 36.9996 27.0481 37.1187 27.2139 37.2339L27.3685 38.928C27.4044 39.3188 27.6457 39.6608 28.0017 39.8258C28.8169 40.2073 29.6727 40.4948 30.5529 40.6827C30.9444 40.7636 31.3491 40.6264 31.6107 40.3241L32.7313 39.0241H33.2672L34.3878 40.3241C34.6491 40.6269 35.0541 40.7643 35.4456 40.6827C36.3255 40.4946 37.1812 40.2071 37.9962 39.8258C38.3521 39.6611 38.5932 39.3191 38.6288 38.9286L38.784 37.2339C38.95 37.119 39.1113 36.9999 39.2683 36.8768L40.8653 37.2424C41.2554 37.3322 41.6634 37.2025 41.9301 36.9041C42.5371 36.2274 43.0677 35.4858 43.5125 34.6929C43.7016 34.354 43.6983 33.9408 43.504 33.605L42.6589 32.1466C42.7276 31.9474 42.7914 31.7419 42.8501 31.5302L44.3692 30.8601C44.7676 30.684 45.0247 30.2894 45.0249 29.8538V27.3643C45.0247 26.929 44.7676 26.5345 44.3692 26.3584ZM32.9992 2.21611C34.214 2.21611 35.1987 3.20077 35.1987 4.41555C35.1987 5.63032 34.214 6.61498 32.9992 6.61498C31.7845 6.61498 30.7998 5.63032 30.7998 4.41555C30.801 3.20132 31.785 2.21735 32.9992 2.21611ZM28.6004 13.2133C28.6004 10.7839 30.5698 8.81442 32.9992 8.81442C35.4287 8.81442 37.3981 10.7839 37.3981 13.2133V17.1534C36.7667 16.8906 36.1134 16.6839 35.4457 16.5355C35.0542 16.4544 34.6494 16.5918 34.3879 16.8942L33.2673 18.1942H32.7315L31.6118 16.8942C31.3501 16.5916 30.9451 16.4543 30.5535 16.5355C29.8855 16.6839 29.232 16.8906 28.6005 17.1534V13.2133H28.6004ZM42.8252 29.1372L41.4709 29.7349C41.153 29.8755 40.9201 30.158 40.8427 30.4969C40.7425 30.9508 40.6039 31.3953 40.4287 31.8259C40.2979 32.1423 40.322 32.5015 40.4937 32.7978L41.276 34.1471C41.0988 34.422 40.9075 34.6894 40.7019 34.9494L39.2296 34.6122C38.8844 34.532 38.5218 34.624 38.2566 34.8592C37.9142 35.1602 37.5469 35.4317 37.1585 35.6705C36.8649 35.8524 36.6738 36.1615 36.6425 36.5055L36.4985 38.0761C36.2027 38.1927 35.9076 38.2929 35.6131 38.3769L34.6041 37.2068C34.3952 36.9645 34.0913 36.8251 33.7712 36.8251H32.227C31.9071 36.8252 31.603 36.9646 31.3941 37.2068L30.3851 38.3775C30.0908 38.2932 29.7949 38.1927 29.4997 38.0763L29.3563 36.5061C29.3247 36.1619 29.1332 35.8525 28.8391 35.6706C28.4511 35.4316 28.0839 35.1602 27.7416 34.8593C27.4763 34.6244 27.1138 34.5323 26.7687 34.6123L25.2963 34.9495C25.0906 34.6896 24.8993 34.4222 24.7222 34.1473L25.5045 32.7979C25.6762 32.5017 25.7001 32.1425 25.5695 31.826C25.3941 31.3956 25.2556 30.9509 25.1555 30.497C25.0771 30.1532 24.8388 29.8678 24.5144 29.7297L23.1016 29.1277V28.0914L24.5144 27.4894C24.8388 27.3513 25.0771 27.0659 25.1555 26.7221C25.2557 26.2682 25.3943 25.8236 25.5695 25.3931C25.7001 25.0766 25.6762 24.7174 25.5045 24.4212L24.7222 23.0719C24.8994 22.7969 25.0906 22.5296 25.2957 22.2696L26.7687 22.6068C27.1138 22.6854 27.4758 22.5936 27.7416 22.3598C28.0841 22.0587 28.4514 21.7874 28.8397 21.5485C29.1333 21.3666 29.3244 21.0574 29.3557 20.7135L29.4997 19.1428C29.7949 19.0263 30.0904 18.9259 30.3856 18.8417L31.3935 20.0123C31.6026 20.2547 31.9068 20.394 32.2268 20.394H33.7711C34.091 20.3939 34.3951 20.2545 34.604 20.0123L35.613 18.8417C35.9073 18.9259 36.2031 19.0264 36.4984 19.1428L36.6418 20.713C36.6734 21.0572 36.8649 21.3666 37.1589 21.5485C37.547 21.7875 37.9142 22.0589 38.2564 22.3598C38.5222 22.5938 38.8842 22.6857 39.2294 22.6068L40.7021 22.2693C40.9077 22.5293 41.0991 22.7967 41.2761 23.0716L40.4938 24.4209C40.3221 24.7172 40.2982 25.0764 40.4288 25.3928C40.6041 25.8234 40.7425 26.2679 40.8428 26.7218C40.9202 27.0607 41.1532 27.3432 41.4711 27.4838L42.8254 28.0815V29.1372H42.8252Z" fill="#702206"/>
<path d="M53.8951 48.4043C50.8583 48.4043 48.3965 50.8662 48.3965 53.9029C48.3965 56.9396 50.8583 59.4015 53.8951 59.4015C56.9318 59.4015 59.3937 56.9396 59.3937 53.9029C59.3901 50.8675 56.9304 48.4079 53.8951 48.4043ZM53.8951 57.202C52.073 57.202 50.5959 55.725 50.5959 53.9029C50.5959 52.0808 52.073 50.6037 53.8951 50.6037C55.7172 50.6037 57.1942 52.0808 57.1942 53.9029C57.1923 55.7242 55.7163 57.2001 53.8951 57.202Z" fill="#702206"/>
<path d="M65.264 51.6518L63.7449 50.9816C63.6858 50.7695 63.6222 50.5643 63.5537 50.3658L64.3988 48.9074C64.5932 48.5719 64.5965 48.1586 64.4074 47.8201C63.9631 47.0265 63.4325 46.2844 62.8249 45.6077C62.5578 45.3098 62.15 45.1802 61.7601 45.2694L60.4922 45.5597V38.5068C60.4902 36.1027 59.1815 33.8898 57.0757 32.7299C58.7532 30.9726 58.6885 28.1882 56.9313 26.5105C55.1741 24.8329 52.3896 24.8977 50.712 26.6549C49.0892 28.3548 49.0892 31.03 50.712 32.7297C48.6063 33.8897 47.2975 36.1026 47.2955 38.5067V45.5596L46.0276 45.2693C45.6379 45.1805 45.2306 45.3097 44.9634 45.607C44.3559 46.2838 43.825 47.0255 43.3803 47.8188C43.1913 48.1577 43.1946 48.5709 43.389 48.9067L44.2341 50.3651C44.1665 50.5617 44.1034 50.7643 44.0451 50.973L42.4654 51.6463C42.06 51.819 41.7969 52.2171 41.7969 52.6579V55.1472C41.7969 55.5879 42.06 55.986 42.4654 56.1588L44.0451 56.8321C44.1037 57.0415 44.1665 57.2434 44.2341 57.4394L43.389 58.8978C43.1946 59.2333 43.1913 59.6466 43.3803 59.9851C43.8248 60.7786 44.3555 61.5206 44.9628 62.1975C45.2292 62.4963 45.6375 62.6261 46.0276 62.5358L47.6246 62.1701C47.7814 62.293 47.9427 62.4121 48.1084 62.5273L48.2631 64.2214C48.299 64.6122 48.5402 64.9542 48.8962 65.1192C49.7114 65.5006 50.5673 65.7882 51.4475 65.9761C51.8391 66.0579 52.2442 65.9205 52.5052 65.6175L53.6259 64.3175H54.1617L55.2823 65.6175C55.5436 65.9203 55.9486 66.0576 56.3401 65.9761C57.22 65.7879 58.0757 65.5005 58.8908 65.1192C59.2467 64.9545 59.4878 64.6125 59.5234 64.2219L59.6786 62.5273C59.8445 62.4124 60.006 62.2933 60.1629 62.1701L61.7598 62.5358C62.1499 62.6264 62.5583 62.4966 62.8246 62.1975C63.4316 61.5208 63.9622 60.7791 64.4071 59.9862C64.5961 59.6474 64.5928 59.2342 64.3986 58.8983L63.5534 57.44C63.6222 57.2408 63.6859 57.0353 63.7446 56.8236L65.2638 56.1534C65.6621 55.9774 65.9192 55.5828 65.9195 55.1472V52.6577C65.9195 52.2224 65.6624 51.8278 65.264 51.6518ZM53.8941 27.5095C55.1088 27.5095 56.0935 28.4942 56.0935 29.7089C56.0935 30.9237 55.1088 31.9084 53.8941 31.9084C52.6793 31.9084 51.6946 30.9237 51.6946 29.7089C51.6959 28.4947 52.6798 27.5107 53.8941 27.5095ZM49.4952 38.5067C49.4952 36.0773 51.4646 34.1078 53.8941 34.1078C56.3235 34.1078 58.2929 36.0773 58.2929 38.5067V42.4468C57.6615 42.184 57.0082 41.9773 56.3405 41.8289C55.949 41.7484 55.5445 41.8854 55.2827 42.1876L54.1621 43.4876H53.6263L52.5066 42.1876C52.2446 41.8854 51.8399 41.7482 51.4483 41.8289C50.7803 41.9773 50.1268 42.184 49.4953 42.4468V38.5067H49.4952ZM63.7202 54.4306L62.3659 55.0283C62.0479 55.1689 61.815 55.4514 61.7377 55.7903C61.6374 56.2442 61.4989 56.6887 61.3236 57.1193C61.1929 57.4357 61.2169 57.7949 61.3886 58.0912L62.1709 59.4405C61.9938 59.7154 61.8024 59.9828 61.5969 60.2428L60.1245 59.9055C59.7793 59.8251 59.4166 59.9172 59.1515 60.1526C58.8091 60.4536 58.4418 60.7251 58.0535 60.9639C57.7598 61.1458 57.5688 61.4549 57.5374 61.7989L57.3935 63.3695C57.0977 63.4861 56.8025 63.5863 56.5081 63.6703L55.4991 62.5002C55.2901 62.2578 54.9862 62.1185 54.6662 62.1185H53.1219C52.802 62.1186 52.498 62.258 52.289 62.5002L51.28 63.6708C50.9857 63.5866 50.6899 63.4861 50.3946 63.3697L50.2512 61.7995C50.2196 61.4553 50.0281 61.1459 49.7341 60.964C49.346 60.725 48.9789 60.4536 48.6366 60.1527C48.3715 59.9175 48.0088 59.8254 47.6636 59.9057L46.1912 60.2429C45.9856 59.9829 45.7942 59.7156 45.6172 59.4406L46.3995 58.0913C46.5712 57.7951 46.5951 57.4359 46.4645 57.1194C46.2891 56.689 46.1505 56.2443 46.0505 55.7904C45.9721 55.4466 45.7337 55.1612 45.4093 55.0231L43.9964 54.4211V53.3848L45.4092 52.7828C45.7336 52.6447 45.972 52.3593 46.0503 52.0155C46.1505 51.5616 46.2891 51.117 46.4644 50.6865C46.5951 50.37 46.571 50.0108 46.3993 49.7146L45.617 48.3652C45.7942 48.0903 45.9854 47.8229 46.1905 47.563L47.6635 47.9002C48.0086 47.9795 48.3709 47.8876 48.6364 47.6532C48.9789 47.3521 49.3462 47.0808 49.7345 46.8419C50.0281 46.66 50.2192 46.3508 50.2505 46.0069L50.3945 44.4362C50.6897 44.3197 50.9852 44.2193 51.2804 44.135L52.2883 45.3057C52.4974 45.548 52.8016 45.6874 53.1216 45.6874H54.6659C54.9858 45.6873 55.2899 45.5479 55.4988 45.3057L56.5078 44.135C56.8021 44.2193 57.0979 44.3198 57.3932 44.4362L57.5366 46.0063C57.5682 46.3506 57.7597 46.66 58.0537 46.8419C58.4418 47.0809 58.809 47.3523 59.1513 47.6532C59.4168 47.8876 59.7791 47.9795 60.1242 47.9002L61.5969 47.5627C61.8025 47.8227 61.9939 48.09 62.1709 48.365L61.3886 49.7143C61.2169 50.0106 61.193 50.3698 61.3236 50.6862C61.4989 51.1167 61.6373 51.5613 61.7377 52.0152C61.815 52.3541 62.0481 52.6366 62.3659 52.7772L63.7202 53.3749V54.4306Z" fill="#702206"/>
<path d="M12.106 48.4043C9.06928 48.4043 6.60742 50.8662 6.60742 53.9029C6.611 56.9383 9.07065 59.3979 12.106 59.4015C15.1427 59.4015 17.6046 56.9396 17.6046 53.9029C17.6046 50.8662 15.1427 48.4043 12.106 48.4043ZM12.106 57.202C10.2839 57.202 8.80686 55.725 8.80686 53.9029C8.80878 52.0816 10.2847 50.6057 12.106 50.6037C13.9281 50.6037 15.4052 52.0808 15.4052 53.9029C15.4052 55.725 13.9281 57.202 12.106 57.202Z" fill="#702206"/>
<path d="M23.4755 51.6518L21.9564 50.9816C21.8973 50.7695 21.8336 50.5643 21.7651 50.3658L22.6103 48.9074C22.8047 48.5719 22.808 48.1586 22.6189 47.8201C22.1745 47.0266 21.6438 46.2846 21.0364 45.6077C20.7692 45.31 20.3616 45.1805 19.9716 45.2694L18.7038 45.5597V38.5068C18.7017 36.1027 17.3931 33.8898 15.2873 32.7299C16.9647 30.9726 16.9001 28.1882 15.1429 26.5105C13.3857 24.8329 10.6012 24.8977 8.9236 26.6549C7.30083 28.3548 7.30083 31.03 8.9236 32.7297C6.81791 33.8897 5.50911 36.1026 5.50705 38.5067V45.5596L4.23921 45.2693C3.8495 45.1806 3.44219 45.3098 3.17496 45.607C2.5675 46.2838 2.03661 47.0255 1.59192 47.8188C1.4029 48.1577 1.4062 48.5709 1.60044 48.9067L2.44557 50.3651C2.37684 50.5643 2.31306 50.7698 2.25436 50.9815L0.735785 51.6518C0.337412 51.8278 0.0802156 52.2224 0.0800781 52.658V55.1473C0.0802156 55.583 0.337275 55.9776 0.735785 56.1537L2.25491 56.8239C2.31402 57.036 2.37766 57.2412 2.44612 57.4397L1.60099 58.8981C1.40661 59.2336 1.40331 59.6468 1.59233 59.9854C2.03675 60.7789 2.5675 61.5209 3.17482 62.1978C3.44123 62.4966 3.8495 62.6264 4.23963 62.5361L5.83655 62.1704C5.9934 62.2933 6.15465 62.4124 6.32043 62.5276L6.47508 64.2217C6.51096 64.6125 6.75207 64.9545 7.1081 65.1195C7.92327 65.5009 8.77912 65.7885 9.65931 65.9764C10.0509 66.0583 10.4562 65.9209 10.7171 65.6178L11.8377 64.3178H12.3736L13.4942 65.6178C13.7555 65.9206 14.1605 66.0579 14.552 65.9764C15.4319 65.7882 16.2876 65.5008 17.1026 65.1195C17.4585 64.9548 17.6996 64.6128 17.7352 64.2222L17.8904 62.5276C18.0563 62.4126 18.2179 62.2936 18.3747 62.1704L19.9716 62.5361C20.3618 62.6265 20.77 62.4968 21.0364 62.1978C21.6435 61.521 22.1742 60.7794 22.6189 59.9865C22.808 59.6477 22.8047 59.2344 22.6103 58.8986L21.7651 57.4403C21.8339 57.2411 21.8977 57.0356 21.9564 56.8239L23.4755 56.1537C23.8739 55.9776 24.1309 55.5831 24.1312 55.1475V52.658C24.1311 52.2224 23.874 51.8278 23.4755 51.6518ZM12.1056 27.5095C13.3204 27.5095 14.3051 28.4942 14.3051 29.7089C14.3051 30.9237 13.3204 31.9084 12.1056 31.9084C10.8909 31.9084 9.9062 30.9237 9.9062 29.7089C9.90744 28.4947 10.8914 27.5107 12.1056 27.5095ZM7.70676 38.5067C7.70676 36.0773 9.67622 34.1078 12.1056 34.1078C14.5351 34.1078 16.5045 36.0773 16.5045 38.5067V42.4468C15.8731 42.184 15.2198 41.9773 14.5521 41.8289C14.1606 41.748 13.7558 41.8852 13.4943 42.1876L12.3737 43.4876H11.8379L10.7182 42.1876C10.4563 41.8853 10.0515 41.7482 9.65986 41.8289C8.99192 41.9773 8.33841 42.184 7.7069 42.4468V38.5067H7.70676ZM21.9316 54.4306L20.5773 55.0283C20.2594 55.1689 20.0265 55.4514 19.9491 55.7903C19.8492 56.2442 19.7106 56.6889 19.5351 57.1193C19.4043 57.4357 19.4284 57.7949 19.6001 58.0912L20.3824 59.4405C20.2052 59.7154 20.0138 59.9828 19.8083 60.2428L18.336 59.9056C17.9908 59.825 17.6279 59.9171 17.363 60.1526C17.0206 60.4536 16.6532 60.7251 16.2649 60.9639C15.9713 61.1458 15.7802 61.4549 15.7489 61.7989L15.6049 63.3695C15.3091 63.4861 15.014 63.5863 14.7195 63.6703L13.7105 62.5002C13.5016 62.2578 13.1977 62.1185 12.8776 62.1185H11.3334C11.0135 62.1186 10.7094 62.258 10.5005 62.5002L9.49147 63.6708C9.19716 63.5866 8.90133 63.4861 8.60606 63.3697L8.46268 61.7995C8.43106 61.4553 8.23958 61.1459 7.94554 60.964C7.55748 60.725 7.19031 60.4536 6.84802 60.1527C6.58285 59.9176 6.22022 59.8255 5.87504 59.9057L4.40266 60.2429C4.19701 59.9829 4.00566 59.7156 3.82861 59.4406L4.61092 58.0913C4.78261 57.7951 4.80653 57.4359 4.67594 57.1194C4.50053 56.689 4.36197 56.2443 4.26189 55.7904C4.1845 55.4516 3.9515 55.1691 3.63368 55.0284L2.27951 54.4307V53.375L3.63382 52.7773C3.95177 52.6367 4.18464 52.3542 4.26203 52.0153C4.36197 51.5614 4.50053 51.1167 4.67608 50.6863C4.8068 50.3699 4.78275 50.0107 4.61105 49.7145L3.82874 48.3651C4.00594 48.0902 4.19715 47.8228 4.40225 47.5629L5.87518 47.9001C6.22036 47.9791 6.58244 47.8871 6.84816 47.653C7.19058 47.352 7.55789 47.0806 7.94623 46.8417C8.23985 46.6599 8.43093 46.3507 8.46227 46.0068L8.60619 44.4361C8.90147 44.3195 9.19688 44.2192 9.49216 44.1349L10.5 45.3056C10.7091 45.5479 11.0133 45.6873 11.3335 45.6873H12.8778C13.1977 45.6872 13.5017 45.5478 13.7107 45.3056L14.7197 44.1349C15.014 44.2192 15.3098 44.3197 15.6051 44.4361L15.7485 46.0062C15.7801 46.3504 15.9716 46.6599 16.2656 46.8417C16.6537 47.0808 17.0208 47.3521 17.3631 47.653C17.6286 47.8876 17.9909 47.9795 18.3361 47.9001L19.8085 47.5627C20.0141 47.8227 20.2055 48.09 20.3825 48.365L19.6002 49.7143C19.4285 50.0106 19.4046 50.3698 19.5352 50.6862C19.7107 51.1166 19.8492 51.5613 19.9492 52.0152C20.0266 52.3541 20.2596 52.6366 20.5775 52.7772L21.9318 53.3749V54.4306H21.9316Z" fill="#702206"/>
<path d="M21.4417 8.94873C14.7798 11.7665 9.37369 16.9165 6.23633 23.4341L8.21775 24.3888C11.1229 18.3528 16.1293 13.5835 22.2987 10.9741L21.4417 8.94873Z" fill="#702206"/>
<path d="M41.6443 62.415C36.1879 64.2018 30.312 64.2539 24.8248 62.5643L24.1719 64.6649C30.0962 66.4985 36.4443 66.4419 42.3349 64.5027L41.6443 62.415Z" fill="#702206"/>
<path d="M44.2621 8.8252L43.4277 10.8604C49.8248 13.478 54.9995 18.4113 57.9195 24.6761L59.9117 23.7451C56.7587 16.9795 51.1703 11.6519 44.2621 8.8252Z" fill="#702206"/>
</svg>
