<svg width="21" height="21" viewBox="0 0 21 21" fill="none" xmlns="http://www.w3.org/2000/svg">
<path d="M8.1195 20.4231C8.1195 20.7417 8.37796 21 8.69637 21H12.3034C12.622 21 12.8803 20.7417 12.8803 20.4231V19.3046C13.6388 19.1004 14.3639 18.7998 15.0454 18.4072L15.835 19.1969C15.9431 19.3051 16.0898 19.3659 16.243 19.3659C16.3958 19.3659 16.5427 19.3051 16.6509 19.1967L19.2004 16.6451C19.4255 16.4198 19.4255 16.0545 19.2004 15.8293L18.4117 15.0406C18.8043 14.3591 19.1049 13.6339 19.309 12.8753H20.4231C20.7418 12.8753 21 12.617 21 12.2984V8.69103C21 8.37237 20.7418 8.11411 20.4231 8.11411H19.3088C19.1047 7.35577 18.8043 6.63056 18.4117 5.94907L19.1961 5.16459C19.3043 5.05642 19.3651 4.90948 19.3651 4.75646C19.3649 4.60344 19.3041 4.45651 19.1959 4.34833L16.6444 1.7986C16.4193 1.57347 16.054 1.57347 15.8286 1.79883L15.0454 2.58241C14.3639 2.18983 13.6388 1.8892 12.8803 1.68502V0.576923C12.8803 0.258263 12.622 0 12.3034 0H8.69637C8.37796 0 8.1195 0.258263 8.1195 0.576923V1.68525C7.36122 1.8892 6.63607 2.18983 5.95464 2.58241L5.17113 1.79883C4.94601 1.57369 4.58074 1.57347 4.3554 1.7986L1.80408 4.34856C1.69569 4.45673 1.63485 4.60344 1.63485 4.75646C1.63485 4.90948 1.69569 5.05642 1.80386 5.16459L2.58827 5.94907C2.19573 6.63056 1.89512 7.35554 1.69096 8.11411H0.578902C0.26027 8.11411 0.00202869 8.37237 0.00202869 8.69081L6.23645e-07 12.2982C-0.000224703 12.4512 0.0606174 12.5981 0.168781 12.7063C0.276945 12.8145 0.423642 12.8753 0.576874 12.8753H1.69096C1.89512 13.6339 2.19573 14.3591 2.58827 15.0406L1.79958 15.8293C1.57446 16.0545 1.57423 16.4198 1.79958 16.6451L4.34909 19.1967C4.45725 19.3048 4.60395 19.3659 4.75695 19.3659H4.75718C4.91019 19.3659 5.05688 19.3051 5.16505 19.1969L5.95442 18.4072C6.63607 18.7998 7.36122 19.1004 8.1195 19.3046V20.4231ZM6.18066 17.1939C5.95239 17.0463 5.65201 17.0783 5.45957 17.2705L4.75718 17.973L3.02318 16.2375L3.72489 15.5355C3.91711 15.3432 3.94911 15.0428 3.80151 14.8145C3.27849 14.005 2.91073 13.1178 2.70883 12.1771C2.65159 11.9114 2.41679 11.7215 2.1448 11.7215H1.15397L1.15533 9.26795H2.1448C2.41679 9.26795 2.65159 9.0782 2.70883 8.81227C2.91073 7.87184 3.27849 6.9846 3.80151 6.17511C3.94911 5.94682 3.91711 5.64641 3.72489 5.45418L3.02769 4.75669L4.76304 3.02254L5.45957 3.71935C5.65201 3.91158 5.95216 3.94336 6.18066 3.79597C6.98986 3.27291 7.87703 2.90512 8.8176 2.7032C9.08328 2.64596 9.27324 2.41091 9.27324 2.13912V1.15385H11.7265V2.1389C11.7265 2.41091 11.9163 2.64596 12.1822 2.70297C13.1225 2.90512 14.0099 3.27269 14.8191 3.79575C15.0474 3.94336 15.3478 3.91158 15.54 3.71913L16.2367 3.02254L17.9721 4.75669L17.2749 5.45395C17.0824 5.64641 17.0507 5.94682 17.1983 6.17511C17.7213 6.9846 18.0888 7.87184 18.2909 8.81227C18.348 9.0782 18.583 9.26795 18.855 9.26795H19.8463V11.7215H18.855C18.583 11.7215 18.3482 11.9114 18.2909 12.1771C18.089 13.1176 17.7213 14.005 17.1983 14.8143C17.0507 15.0428 17.0827 15.3432 17.2749 15.5355L17.9766 16.2372L16.2426 17.9727L15.5402 17.2705C15.3478 17.0781 15.0474 17.0463 14.8191 17.1939C14.0097 17.7169 13.1225 18.0845 12.1822 18.2867C11.9163 18.3439 11.7265 18.5787 11.7265 18.8507V19.8462H9.27324V18.8507C9.27324 18.579 9.08328 18.3439 8.8176 18.2867C7.87725 18.0847 6.99009 17.7169 6.18066 17.1939Z"/>
<path d="M15.2068 10.4999C15.2068 7.90443 13.0953 5.79297 10.4999 5.79297C7.90443 5.79297 5.79297 7.90443 5.79297 10.4999C5.79297 13.0953 7.90443 15.2068 10.4999 15.2068C13.0953 15.2068 15.2068 13.0953 15.2068 10.4999ZM6.93225 10.4999C6.93225 8.53259 8.53259 6.93225 10.4999 6.93225C12.4671 6.93225 14.0675 8.53282 14.0675 10.4999C14.0675 12.4669 12.4671 14.0675 10.4999 14.0675C8.53259 14.0675 6.93225 12.4671 6.93225 10.4999Z"/>
</svg>
