<svg width="16" height="16" viewBox="0 0 16 16" fill="none" xmlns="http://www.w3.org/2000/svg">
<path d="M16 7.99573L8.70575 0V4.78955H7.85841C5.75942 4.78955 3.78597 5.60669 2.30169 7.09045C0.817419 8.57422 0 10.547 0 12.6454V16L1.39989 14.4667C3.27249 12.4158 5.93062 11.2294 8.70575 11.2024V15.9916L16 7.99573ZM0.937944 13.5896V12.6454C0.937944 10.7975 1.6578 9.06006 2.96488 7.75342C4.27197 6.44678 6.00988 5.72717 7.85841 5.72717H9.64357V2.41956L14.7308 7.99573L9.64357 13.572V10.2644H8.80209C5.84161 10.2644 2.99468 11.4723 0.937944 13.5896Z"/>
</svg>
