<svg width="23" height="14" viewBox="0 0 23 14" fill="none" xmlns="http://www.w3.org/2000/svg">
<path fill-rule="evenodd" clip-rule="evenodd" d="M0 7C0 6.79375 0.0865376 6.59595 0.240575 6.45011C0.394613 6.30426 0.603534 6.22233 0.821376 6.22233H20.1944L15.0246 1.32924C14.8704 1.18322 14.7837 0.985162 14.7837 0.778651C14.7837 0.57214 14.8704 0.374087 15.0246 0.228061C15.1788 0.082036 15.388 4.86557e-09 15.6061 0C15.8243 -4.86557e-09 16.0334 0.082036 16.1877 0.228061L22.7587 6.44941C22.8352 6.52165 22.8959 6.60747 22.9373 6.70195C22.9787 6.79642 23 6.89771 23 7C23 7.10229 22.9787 7.20358 22.9373 7.29805C22.8959 7.39253 22.8352 7.47835 22.7587 7.55059L16.1877 13.7719C16.0334 13.918 15.8243 14 15.6061 14C15.388 14 15.1788 13.918 15.0246 13.7719C14.8704 13.6259 14.7837 13.4279 14.7837 13.2213C14.7837 13.0148 14.8704 12.8168 15.0246 12.6708L20.1944 7.77767H0.821376C0.603534 7.77767 0.394613 7.69574 0.240575 7.5499C0.0865376 7.40405 0 7.20625 0 7Z" />
</svg>
