<svg width="17" height="11" viewBox="0 0 17 11" fill="none" xmlns="http://www.w3.org/2000/svg">
<path fill-rule="evenodd" clip-rule="evenodd" d="M0.737305 5.15157C0.737305 4.99978 0.797602 4.85421 0.904932 4.74688C1.01226 4.63955 1.15783 4.57925 1.30962 4.57925H14.8083L11.2061 0.978238C11.0986 0.870773 11.0383 0.725018 11.0383 0.573039C11.0383 0.421059 11.0986 0.275305 11.2061 0.167839C11.3136 0.0603734 11.4593 3.58076e-09 11.6113 0C11.7633 -3.58076e-09 11.909 0.0603734 12.0165 0.167839L16.595 4.74637C16.6483 4.79953 16.6906 4.86268 16.7195 4.93222C16.7483 5.00175 16.7632 5.07629 16.7632 5.15157C16.7632 5.22684 16.7483 5.30138 16.7195 5.37091C16.6906 5.44045 16.6483 5.5036 16.595 5.55676L12.0165 10.1353C11.909 10.2428 11.7633 10.3031 11.6113 10.3031C11.4593 10.3031 11.3136 10.2428 11.2061 10.1353C11.0986 10.0278 11.0383 9.88207 11.0383 9.73009C11.0383 9.57811 11.0986 9.43236 11.2061 9.32489L14.8083 5.72388H1.30962C1.15783 5.72388 1.01226 5.66358 0.904932 5.55625C0.797602 5.44892 0.737305 5.30335 0.737305 5.15157Z" fill="#702206"/>
</svg>
