<svg width="21" height="21" viewBox="0 0 21 21" fill="none" xmlns="http://www.w3.org/2000/svg">
<path d="M0 20.6148H21V6.54102H0V20.6148ZM15.5695 8.59306H17.742V10.7655H15.5695V8.59306ZM15.5695 12.2865H17.742V14.459H15.5695V12.2865ZM15.5695 15.98H17.742V18.1525H15.5695V15.98ZM11.4657 8.59306H13.6381V10.7655H11.4657V8.59306ZM11.4657 12.2865H13.6381V14.459H11.4657V12.2865ZM11.4657 15.98H13.6381V18.1525H11.4657V15.98ZM7.36177 8.59306H9.5343V10.7655H7.36177V8.59306ZM7.36177 12.2865H9.5343V14.459H7.36177V12.2865ZM7.36177 15.98H9.5343V18.1525H7.36177V15.98ZM3.25797 8.59306H5.43046V10.7655H3.25797V8.59306ZM3.25797 12.2865H5.43046V14.459H3.25797V12.2865ZM5.43046 15.98V18.1525H3.25797V15.98H5.43046Z" fill="#65473C"/>
<path d="M21 1.6167H17.3065V4.07898H16.0754V1.6167H4.92456V4.07898H3.69348V1.6167H0V5.31014H21V1.6167Z" fill="#65473C"/>
<path d="M4.92442 0.385254H3.69334V1.61633H4.92442V0.385254Z" fill="#65473C"/>
<path d="M17.3067 0.385254H16.0756V1.61633H17.3067V0.385254Z" fill="#65473C"/>
</svg>
