<svg width="28" height="28" viewBox="0 0 28 28" fill="none" xmlns="http://www.w3.org/2000/svg">
<path d="M23.5667 3.2085H20.7667C19.9302 3.2085 19.25 3.88866 19.25 4.72516V7.52516C19.25 8.36166 19.9302 9.04183 20.7667 9.04183H23.5667C24.4032 9.04183 25.0833 8.36166 25.0833 7.52516V4.72516C25.0833 3.88866 24.4032 3.2085 23.5667 3.2085ZM23.9167 7.52516C23.9167 7.71825 23.7597 7.87516 23.5667 7.87516H20.7667C20.5736 7.87516 20.4167 7.71825 20.4167 7.52516V4.72516C20.4167 4.53208 20.5736 4.37516 20.7667 4.37516H23.5667C23.7597 4.37516 23.9167 4.53208 23.9167 4.72516V7.52516Z" />
<path d="M22.05 0.291748H5.95C2.66933 0.291748 0 2.96866 0 6.25983V10.2084V11.3751V21.7409C0 25.0315 2.66933 27.7084 5.95 27.7084H22.05C25.3307 27.7084 28 25.0315 28 21.7409V11.3751V10.2084V6.25983C28 2.96866 25.3307 0.291748 22.05 0.291748ZM26.8333 21.7409C26.8333 24.3881 24.6872 26.5417 22.05 26.5417H5.95C3.31217 26.5417 1.16667 24.3881 1.16667 21.7409V11.3751H8.29558C6.77833 12.8585 5.83333 14.9241 5.83333 17.2084C5.83333 21.7117 9.49667 25.3751 14 25.3751C18.5033 25.3751 22.1667 21.7117 22.1667 17.2084C22.1667 14.9241 21.2217 12.8585 19.7044 11.3751H26.8333V21.7409ZM21 17.2084C21 21.0683 17.8599 24.2084 14 24.2084C10.1401 24.2084 7 21.0683 7 17.2084C7 13.3485 10.1401 10.2084 14 10.2084C17.8599 10.2084 21 13.3485 21 17.2084ZM18.1848 10.2084C16.9592 9.47283 15.5307 9.04175 14 9.04175C12.4693 9.04175 11.0407 9.47283 9.81517 10.2084H1.16667V6.25983C1.16667 3.61208 3.31275 1.45841 5.95 1.45841H22.05C24.6872 1.45841 26.8333 3.61208 26.8333 6.25983V10.2084H18.1848Z" />
<path d="M8.75 17.2085C8.75 20.103 11.1049 22.4585 14 22.4585C16.8951 22.4585 19.25 20.103 19.25 17.2085C19.25 14.314 16.8951 11.9585 14 11.9585C11.1049 11.9585 8.75 14.314 8.75 17.2085ZM18.0833 17.2085C18.0833 19.4602 16.2511 21.2918 14 21.2918C11.7489 21.2918 9.91667 19.4602 9.91667 17.2085C9.91667 14.9568 11.7489 13.1252 14 13.1252C16.2511 13.1252 18.0833 14.9568 18.0833 17.2085Z" />
</svg>
