<svg width="86" height="63" viewBox="0 0 120 88" fill="none" xmlns="http://www.w3.org/2000/svg">
<path d="M114.609 0.187012H5.39062C3.9614 0.188501 2.59114 0.756918 1.58052 1.76753C0.569906 2.77815 0.00148904 4.14841 0 5.57764L0 69.322C0.00173666 70.7512 0.570234 72.1213 1.5808 73.1319C2.59136 74.1424 3.96148 74.7109 5.39062 74.7126H14.6559L11.7797 78.8751C10.9503 80.119 10.6429 81.6389 10.9237 83.1073C11.2045 84.5757 12.051 85.875 13.2808 86.725C14.5107 87.5751 16.0253 87.9078 17.4981 87.6516C18.971 87.3953 20.2842 86.5706 21.1547 85.3551L28.5113 74.7126H91.4887L98.8425 85.3542C99.713 86.5697 101.026 87.3944 102.499 87.6507C103.972 87.9069 105.487 87.5741 106.716 86.7241C107.946 85.874 108.793 84.5748 109.074 83.1064C109.354 81.638 109.047 80.118 108.217 78.8742L105.341 74.7126H114.607C116.036 74.7117 117.407 74.1435 118.418 73.1328C119.429 72.1222 119.998 70.7517 120 69.322V5.57764C119.999 4.14841 119.43 2.77815 118.419 1.76753C117.409 0.756918 116.039 0.188501 114.609 0.187012ZM18.4584 83.4895C18.2357 83.8111 17.9384 84.0739 17.592 84.2555C17.2455 84.437 16.8602 84.5319 16.4691 84.532C16.0279 84.532 15.5952 84.4114 15.2177 84.1831C14.8402 83.9549 14.5323 83.6277 14.3273 83.2371C14.1223 82.8465 14.0281 82.4072 14.0548 81.9669C14.0815 81.5266 14.2281 81.1019 14.4788 80.7389L18.6441 74.7126H24.5231L18.4584 83.4895ZM105.521 80.7389C105.772 81.1019 105.919 81.5266 105.945 81.9669C105.972 82.4072 105.878 82.8465 105.673 83.2371C105.468 83.6277 105.16 83.9549 104.782 84.1831C104.405 84.4114 103.972 84.532 103.531 84.532C103.14 84.5318 102.754 84.4369 102.408 84.2554C102.061 84.0738 101.764 83.8111 101.541 83.4895L95.4769 74.7126H101.356L105.521 80.7389ZM116.719 69.322C116.718 69.8812 116.496 70.4173 116.1 70.8128C115.705 71.2082 115.169 71.4307 114.609 71.4314H5.39062C4.83141 71.4307 4.29532 71.2082 3.89989 70.8128C3.50447 70.4173 3.28199 69.8812 3.28125 69.322V5.57764C3.28199 5.01842 3.50447 4.48233 3.89989 4.0869C4.29532 3.69148 4.83141 3.46901 5.39062 3.46826H114.609C115.169 3.46901 115.705 3.69148 116.1 4.0869C116.496 4.48233 116.718 5.01842 116.719 5.57764V69.322Z" fill="white"/>
<path d="M110.859 7.68701H9.14063C8.92514 7.68689 8.71175 7.72924 8.51264 7.81165C8.31353 7.89405 8.13262 8.01489 7.98025 8.16727C7.82788 8.31964 7.70704 8.50054 7.62463 8.69965C7.54223 8.89875 7.49988 9.11215 7.5 9.32764V65.572C7.5 66.0071 7.67285 66.4244 7.98053 66.7321C8.2882 67.0398 8.7055 67.2126 9.14063 67.2126H110.859C111.294 67.2126 111.712 67.0398 112.019 66.7321C112.327 66.4244 112.5 66.0071 112.5 65.572V9.32764C112.5 9.11215 112.458 8.89875 112.375 8.69965C112.293 8.50054 112.172 8.31964 112.02 8.16727C111.867 8.01489 111.686 7.89405 111.487 7.81165C111.288 7.72924 111.075 7.68689 110.859 7.68701ZM109.219 63.9314H10.7813V10.9683H109.219V63.9314Z" fill="white"/>
<path d="M38.7891 28.9268H45.6328V47.613C45.6328 48.0481 45.8057 48.4654 46.1133 48.7731C46.421 49.0808 46.8383 49.2536 47.2734 49.2536C47.7086 49.2536 48.1259 49.0808 48.4335 48.7731C48.7412 48.4654 48.9141 48.0481 48.9141 47.613V28.9268H55.7578C56.1929 28.9268 56.6102 28.7539 56.9179 28.4462C57.2256 28.1386 57.3984 27.7213 57.3984 27.2861C57.3984 26.851 57.2256 26.4337 56.9179 26.126C56.6102 25.8184 56.1929 25.6455 55.7578 25.6455H38.7891C38.3539 25.6455 37.9366 25.8184 37.629 26.126C37.3213 26.4337 37.1484 26.851 37.1484 27.2861C37.1484 27.7213 37.3213 28.1386 37.629 28.4462C37.9366 28.7539 38.3539 28.9268 38.7891 28.9268Z" fill="white"/>
<path d="M71.2156 48.244C71.3399 48.5431 71.5501 48.7987 71.8195 48.9785C72.089 49.1583 72.4057 49.2542 72.7296 49.2542C73.0536 49.2542 73.3702 49.1583 73.6397 48.9785C73.9092 48.7987 74.1193 48.5431 74.2437 48.244L82.7252 27.9181C82.8134 27.7183 82.8609 27.503 82.8648 27.2847C82.8687 27.0664 82.829 26.8495 82.748 26.6467C82.667 26.4439 82.5463 26.2594 82.393 26.1039C82.2398 25.9483 82.057 25.825 81.8555 25.741C81.6539 25.657 81.4377 25.6141 81.2193 25.6148C81.001 25.6154 80.785 25.6597 80.5839 25.7449C80.3829 25.8302 80.2009 25.9547 80.0487 26.1111C79.8964 26.2676 79.7769 26.4529 79.6971 26.6562L72.7296 43.3521L65.7621 26.6562C65.5945 26.2546 65.2743 25.9361 64.8719 25.7706C64.4694 25.6052 64.0177 25.6064 63.6162 25.774C63.2146 25.9416 62.8961 26.2618 62.7306 26.6643C62.5652 27.0667 62.5664 27.5184 62.734 27.9199L71.2156 48.244Z" fill="white"/>
</svg>
