<svg width="18" height="21" viewBox="0 0 37 43" fill="none" xmlns="http://www.w3.org/2000/svg">
<path d="M18.6553 23.1696C18.6108 23.1696 18.5662 23.1696 18.5128 23.1696C18.495 23.1696 18.4772 23.1696 18.4594 23.1696C18.4327 23.1696 18.397 23.1696 18.3703 23.1696C15.7613 23.1251 13.6509 22.2079 12.0926 20.4537C8.66439 16.5891 9.23429 9.96418 9.29662 9.33195C9.51923 4.58584 11.7632 2.31518 13.6153 1.25554C14.9955 0.463036 16.6072 0.0356181 18.406 0H18.4683C18.4772 0 18.495 0 18.5039 0H18.5573C19.5457 0 21.4869 0.160282 23.348 1.21992C25.2179 2.27956 27.4975 4.55022 27.7201 9.33195C27.7824 9.96418 28.3523 16.5891 24.9241 20.4537C23.3747 22.2079 21.2643 23.1251 18.6553 23.1696ZM25.3426 9.55457C25.3426 9.52785 25.3337 9.50114 25.3337 9.48333C25.0398 3.09878 20.5074 2.41313 18.5662 2.41313H18.5306C18.5128 2.41313 18.4861 2.41313 18.4594 2.41313C16.0552 2.46656 11.968 3.44605 11.6919 9.48333C11.6919 9.51004 11.6919 9.53676 11.683 9.55457C11.6741 9.6169 11.0508 15.672 13.8825 18.8598C15.0044 20.1243 16.5004 20.7476 18.4683 20.7654C18.4861 20.7654 18.495 20.7654 18.5128 20.7654C18.5306 20.7654 18.5395 20.7654 18.5573 20.7654C20.5163 20.7476 22.0212 20.1243 23.1343 18.8598C25.957 15.6898 25.3515 9.60799 25.3426 9.55457Z" />
<path d="M0.21376 34.1578C0.21376 34.1489 0.21376 34.14 0.21376 34.1311C0.21376 34.0598 0.222664 33.9886 0.222664 33.9085C0.276089 32.1454 0.39185 28.0226 4.25642 26.7047C4.28313 26.6958 4.31875 26.6869 4.34546 26.678C8.36141 25.654 11.7006 23.3388 11.7362 23.3121C12.2794 22.9292 13.0274 23.0627 13.4103 23.6059C13.7932 24.1491 13.6596 24.8971 13.1164 25.28C12.9651 25.3868 9.42105 27.8534 4.98659 28.9932C2.91183 29.7322 2.68032 31.9495 2.61798 33.9797C2.61798 34.0598 2.61798 34.1311 2.60908 34.2023C2.60017 35.0037 2.6536 36.2414 2.79607 36.9538C4.23861 37.773 9.89299 40.6047 18.4948 40.6047C27.0609 40.6047 32.7509 37.7641 34.2024 36.9449C34.3448 36.2325 34.4072 34.9948 34.3894 34.1934C34.3894 34.1222 34.3805 34.0509 34.3805 33.9708C34.3181 31.9406 34.0866 29.7233 32.0119 28.9843C27.5774 27.8445 24.0334 25.369 23.882 25.2711C23.3388 24.8882 23.2053 24.1402 23.5882 23.597C23.9711 23.0538 24.719 22.9203 25.2622 23.3032C25.2978 23.3299 28.6192 25.645 32.653 26.6691C32.6886 26.678 32.7153 26.6869 32.742 26.6958C36.6066 28.0226 36.7224 32.1454 36.7758 33.8996C36.7758 33.9797 36.7758 34.0509 36.7847 34.1222C36.7847 34.1311 36.7847 34.14 36.7847 34.1489C36.7936 34.6119 36.8025 36.9894 36.3306 38.1826C36.2415 38.4142 36.0812 38.6101 35.8675 38.7436C35.6004 38.9217 29.198 43 18.4859 43C7.77371 43 1.37135 38.9128 1.10421 38.7436C0.89941 38.6101 0.730221 38.4142 0.641178 38.1826C0.19595 36.9983 0.204857 34.6208 0.21376 34.1578Z" />
</svg>