<svg width="70" height="70" viewBox="0 0 70 70" fill="none" xmlns="http://www.w3.org/2000/svg">
<path d="M69.1819 10.3244C69.1246 10.1266 69.0152 9.94798 68.8651 9.80711C68.715 9.66624 68.5298 9.56836 68.3288 9.52374L61.2905 7.93364L59.7004 0.895362C59.6553 0.694929 59.5571 0.510298 59.4162 0.360745C59.2753 0.211192 59.0969 0.102199 58.8995 0.0451426C58.7021 -0.0119133 58.493 -0.0149399 58.2941 0.0363789C58.0951 0.0876977 57.9136 0.19148 57.7684 0.336893L49.6736 8.43305C42.8236 4.2996 34.6976 2.81634 26.8291 4.2632C18.9605 5.71006 11.8936 9.98696 6.96213 16.2868C2.03062 22.5866 -0.424469 30.4736 0.060189 38.4594C0.544847 46.4451 3.93573 53.9773 9.59291 59.6345C15.2501 65.2917 22.7823 68.6826 30.7681 69.1673C38.7539 69.6519 46.6409 67.1968 52.9407 62.2653C59.2405 57.3338 63.5174 50.267 64.9642 42.3984C66.4111 34.5298 64.9279 26.4038 60.7944 19.5539L68.8925 11.4557C69.0375 11.3102 69.1408 11.1285 69.1917 10.9296C69.2426 10.7306 69.2392 10.5216 69.1819 10.3244ZM63.2061 36.4792C63.2052 43.1839 60.9917 49.7009 56.9091 55.0192C52.8264 60.3375 47.1028 64.1599 40.6261 65.8934C34.1494 67.6269 27.2816 67.1746 21.0882 64.6067C14.8948 62.0388 9.72186 57.4988 6.37194 51.691C3.02203 45.8831 1.68235 39.1322 2.56072 32.4853C3.4391 25.8384 6.48643 19.6671 11.23 14.9288C15.9736 10.1905 22.1482 7.15009 28.7961 6.27912C35.444 5.40815 42.1934 6.75535 47.9975 10.1117L44.2799 13.8294C44.2479 13.8658 44.2183 13.9041 44.1913 13.9442C38.8233 11.2113 32.6565 10.4827 26.7994 11.8894C20.9424 13.296 15.7791 16.7457 12.2376 21.6183C8.69616 26.4909 7.00881 32.4669 7.47885 38.4721C7.94889 44.4774 10.5455 50.1181 14.8019 54.3803C19.0584 58.6425 24.6955 61.2468 30.7002 61.725C36.7048 62.2032 42.6831 60.524 47.5605 56.9892C52.4379 53.4544 55.8946 48.2958 57.3092 42.4406C58.7238 36.5855 58.0036 30.4177 55.278 25.046C55.3202 25.0162 55.3603 24.9835 55.3981 24.9482L59.1157 21.2306C61.8004 25.8636 63.2116 31.1245 63.2061 36.4792ZM52.5526 24.8544C55.3729 29.6691 56.3421 35.3465 55.2788 40.8242C54.2154 46.3018 51.1924 51.2043 46.7754 54.614C42.3585 58.0237 36.8504 59.707 31.282 59.3488C25.7136 58.9906 20.4665 56.6155 16.5228 52.668C12.5791 48.7205 10.209 43.4712 9.85622 37.9025C9.5034 32.3337 11.192 26.8272 14.6059 22.4135C18.0199 17.9999 22.9253 14.9816 28.4039 13.9235C33.8826 12.8654 39.5591 13.8401 44.3711 16.6651L45.5806 22.0227L44.4203 23.1829C40.9603 20.1446 36.4543 18.5709 31.8551 18.7946C27.2558 19.0183 22.9238 21.0218 19.775 24.3816C16.6261 27.7413 14.9073 32.194 14.9819 36.7981C15.0565 41.4022 16.9186 45.7968 20.1747 49.0528C23.4307 52.3088 27.8253 54.171 32.4294 54.2456C37.0335 54.3201 41.4861 52.6013 44.8459 49.4525C48.2057 46.3036 50.2092 41.9716 50.4329 37.3724C50.6566 32.7731 49.0829 28.2672 46.0445 24.8071L47.2048 23.6469L52.5526 24.8544ZM37.6865 36.4792C37.6906 37.577 37.3301 38.6452 36.6615 39.516C35.9929 40.3868 35.0542 41.011 33.9926 41.2907C32.9309 41.5703 31.8065 41.4896 30.7957 41.0612C29.7849 40.6328 28.9449 39.8809 28.4076 38.9236C27.8702 37.9662 27.6659 36.8576 27.8267 35.7715C27.9875 34.6855 28.5043 33.6836 29.296 32.9231C30.0877 32.1625 31.1095 31.6863 32.2011 31.5692C33.2927 31.452 34.3923 31.7006 35.3273 32.2759L31.9358 35.6674C31.8261 35.7734 31.7387 35.9001 31.6785 36.0403C31.6184 36.1804 31.5867 36.3311 31.5854 36.4836C31.5841 36.6361 31.6132 36.7873 31.671 36.9284C31.7288 37.0695 31.8141 37.1977 31.9219 37.3055C32.0298 37.4134 32.158 37.4986 32.2992 37.5563C32.4403 37.614 32.5915 37.6431 32.744 37.6417C32.8965 37.6404 33.0472 37.6086 33.1873 37.5484C33.3274 37.4882 33.4541 37.4007 33.56 37.291L36.9515 33.8995C37.4317 34.6743 37.6862 35.5677 37.6865 36.4792ZM36.9804 30.6228C35.5008 29.5511 33.6716 29.0762 31.8575 29.2928C30.0434 29.5094 28.3775 30.4016 27.1918 31.7916C26.0061 33.1817 25.3877 34.9674 25.4598 36.793C25.5319 38.6186 26.2892 40.35 27.5809 41.6421C28.8725 42.9343 30.6036 43.6923 32.4292 43.7652C34.2547 43.838 36.0407 43.2203 37.4312 42.0352C38.8217 40.8501 39.7146 39.1845 39.9319 37.3705C40.1493 35.5565 39.6751 33.7271 38.604 32.2471L44.417 26.434C47.0217 29.46 48.3519 33.3778 48.1281 37.3641C47.9044 41.3504 46.1441 45.0948 43.2172 47.8103C40.2903 50.5258 36.4247 52.001 32.4329 51.9258C28.441 51.8506 24.6337 50.231 21.8111 47.4073C18.9885 44.5835 17.3703 40.7755 17.2968 36.7836C17.2233 32.7917 18.7 28.9268 21.4167 26.001C24.1334 23.0752 27.8785 21.3164 31.8649 21.0942C35.8512 20.8721 39.7685 22.2039 42.7935 24.8098L36.9804 30.6228ZM58.5343 18.5636L54.224 22.8732L53.5776 22.7275L53.5527 22.7216L47.8007 21.4268L46.351 15.0067L57.922 3.43374L59.2128 9.14705C59.2607 9.35885 59.3676 9.55276 59.5211 9.70631C59.6747 9.85985 59.8686 9.96675 60.0804 10.0146L65.7937 11.3055L58.5343 18.5636Z" fill="#702206"/>
</svg>
