<svg width="79" height="62" viewBox="0 0 79 62" fill="none" xmlns="http://www.w3.org/2000/svg">
<path d="M37.9559 21.3621C38.3057 21.3439 38.6573 21.3335 39.012 21.3335C39.3666 21.3335 39.7182 21.3439 40.068 21.3621C60.7496 21.9593 77.0443 39.8037 77.7383 40.5757C77.9143 40.7715 78.0117 41.0254 78.0117 41.2887C78.0117 41.552 77.9143 41.8059 77.7383 42.0017C77.0443 42.7744 60.7496 60.6187 40.068 61.2159C39.7182 61.2342 39.3662 61.2435 39.012 61.2439C38.6577 61.2443 38.3057 61.235 37.9559 61.2159C17.2743 60.6187 0.980247 42.7744 0.285561 42.0017C0.109558 41.8059 0.0121841 41.552 0.0121841 41.2887C0.0121841 41.0254 0.109558 40.7715 0.285561 40.5757C0.980247 39.8037 17.2743 21.9593 37.9559 21.3621ZM50.7065 54.7205C50.6973 52.8551 49.9504 51.069 48.6288 49.7524C47.3073 48.4357 45.5184 47.6955 43.653 47.6932H34.371C32.5055 47.6955 30.7166 48.4357 29.3951 49.7524C28.0735 51.069 27.3266 52.8551 27.3174 54.7205C30.5558 57.5511 34.7109 59.111 39.012 59.111C43.313 59.111 47.4681 57.5511 50.7065 54.7205ZM25.4016 52.7773C25.853 50.7336 26.9876 48.9049 28.6182 47.5929C30.2489 46.2809 32.278 45.564 34.371 45.5604H43.653C45.7459 45.564 47.775 46.2809 49.4057 47.5929C51.0363 48.9049 52.1709 50.7336 52.6223 52.7773C54.8162 50.1822 56.2225 47.014 56.6754 43.6461C57.1282 40.2783 56.6088 36.8511 55.1784 33.7687C53.7479 30.6863 51.4661 28.077 48.6018 26.2485C45.7375 24.4201 42.4101 23.4486 39.012 23.4486C35.6138 23.4486 32.2864 24.4201 29.4221 26.2485C26.5578 28.077 24.276 30.6863 22.8455 33.7687C21.4151 36.8511 20.8957 40.2783 21.3485 43.6461C21.8014 47.014 23.2077 50.1822 25.4016 52.7773ZM75.4727 41.2887C72.9371 38.7031 63.5612 29.7715 51.3506 25.6235C53.7238 27.4872 55.6426 29.8658 56.962 32.5796C58.2814 35.2934 58.967 38.2715 58.967 41.289C58.967 44.3066 58.2814 47.2847 56.962 49.9985C55.6426 52.7123 53.7238 55.0908 51.3506 56.9545C63.5612 52.8022 72.9371 43.8749 75.4727 41.2887ZM26.6733 56.9545C24.3001 55.0908 22.3813 52.7123 21.0619 49.9985C19.7425 47.2847 19.0569 44.3066 19.0569 41.289C19.0569 38.2715 19.7425 35.2934 21.0619 32.5796C22.3813 29.8658 24.3001 27.4872 26.6733 25.6235C14.4627 29.7746 5.08682 38.7031 2.55122 41.2887C5.08682 43.8749 14.4627 52.8022 26.6733 56.9545Z" fill="#702206"/>
<path d="M39.0133 28.116C40.5641 28.1184 42.0506 28.7355 43.1472 29.8321C44.2438 30.9286 44.8609 32.4152 44.8633 33.966V35.8508C44.8633 37.4029 44.2467 38.8915 43.1491 39.9891C42.0516 41.0866 40.563 41.7032 39.0108 41.7032C37.4587 41.7032 35.9701 41.0866 34.8726 39.9891C33.775 38.8915 33.1584 37.4029 33.1584 35.8508V33.9684C33.1602 32.4164 33.7777 30.9284 34.8754 29.8312C35.9731 28.734 37.4612 28.1171 39.0133 28.116ZM35.2961 35.855C35.2961 36.8415 35.688 37.7876 36.3856 38.4852C37.0831 39.1828 38.0292 39.5747 39.0157 39.5747C40.0022 39.5747 40.9483 39.1828 41.6459 38.4852C42.3435 37.7876 42.7353 36.8415 42.7353 35.855V33.9684C42.7353 32.9819 42.3435 32.0358 41.6459 31.3382C40.9483 30.6407 40.0022 30.2488 39.0157 30.2488C38.0292 30.2488 37.0831 30.6407 36.3856 31.3382C35.688 32.0358 35.2961 32.9819 35.2961 33.9684V35.855Z" fill="#702206"/>
<path d="M72.3863 27.7302C74.4252 29.2536 76.1979 30.7228 77.6537 32.0135C77.7649 32.1045 77.8566 32.217 77.9232 32.3443C77.9899 32.4715 78.0301 32.611 78.0416 32.7542C78.053 32.8974 78.0353 33.0415 77.9897 33.1777C77.944 33.314 77.8713 33.4396 77.7759 33.547C77.6805 33.6544 77.5644 33.7415 77.4345 33.8029C77.3046 33.8644 77.1637 33.8989 77.0201 33.9045C76.8766 33.9101 76.7333 33.8867 76.5991 33.8355C76.4648 33.7844 76.3422 33.7067 76.2387 33.607C69.3967 27.5456 55.4621 17.3727 39.0126 17.3727C22.5632 17.3727 8.62858 27.5456 1.78651 33.607C1.68172 33.6999 1.55965 33.7713 1.42728 33.817C1.29491 33.8627 1.15484 33.882 1.01504 33.8736C0.875244 33.8652 0.738472 33.8293 0.612534 33.768C0.486595 33.7068 0.373955 33.6213 0.281052 33.5165C0.188141 33.4117 0.116783 33.2897 0.0710526 33.1573C0.0253143 33.0249 0.00609589 32.8848 0.0144958 32.7451C0.0229034 32.6053 0.0587692 32.4685 0.120026 32.3425C0.18129 32.2166 0.266747 32.104 0.371544 32.0111C1.82795 30.7204 3.60123 29.2494 5.63898 27.7278L0.322792 22.3799C0.221283 22.2812 0.140442 22.1633 0.0849838 22.033C0.0295181 21.9028 0.000556946 21.7628 -0.000228882 21.6212C-0.00101471 21.4796 0.0264053 21.3393 0.0804214 21.2084C0.134438 21.0776 0.213974 20.9588 0.314392 20.8589C0.414803 20.7591 0.534088 20.6803 0.665283 20.6271C0.796471 20.5739 0.936951 20.5473 1.07852 20.549C1.22009 20.5506 1.35991 20.5804 1.48984 20.6367C1.61976 20.6929 1.73718 20.7745 1.83526 20.8766L7.38605 26.4633C9.83079 24.7357 12.3798 23.1605 15.0185 21.7468L8.63101 11.6116C8.55526 11.4932 8.50369 11.3609 8.47927 11.2224C8.45485 11.0839 8.45807 10.9419 8.48873 10.8047C8.51939 10.6674 8.5769 10.5376 8.65794 10.4227C8.73898 10.3077 8.84195 10.21 8.96092 10.135C9.0799 10.06 9.21252 10.0093 9.35117 9.9858C9.48982 9.96229 9.63175 9.96643 9.76879 9.99799C9.90583 10.0295 10.0353 10.0879 10.1497 10.1697C10.2641 10.2515 10.3612 10.3551 10.4354 10.4745L16.9246 20.7693C20.045 19.2201 23.3007 17.9597 26.6508 17.004L22.3157 4.77201C22.269 4.63997 22.2487 4.50001 22.256 4.36013C22.2633 4.22024 22.2981 4.08316 22.3584 3.95672C22.4187 3.83028 22.5033 3.71695 22.6074 3.62321C22.7115 3.52946 22.833 3.45714 22.965 3.41037C23.0971 3.36359 23.237 3.34328 23.3769 3.3506C23.5168 3.35791 23.6539 3.39271 23.7803 3.453C23.9068 3.5133 24.0201 3.5979 24.1138 3.70199C24.2076 3.80608 24.2799 3.92761 24.3267 4.05965L28.7252 16.472C31.7489 15.7515 34.839 15.3453 37.9462 15.26V1.06641C37.9462 0.783577 38.0586 0.512333 38.2586 0.312343C38.4586 0.112353 38.7298 0 39.0126 0C39.2955 0 39.5667 0.112353 39.7667 0.312343C39.9667 0.512333 40.079 0.783577 40.079 1.06641V15.2648C43.1863 15.3502 46.2764 15.7564 49.3001 16.4769L53.6986 4.05965C53.7453 3.92761 53.8177 3.80608 53.9114 3.70199C54.0051 3.5979 54.1185 3.5133 54.2449 3.453C54.3714 3.39271 54.5084 3.35791 54.6483 3.3506C54.7882 3.34328 54.9282 3.36359 55.0602 3.41037C55.1923 3.45714 55.3138 3.52946 55.4179 3.62321C55.522 3.71695 55.6066 3.83028 55.6669 3.95672C55.7272 4.08316 55.762 4.22024 55.7693 4.36013C55.7766 4.50001 55.7563 4.63997 55.7095 4.77201L51.375 17.004C54.7252 17.9597 57.9809 19.2201 61.1013 20.7693L67.5893 10.4745C67.6623 10.3526 67.7589 10.2465 67.8735 10.1625C67.9881 10.0784 68.1183 10.0182 68.2565 9.98515C68.3947 9.95215 68.5381 9.9471 68.6783 9.97031C68.8185 9.99352 68.9527 10.0445 69.0729 10.1203C69.1931 10.1961 69.2969 10.2951 69.3783 10.4116C69.4597 10.5281 69.517 10.6596 69.5468 10.7986C69.5767 10.9375 69.5784 11.081 69.552 11.2206C69.5256 11.3603 69.4715 11.4932 69.393 11.6116L63.0055 21.7468C65.6447 23.1604 68.1941 24.7356 70.6392 26.4633L76.19 20.879C76.2881 20.7769 76.4055 20.6953 76.5354 20.6391C76.6653 20.5828 76.8052 20.553 76.9467 20.5514C77.0883 20.5498 77.2288 20.5763 77.36 20.6295C77.4912 20.6828 77.6104 20.7616 77.7109 20.8614C77.8113 20.9612 77.8908 21.08 77.9448 21.2109C77.9988 21.3417 78.0263 21.482 78.0255 21.6236C78.0247 21.7652 77.9957 21.9052 77.9403 22.0355C77.8848 22.1657 77.804 22.2836 77.7025 22.3823L72.3863 27.7302Z" fill="#702206"/>
</svg>
