<svg width="43" height="25" viewBox="0 0 43 25" fill="none" xmlns="http://www.w3.org/2000/svg">
<path d="M41.0777 19.1718C40.1452 18.0543 39.0918 17.0565 38.0729 16.0915C37.7148 15.7523 37.3444 15.4016 36.9877 15.0534C36.9876 15.0533 36.9876 15.0532 36.9875 15.0531C36.5077 14.5852 36.2728 14.253 36.2483 14.0077C36.2242 13.7665 36.389 13.4088 36.768 12.8799C37.3348 12.0845 37.9389 11.2877 38.5233 10.5172C39.0428 9.83234 39.5798 9.12407 40.0946 8.41179L40.2101 8.25186C41.2145 6.86179 42.2529 5.42441 42.8093 3.67279C42.9683 3.17058 43.1333 2.4274 42.7352 1.77498C42.337 1.12239 41.5988 0.928978 41.0785 0.840392C40.8244 0.796853 40.5832 0.793252 40.3588 0.793252L33.8442 0.787475C32.7179 0.768719 31.9365 1.30258 31.5107 2.37465C31.1699 3.23086 30.7674 4.22314 30.3011 5.16443C29.409 6.98161 28.2753 9.07459 26.6322 10.8184L26.5592 10.8961C26.4474 11.0155 26.2646 11.2108 26.1707 11.2556C25.9927 11.1437 25.7873 10.5039 25.7967 10.1688C25.797 10.1605 25.797 10.1523 25.797 10.1441L25.7913 2.61654C25.7913 2.57828 25.7886 2.54001 25.7835 2.50208C25.6374 1.42817 25.3525 0.35158 23.6528 0.0161598C23.5983 0.00535875 23.5429 0 23.4875 0H16.7108C15.4359 0 14.7615 0.583845 14.2209 1.21684C14.0644 1.40138 13.6486 1.89136 13.8604 2.49036C14.0748 3.09648 14.7134 3.21747 14.9231 3.25716C15.6616 3.39732 16.0435 3.81471 16.1617 4.61265C16.3954 6.16307 16.424 7.82166 16.252 9.82974C16.204 10.3689 16.1147 10.7786 15.9707 11.1194C15.9309 11.2138 15.8959 11.2722 15.8714 11.3066C15.8324 11.2909 15.7717 11.2608 15.6876 11.2032C15.1687 10.8481 14.7776 10.2961 14.3994 9.76243C12.8887 7.62959 11.6181 5.27395 10.5143 2.55986C10.0597 1.44768 9.20514 0.826493 8.10963 0.810417C6.02242 0.775669 4.09204 0.776506 2.21014 0.813096C1.32252 0.828502 0.700081 1.10791 0.359804 1.64369C0.0191095 2.18048 0.0315852 2.86488 0.39698 3.67823C3.009 9.48654 5.38072 13.7119 8.08685 17.3787C9.99228 19.9602 11.9104 21.7522 14.1231 23.0182C16.4479 24.3482 19.0698 25.0001 22.1115 25C22.4574 25 22.8093 24.9915 23.1659 24.9745C25.0426 24.8891 25.8061 24.1426 25.8894 22.3149C25.9361 21.3489 26.0436 20.5664 26.4166 19.8865C26.521 19.6962 26.6387 19.5686 26.7315 19.5452C26.8301 19.5206 27.005 19.5809 27.1995 19.7073C27.5551 19.9382 27.8613 20.2514 28.1131 20.5263C28.3683 20.8057 28.6262 21.0943 28.8758 21.3733C29.4069 21.9676 29.956 22.5821 30.5314 23.1682C31.8328 24.4948 33.3331 25.1032 34.9924 24.9757L40.9543 24.9785C40.9545 24.9785 40.9546 24.9785 40.9547 24.9785C40.9736 24.9785 40.9925 24.9779 41.0114 24.9766C41.6991 24.9308 42.2937 24.5501 42.6428 23.9319C43.0632 23.1873 43.0568 22.2443 42.6255 21.4083C42.1753 20.5391 41.5913 19.7909 41.0777 19.1718ZM41.1557 23.0921C41.0735 23.2377 40.9721 23.2643 40.9197 23.2707L34.959 23.2679C34.9589 23.2679 34.9587 23.2679 34.9585 23.2679C34.9349 23.2679 34.9114 23.2688 34.888 23.2708C33.7137 23.3686 32.7156 22.9558 31.7504 21.972C31.2029 21.4142 30.6672 20.815 30.1491 20.2354C29.8967 19.953 29.6357 19.6608 29.3735 19.3738C29.0483 19.0186 28.6463 18.6104 28.1297 18.275C27.3564 17.7731 26.7156 17.7882 26.3142 17.8894C25.9171 17.9894 25.3526 18.2749 24.9193 19.0657C24.358 20.0888 24.2341 21.1925 24.1837 22.2352C24.1546 22.8729 24.0468 23.0413 24.0017 23.0841C23.9427 23.1402 23.7454 23.2388 23.0872 23.2689C19.9243 23.4176 17.2699 22.8512 14.9713 21.536C12.9716 20.392 11.2207 18.7486 9.4611 16.3647C6.82991 12.7996 4.51479 8.6711 1.95477 2.97834C1.86199 2.77211 1.83336 2.64342 1.82507 2.57451C1.89038 2.55308 2.01798 2.52486 2.24171 2.52076C4.10452 2.48467 6.01472 2.48366 8.08309 2.51816C8.36626 2.52235 8.6887 2.60733 8.93286 3.20474C10.0861 6.04057 11.4184 8.50849 13.0059 10.7498C13.4274 11.3447 13.952 12.0852 14.7231 12.6127C15.4293 13.0964 16.0025 13.0733 16.359 12.9688C16.7157 12.8642 17.2107 12.5736 17.5441 11.7842C17.7592 11.2754 17.8892 10.7025 17.9536 9.97853C18.1376 7.83062 18.1049 6.04484 17.851 4.36046C17.6721 3.15367 17.049 2.28188 16.0674 1.83669C16.2418 1.74593 16.4382 1.70808 16.711 1.70808H23.399C23.7753 1.79248 23.8498 1.89161 23.8754 1.92552C23.9837 2.06962 24.0457 2.41049 24.0835 2.67683L24.0892 10.1349C24.0741 10.8499 24.4216 12.4356 25.6047 12.8704C25.6144 12.874 25.6242 12.8773 25.634 12.8805C26.7111 13.2325 27.4236 12.4722 27.806 12.0636L27.8742 11.9911C29.674 10.0808 30.886 7.84879 31.8329 5.92009C32.3264 4.92412 32.7444 3.89392 33.0978 3.00588C33.2747 2.56053 33.4356 2.48718 33.8196 2.4953C33.8248 2.49547 33.83 2.49547 33.8354 2.49547L40.3583 2.50125C40.5101 2.50125 40.6684 2.50301 40.7912 2.52402C41.102 2.57694 41.23 2.64141 41.2722 2.66812C41.2766 2.7176 41.2756 2.85994 41.1816 3.15702C40.7085 4.64648 39.7941 5.91196 38.8261 7.2518L38.7105 7.41197C38.2075 8.10793 37.6764 8.80816 37.1629 9.48545C36.5709 10.2659 35.959 11.0728 35.3789 11.8871C34.1385 13.6177 34.2475 14.7662 35.7954 16.276C36.1612 16.6331 36.5362 16.9883 36.8989 17.3317C37.9272 18.3058 38.8985 19.2257 39.7654 20.2644C40.2192 20.8115 40.7336 21.4685 41.1086 22.1926C41.3041 22.5717 41.2562 22.9141 41.1557 23.0921Z" />
<path d="M6.34035 5.26895C6.21492 5.02078 6.09059 4.77194 5.96742 4.52259C5.75843 4.09984 5.24668 3.92618 4.82359 4.13517C4.40076 4.34408 4.22727 4.85617 4.43618 5.279C4.56169 5.53304 4.68837 5.78657 4.81606 6.03935C4.96635 6.33675 5.26702 6.50823 5.57883 6.50823C5.70828 6.50823 5.83982 6.47868 5.96332 6.4163C6.38439 6.20346 6.55311 5.68986 6.34035 5.26895Z" />
<path d="M11.698 14.1279C10.2977 12.2307 8.98772 10.17 7.69326 7.82816C7.4651 7.41537 6.94547 7.26584 6.53277 7.49391C6.12007 7.72208 5.97036 8.2417 6.19852 8.6544C7.52949 11.0621 8.87895 13.1843 10.324 15.1422C10.4914 15.3691 10.7499 15.4891 11.0117 15.4891C11.1879 15.4891 11.3655 15.4348 11.5181 15.322C11.8975 15.042 11.978 14.5074 11.698 14.1279Z" />
</svg>
