<svg width="39" height="28" viewBox="0 0 39 28" fill="none" xmlns="http://www.w3.org/2000/svg">
<path d="M30.5333 0H7.57888C3.39976 0 0 3.41065 0 7.60221V20.3978C0 24.5901 3.39976 28 7.57888 28H30.5333C34.7124 28 38.1122 24.5893 38.1122 20.3978V7.60221C38.1122 3.41065 34.7124 0 30.5333 0ZM36.5566 20.3986C36.5566 23.733 33.8545 26.4452 30.5333 26.4452H7.57888C4.25767 26.4452 1.5556 23.7322 1.5556 20.3986V7.60221C1.5556 4.26856 4.25767 1.5556 7.57888 1.5556H30.5333C33.8545 1.5556 36.5566 4.26856 36.5566 7.60221V20.3986Z" />
<path d="M25.947 13.7185L15.1706 7.40667C14.931 7.26667 14.6331 7.26433 14.3912 7.40278C14.1493 7.54123 14 7.79868 14 8.07791V20.7008C14 20.9793 14.1493 21.2375 14.3905 21.376C14.5102 21.4444 14.644 21.4786 14.7778 21.4786C14.9139 21.4786 15.0493 21.4428 15.1706 21.3721L25.947 15.0618C26.185 14.9225 26.332 14.6667 26.332 14.3905C26.332 14.1144 26.1858 13.8577 25.947 13.7185ZM15.5556 19.3436V9.43439L24.0149 14.3898L15.5556 19.3436Z" />
</svg>
