<?xml version="1.0" standalone="no"?>
<!DOCTYPE svg PUBLIC "-//W3C//DTD SVG 20010904//EN"
 "http://www.w3.org/TR/2001/REC-SVG-20010904/DTD/svg10.dtd">
<svg version="1.0" xmlns="http://www.w3.org/2000/svg"
 width="300.000000pt" height="300.000000pt" viewBox="0 0 300.000000 300.000000"
 preserveAspectRatio="xMidYMid meet">
<metadata>
Created by potrace 1.14, written by Peter Selinger 2001-2017
</metadata>
<g transform="translate(0.000000,300.000000) scale(0.100000,-0.100000)"
fill="#000000" stroke="none">
<path d="M1438 2687 c-31 -78 -91 -230 -133 -337 -42 -107 -87 -220 -99 -250
-13 -30 -29 -73 -36 -95 -7 -22 -16 -44 -20 -50 -4 -5 -19 -41 -33 -80 -23
-61 -90 -236 -117 -302 l-10 -23 125 0 c120 0 124 1 131 23 3 12 35 96 71 187
35 91 77 201 94 245 59 155 84 215 90 215 4 0 25 -48 47 -107 36 -97 66 -176
191 -502 34 -89 38 -94 76 -109 80 -31 157 -104 202 -192 26 -51 28 -64 28
-165 -1 -101 -3 -114 -27 -154 l-26 -44 23 -56 c13 -31 40 -98 60 -149 78
-204 86 -249 57 -316 l-21 -46 230 0 c223 0 229 1 229 20 0 13 -10 24 -27 31
-72 27 -146 118 -183 222 -9 29 -25 68 -34 87 -8 19 -36 89 -62 155 -49 128
-98 255 -219 565 -42 107 -88 224 -102 260 -14 36 -53 137 -88 225 -35 88
-107 270 -160 405 -164 416 -190 480 -195 480 -3 0 -31 -64 -62 -143z"/>
<path d="M327 2684 c-4 -4 -7 -22 -7 -41 l0 -33 65 0 64 0 3 -782 3 -783 28
-100 c32 -114 93 -257 101 -235 34 102 34 99 10 159 -38 93 -65 272 -62 403
l3 113 500 0 c532 0 543 -1 608 -49 16 -12 41 -41 55 -66 22 -37 27 -57 27
-115 0 -58 -5 -78 -28 -117 -50 -86 -124 -118 -268 -118 l-88 0 -3 93 -3 92
-108 3 -107 3 0 -353 c0 -200 -4 -368 -10 -387 -5 -19 -19 -45 -32 -58 l-21
-23 -314 0 -313 0 0 -45 0 -45 593 0 c325 0 624 5 663 10 91 12 194 54 249
102 166 147 105 430 -118 541 l-57 29 58 38 c69 46 101 85 124 149 37 104 10
217 -71 292 -63 59 -115 84 -227 109 -82 18 -129 20 -602 20 l-512 0 2 558 3
557 53 3 53 3 -3 37 -3 37 -151 3 c-82 1 -153 -1 -157 -4z m1288 -1898 c114
-52 165 -128 165 -246 0 -114 -44 -185 -137 -220 -67 -25 -209 -28 -252 -5
-42 21 -51 73 -51 306 l0 202 108 -5 c90 -4 117 -9 167 -32z"/>
<path d="M2357 2684 c-4 -4 -7 -22 -7 -40 l0 -33 63 -3 62 -3 3 -690 c3 -758
-1 -845 -49 -1006 -31 -104 -31 -105 -2 -189 7 -23 37 39 77 160 52 159 56
235 56 1027 l0 703 56 0 55 0 -3 38 -3 37 -151 3 c-82 1 -153 -1 -157 -4z"/>
<path d="M620 2445 l0 -25 293 0 294 0 11 25 12 25 -305 0 -305 0 0 -25z"/>
<path d="M1789 2448 l8 -23 297 -3 296 -2 0 25 0 25 -305 0 -304 0 8 -22z"/>
<path d="M620 2323 l0 -23 274 0 c283 0 286 0 286 38 0 4 -126 7 -280 7 l-280
0 0 -22z"/>
<path d="M1835 2332 c3 -8 5 -18 5 -23 0 -5 115 -9 276 -9 273 0 275 0 272 21
-3 20 -9 20 -281 22 -227 2 -276 0 -272 -11z"/>
<path d="M620 2195 l0 -25 249 0 c259 0 261 0 261 41 0 5 -107 9 -255 9 l-255
0 0 -25z"/>
<path d="M1882 2195 l11 -25 249 0 248 0 0 25 0 25 -260 0 -260 0 12 -25z"/>
<path d="M620 2072 l0 -22 228 2 c218 3 227 4 230 23 3 20 -3 20 -228 20
l-230 0 0 -23z"/>
<path d="M1920 2088 c0 -37 6 -38 242 -38 225 0 229 0 226 20 -3 20 -10 21
-236 23 -127 1 -232 -1 -232 -5z"/>
<path d="M620 1945 l0 -25 200 0 c187 0 200 1 210 19 5 11 10 22 10 25 0 3
-94 6 -210 6 l-210 0 0 -25z"/>
<path d="M1470 1961 c0 -5 -3 -16 -6 -25 -5 -13 2 -16 40 -16 46 0 51 5 40 34
-7 17 -74 23 -74 7z"/>
<path d="M1974 1954 c3 -9 6 -20 6 -25 0 -5 87 -9 205 -9 l205 0 0 25 0 25
-211 0 c-188 0 -210 -2 -205 -16z"/>
<path d="M620 1823 c0 -23 0 -23 180 -23 99 0 180 2 180 4 0 2 3 11 6 20 5 13
-18 16 -180 18 l-186 3 0 -22z"/>
<path d="M1417 1820 c-5 -19 0 -20 89 -20 92 0 94 1 84 20 -9 17 -21 20 -89
20 -70 0 -79 -2 -84 -20z"/>
<path d="M2024 1824 c3 -9 6 -18 6 -20 0 -2 81 -4 180 -4 173 0 180 1 180 20
0 19 -7 20 -186 20 -166 0 -185 -2 -180 -16z"/>
<path d="M620 1695 l0 -26 156 3 c152 3 157 4 165 26 l8 22 -164 0 -165 0 0
-25z"/>
<path d="M1368 1695 l-5 -25 143 0 144 0 -12 25 c-11 25 -12 25 -138 25 l-128
0 -4 -25z"/>
<path d="M2060 1714 c0 -3 5 -14 10 -25 10 -18 23 -19 165 -19 l155 0 0 25 0
25 -165 0 c-91 0 -165 -3 -165 -6z"/>
<path d="M620 1568 c0 -23 1 -23 134 -20 123 3 134 5 139 23 5 18 -1 19 -134
19 -137 0 -139 0 -139 -22z"/>
<path d="M1325 1579 c-4 -6 -5 -12 -2 -15 4 -4 367 -11 367 -7 0 1 -3 8 -6 17
-5 14 -31 16 -179 16 -112 0 -176 -4 -180 -11z"/>
<path d="M2110 1583 c1 -30 21 -34 146 -34 123 0 129 1 132 20 3 20 -1 21
-137 21 -78 0 -141 -3 -141 -7z"/>
<path d="M2162 1445 c11 -24 14 -25 120 -25 l108 0 0 25 0 25 -120 0 -120 0
12 -25z"/>
<path d="M620 1315 c0 -24 1 -24 78 -23 73 1 112 15 112 40 0 4 -43 8 -95 8
-94 0 -95 0 -95 -25z"/>
<path d="M2211 1316 c11 -23 16 -24 93 -22 76 1 81 2 84 24 3 21 1 22 -92 22
l-96 0 11 -24z"/>
<path d="M885 1284 c-8 -20 -15 -38 -15 -40 0 -2 -25 -68 -56 -146 -31 -79
-76 -195 -101 -258 -83 -216 -105 -265 -138 -310 -35 -48 -79 -84 -120 -100
-15 -6 -25 -17 -25 -30 0 -20 6 -20 285 -20 265 0 285 1 285 18 0 10 -16 25
-42 37 -49 24 -88 82 -88 133 0 18 16 74 36 125 44 113 98 252 129 332 13 33
32 83 42 110 l19 50 277 3 c152 1 277 5 277 8 0 22 -46 86 -73 103 -33 20 -47
21 -356 21 l-321 0 -15 -36z"/>
<path d="M620 1195 c0 -24 2 -25 65 -25 36 0 65 4 65 9 0 5 3 16 6 25 5 14 -4
16 -65 16 -69 0 -71 -1 -71 -25z"/>
<path d="M2250 1211 c0 -34 13 -41 76 -41 62 0 64 1 64 25 0 24 -2 25 -70 25
-38 0 -70 -4 -70 -9z"/>
<path d="M620 1067 c0 -21 5 -24 40 -24 22 0 40 4 40 8 0 4 3 14 6 23 5 13 -2
16 -40 16 -42 0 -46 -2 -46 -23z"/>
<path d="M2297 1070 c10 -38 86 -40 91 -2 3 20 -1 22 -46 22 -45 0 -50 -2 -45
-20z"/>
<path d="M620 951 c0 -25 20 -38 31 -20 15 23 10 39 -11 39 -13 0 -20 -7 -20
-19z"/>
<path d="M2340 964 c0 -3 5 -14 11 -25 8 -16 13 -18 25 -8 22 18 17 39 -11 39
-14 0 -25 -3 -25 -6z"/>
<path d="M2000 245 l-45 -45 310 2 310 3 0 40 0 40 -265 2 -265 2 -45 -44z"/>
</g>
</svg>
