<?xml version="1.0" standalone="no"?>
<!DOCTYPE svg PUBLIC "-//W3C//DTD SVG 20010904//EN"
 "http://www.w3.org/TR/2001/REC-SVG-20010904/DTD/svg10.dtd">
<svg version="1.0" xmlns="http://www.w3.org/2000/svg"
 width="1257.000000pt" height="729.000000pt" viewBox="0 0 1257.000000 729.000000"
 preserveAspectRatio="xMidYMid meet">

<g transform="translate(0.000000,729.000000) scale(0.100000,-0.100000)"
fill="#000000" stroke="none">
<path d="M0 3645 l0 -3645 6285 0 6285 0 0 3645 0 3645 -6285 0 -6285 0 0
-3645z m2321 1073 c52 -51 125 -132 163 -180 37 -49 73 -88 80 -88 7 0 38 -16
70 -35 32 -19 61 -35 63 -35 3 0 -16 39 -42 88 -51 94 -143 230 -203 301 l-37
44 74 -5 c63 -5 77 -9 92 -29 34 -43 175 -333 198 -405 19 -59 32 -80 78 -125
l55 -54 -7 55 c-20 162 -85 395 -131 468 -12 19 -12 22 0 22 12 0 125 -46 134
-55 2 -2 10 -27 17 -56 26 -95 46 -271 46 -393 0 -99 2 -123 18 -145 10 -14
28 -43 39 -64 l21 -39 11 39 c29 101 42 240 37 385 -6 168 -8 166 71 86 l43
-44 -11 -95 c-12 -103 -39 -228 -71 -329 -27 -84 -60 -160 -68 -160 -3 0 -14
22 -24 49 -26 73 -106 189 -176 253 -380 351 -986 210 -1167 -272 -90 -238
-54 -491 98 -695 24 -33 55 -87 69 -120 25 -61 97 -142 158 -178 l31 -18 -30
63 c-16 34 -28 64 -26 66 2 2 21 -5 42 -16 27 -14 54 -44 94 -103 50 -77 60
-86 110 -106 30 -12 73 -25 94 -29 l39 -7 -42 38 c-23 21 -60 60 -84 88 l-42
50 49 -6 c39 -6 59 -17 109 -60 125 -108 156 -127 206 -127 62 0 151 11 151
19 0 3 -25 17 -56 30 -93 40 -226 124 -212 133 26 16 78 7 155 -26 43 -18 123
-48 178 -66 l100 -33 80 38 80 38 -96 17 c-102 19 -186 41 -258 67 l-43 17 33
16 c31 15 43 16 119 4 47 -7 154 -13 237 -13 l153 -1 42 38 c46 41 121 132
115 139 -3 2 -49 -7 -103 -21 -151 -39 -404 -69 -404 -49 0 20 59 50 120 62
189 36 450 126 475 164 14 23 59 176 53 182 -2 2 -37 -16 -78 -41 -137 -83
-403 -204 -417 -190 -11 11 33 66 60 75 37 13 211 119 285 173 31 23 88 72
126 110 37 37 70 68 73 68 9 0 -8 -202 -24 -280 -80 -395 -360 -723 -741 -866
-129 -49 -236 -67 -397 -68 -159 0 -229 10 -360 51 -300 95 -565 325 -699 606
-133 281 -152 604 -52 895 29 84 87 202 122 249 28 37 156 119 250 160 35 15
64 32 64 37 0 5 -34 6 -82 2 l-83 -6 55 50 c30 27 65 52 77 56 12 3 59 -5 105
-17 85 -24 190 -29 252 -11 28 8 28 8 -35 37 -35 16 -98 39 -139 51 l-75 22
73 35 73 35 82 -45 c45 -25 111 -65 146 -90 52 -36 77 -46 144 -58 45 -8 83
-13 84 -11 8 7 -159 155 -224 200 -40 27 -71 52 -68 54 4 4 82 22 136 31 3 1
48 -41 100 -91z m2499 -241 c166 -59 285 -191 319 -355 48 -231 -85 -460 -317
-544 -81 -30 -234 -29 -316 1 -161 58 -283 194 -317 352 -6 30 -9 90 -6 136
11 184 140 347 325 410 94 32 222 32 312 0z m3664 -15 c164 -77 262 -206 286
-375 44 -302 -240 -576 -548 -529 -162 25 -297 124 -369 270 -35 69 -38 84
-41 176 -6 160 41 275 154 375 103 91 191 122 339 118 101 -2 116 -5 179 -35z
m-2674 -167 c72 -102 133 -185 135 -185 2 0 64 83 136 185 l133 185 83 0 c46
0 83 -2 83 -5 0 -2 -72 -101 -160 -220 -88 -118 -160 -220 -160 -225 0 -6 64
-97 143 -203 78 -105 153 -207 165 -224 l23 -33 -85 0 -86 0 -131 185 c-73
102 -136 188 -140 191 -5 2 -68 -79 -140 -182 -73 -102 -138 -188 -144 -190
-6 -3 -46 -4 -88 -2 l-76 3 165 222 c90 123 164 228 164 233 0 6 -65 98 -144
204 -79 107 -152 206 -161 220 l-17 26 85 0 85 0 132 -185z m1680 120 l0 -65
-272 -2 -273 -3 -3 -157 -3 -158 251 0 c137 0 250 -3 250 -7 0 -5 -13 -33 -28
-63 l-28 -55 -222 -3 -222 -2 0 -165 0 -165 -75 0 -75 0 0 455 0 455 350 0
350 0 0 -65z m2255 51 c100 -26 162 -72 203 -150 22 -44 26 -64 27 -141 0 -79
-3 -96 -27 -141 -27 -52 -81 -107 -124 -126 -23 -11 -22 -11 32 -75 62 -74
122 -159 153 -220 l21 -43 -92 0 -93 0 -38 69 c-21 37 -67 101 -101 142 l-62
74 -137 3 -136 3 -3 -143 -3 -143 -77 -3 -78 -3 0 456 0 455 243 0 c169 0 257
-4 292 -14z m1220 -1 c137 -36 233 -112 292 -233 38 -76 38 -76 38 -201 -1
-106 -4 -135 -23 -181 -47 -119 -147 -211 -272 -252 -56 -18 -95 -22 -292 -26
l-228 -4 0 456 0 456 213 0 c160 0 228 -4 272 -15z m-7585 -234 l41 -70 -46
-93 c-57 -113 -130 -227 -216 -333 l-64 -80 -3 38 c-3 29 5 51 32 95 88 146
168 339 200 485 4 15 8 27 11 27 2 0 23 -31 45 -69z m124 -306 c19 -73 21 -70
-107 -198 -109 -109 -291 -257 -318 -257 -3 0 -4 12 -1 28 3 17 40 61 101 122
106 106 168 183 244 308 33 54 53 78 58 70 4 -7 14 -40 23 -73z m3801 -736
c59 -15 71 -30 47 -59 -19 -23 -20 -23 -61 -7 -56 23 -97 21 -122 -4 -32 -32
-8 -58 85 -89 114 -38 146 -77 122 -150 -17 -50 -55 -73 -131 -78 -55 -4 -73
0 -120 23 -46 22 -53 29 -45 43 26 45 26 45 58 22 61 -45 172 -33 172 20 0 25
-28 42 -111 69 -98 32 -131 78 -109 147 21 62 112 89 215 63z m3365 1 c20 -5
44 -16 54 -23 17 -12 17 -14 -1 -35 -17 -22 -19 -22 -62 -7 -59 21 -97 19
-122 -6 -32 -32 -7 -59 85 -90 97 -33 126 -59 126 -114 0 -22 -7 -50 -15 -61
-39 -57 -154 -71 -243 -29 -45 21 -51 27 -43 42 27 46 27 47 59 23 61 -45 172
-33 172 19 0 26 -17 38 -96 65 -102 35 -104 36 -119 67 -55 105 61 189 205
149z m493 -13 l38 -16 -17 -26 c-11 -17 -23 -24 -33 -21 -100 33 -141 32 -165
-6 -17 -27 18 -55 97 -79 86 -26 127 -62 127 -112 0 -101 -135 -149 -257 -92
-29 13 -53 27 -53 30 0 3 7 16 15 29 l15 23 47 -23 c68 -35 133 -32 154 7 17
32 -6 57 -69 75 -118 34 -152 62 -152 126 0 71 58 110 155 105 33 -2 77 -11
98 -20z m-6823 -112 c0 -142 10 -174 59 -195 42 -17 95 -5 121 27 18 23 20 40
20 159 l0 134 35 0 35 0 0 -132 c0 -113 -3 -138 -21 -175 -55 -113 -244 -112
-299 2 -17 35 -20 62 -20 173 l0 132 35 0 35 0 0 -125z m607 -4 c59 -72 111
-130 116 -130 4 -1 7 58 7 129 l0 130 30 0 30 0 0 -190 0 -190 -29 0 c-25 0
-44 18 -138 132 l-108 131 -3 -131 -3 -132 -34 0 -35 0 0 190 0 190 29 0 c26
0 44 -17 138 -129z m453 -61 l0 -190 -35 0 -35 0 0 190 0 190 35 0 35 0 0
-190z m260 105 c15 -44 42 -111 60 -150 l32 -70 34 70 c18 39 46 107 61 153
27 81 27 82 61 82 32 0 34 -2 27 -27 -10 -43 -90 -244 -119 -302 -25 -48 -29
-51 -65 -51 l-38 0 -47 101 c-38 80 -106 258 -106 276 0 3 16 3 37 1 36 -3 37
-4 63 -83z m740 55 l0 -30 -115 0 -115 0 0 -50 0 -50 105 0 c58 0 105 -2 105
-5 0 -2 -5 -16 -12 -30 -11 -24 -14 -25 -105 -25 l-94 0 3 -51 3 -52 113 2
112 2 0 -30 0 -31 -148 0 -148 0 2 188 c1 103 2 188 3 190 0 1 66 2 146 2
l145 0 0 -30z m446 14 c43 -21 64 -59 64 -120 0 -39 -5 -51 -35 -81 l-35 -35
30 -34 c16 -19 37 -48 45 -64 l16 -30 -44 0 c-36 0 -46 4 -55 24 -6 13 -25 40
-42 60 -29 33 -37 36 -86 36 l-54 0 0 -60 0 -60 -30 0 -30 0 0 190 0 190 111
0 c82 0 120 -4 145 -16z m794 -174 l0 -190 -35 0 -35 0 0 190 0 190 35 0 35 0
0 -190z m488 163 c-3 -27 -5 -28 -70 -31 l-68 -3 0 -159 0 -160 -30 0 -30 0 0
160 0 160 -65 0 -65 0 0 30 0 30 166 0 165 0 -3 -27z m251 -57 c25 -44 50 -80
55 -80 5 -1 30 36 55 81 45 80 47 82 84 83 20 0 37 -3 37 -6 0 -8 -78 -141
-112 -191 -24 -36 -28 -51 -28 -112 l0 -71 -35 0 -35 0 0 68 c0 54 -5 74 -23
102 -13 19 -47 75 -76 123 l-51 88 42 -3 c41 -3 43 -5 87 -82z m847 68 c42
-20 64 -59 64 -113 0 -91 -47 -130 -164 -136 -42 -2 -76 -2 -76 0 0 2 5 15 11
28 9 21 20 25 66 29 65 6 96 31 96 79 0 51 -31 69 -119 69 l-74 0 0 -160 0
-160 -30 0 -30 0 0 190 0 190 111 0 c82 0 120 -4 145 -16z m504 -2 c78 -38 90
-142 24 -206 -19 -19 -31 -36 -26 -37 12 -5 82 -98 82 -110 0 -5 -18 -9 -40
-9 -31 0 -42 5 -51 23 -7 12 -26 39 -42 60 -28 34 -34 37 -84 37 l-53 0 0 -60
0 -60 -35 0 -35 0 0 190 0 190 113 0 c87 0 120 -4 147 -18z m550 -12 l0 -30
-115 0 -115 0 0 -50 0 -49 105 -3 104 -3 -12 -25 c-12 -24 -18 -25 -105 -28
l-92 -3 0 -49 0 -50 115 0 115 0 0 -30 0 -30 -150 0 -150 0 0 190 0 190 150 0
150 0 0 -30z"/>
<path d="M4570 4351 c-167 -51 -269 -214 -238 -381 20 -111 89 -198 197 -248
82 -39 193 -37 275 3 125 59 188 156 194 293 4 77 2 88 -27 147 -61 123 -176
196 -309 194 -37 0 -78 -4 -92 -8z"/>
<path d="M8184 4346 c-141 -46 -241 -192 -231 -336 5 -83 33 -146 91 -208 134
-143 358 -143 492 0 68 73 89 126 89 228 0 78 -3 90 -34 148 -38 70 -90 120
-160 154 -56 27 -185 35 -247 14z"/>
<path d="M9370 4171 l0 -181 130 0 c157 0 220 12 265 51 44 39 58 78 53 144
-6 69 -29 102 -93 135 -44 22 -64 25 -202 28 l-153 4 0 -181z"/>
<path d="M10638 4345 c-5 -5 -8 -149 -8 -322 l0 -313 119 0 c91 0 134 5 183
20 152 47 235 188 208 353 -12 76 -36 124 -88 174 -63 62 -131 83 -282 90 -69
3 -128 2 -132 -2z"/>
<path d="M6650 3060 l0 -70 73 0 c92 0 117 15 117 70 0 55 -25 70 -117 70
l-73 0 0 -70z"/>
<path d="M9540 3060 l0 -70 74 0 c69 0 76 2 95 26 27 35 26 59 -4 89 -21 22
-33 25 -95 25 l-70 0 0 -70z"/>
</g>
</svg>
