<svg xmlns="http://www.w3.org/2000/svg" xmlns:xlink="http://www.w3.org/1999/xlink" width="194" height="40" viewBox="0 0 194 40"><defs><style>.a{fill:url(#a);}.b{fill:#333;}</style><linearGradient id="a" x1="16.89" y1="-1.5" x2="60.03" y2="41.64" gradientUnits="userSpaceOnUse"><stop offset="0" stop-color="#f35c5f"/><stop offset="1" stop-color="#8b3791"/></linearGradient></defs><path class="a" d="M78.73,22.41a1.27,1.27,0,0,1-1.27-1.27V17.42a1.27,1.27,0,1,1,2.54,0v3.72A1.27,1.27,0,0,1,78.73,22.41Zm-3.57.29V15.17a1.27,1.27,0,1,0-2.54,0V22.7a1.27,1.27,0,1,0,2.54,0Zm-4.84,5.44V14.05a1.27,1.27,0,1,0-2.54,0V28.14a1.27,1.27,0,0,0,2.54,0Zm-4.84,7.5V11.11a1.27,1.27,0,1,0-2.54,0V35.64a1.27,1.27,0,0,0,2.54,0ZM60.63,34V6.46a1.27,1.27,0,1,0-2.53,0V34a1.27,1.27,0,0,0,2.53,0Zm-4.84,1.1V6.31a1.27,1.27,0,1,0-2.53,0v28.8a1.27,1.27,0,1,0,2.53,0ZM51,35.48V4.72a1.27,1.27,0,1,0-2.53,0V35.48a1.27,1.27,0,0,0,2.53,0ZM46.11,38V1.27a1.27,1.27,0,1,0-2.54,0V38a1.27,1.27,0,1,0,2.54,0Zm-4.84.94V3a1.27,1.27,0,0,0-2.54,0V38.91a1.27,1.27,0,0,0,2.54,0Zm-4.84-4.2V4.06a1.27,1.27,0,0,0-2.54,0V34.71a1.27,1.27,0,0,0,2.54,0Zm-4.84-5.23v-24a1.27,1.27,0,1,0-2.54,0v24a1.27,1.27,0,1,0,2.54,0Zm-4.85-.9v-15a1.27,1.27,0,1,0-2.53,0v15a1.27,1.27,0,1,0,2.53,0Zm-4.84,9.6V13.07a1.27,1.27,0,0,0-2.53,0V38.18a1.27,1.27,0,1,0,2.53,0Zm-4.84-.78V15.17a1.27,1.27,0,1,0-2.54,0V37.4a1.27,1.27,0,0,0,2.54,0ZM12.22,23.58V12.23a1.27,1.27,0,0,0-2.54,0V23.58a1.27,1.27,0,0,0,2.54,0Zm0,11.91V30.6a1.27,1.27,0,1,0-2.54,0v4.89a1.27,1.27,0,0,0,2.54,0Zm-4.84-11V13.4a1.27,1.27,0,0,0-2.54,0V24.47a1.27,1.27,0,0,0,2.54,0ZM2.54,21.21V15.92a1.27,1.27,0,0,0-2.54,0v5.29a1.27,1.27,0,0,0,2.54,0Z"/><path class="b" d="M98.37,21.72A9.2,9.2,0,0,1,95,19.07a5.18,5.18,0,0,1-2.86-2.13A6.36,6.36,0,0,1,91,13.27a6.68,6.68,0,0,1,.71-3.08,5.41,5.41,0,0,1,2-2.19,6,6,0,0,1,6,0,5.45,5.45,0,0,1,2,2.19,6.68,6.68,0,0,1,.71,3.08A6.4,6.4,0,0,1,101.37,17a5.22,5.22,0,0,1-3,2.1,4.35,4.35,0,0,0,1,1.5,5.16,5.16,0,0,0,1.49,1.08,3.43,3.43,0,0,0,1.54.4v.45A9.85,9.85,0,0,1,98.37,21.72Zm.83-4.53a7.37,7.37,0,0,0,.87-3.92,7.36,7.36,0,0,0-.87-3.91A2.73,2.73,0,0,0,96.75,8a2.7,2.7,0,0,0-2.43,1.37,7.36,7.36,0,0,0-.86,3.91,7.38,7.38,0,0,0,.86,3.92,2.71,2.71,0,0,0,2.43,1.37A2.75,2.75,0,0,0,99.2,17.19Z"/><path class="b" d="M104.39,18.54a2.1,2.1,0,0,1-.77-1.71,2.43,2.43,0,0,1,.41-1.44,2.58,2.58,0,0,1,1.43-.87,11,11,0,0,1,2.84-.29h.26a4,4,0,0,0-.41-2.14,1.37,1.37,0,0,0-1.23-.64,1.79,1.79,0,0,0-1.11.33,2,2,0,0,0-.63,1.23h-1a4.87,4.87,0,0,1,.08-1,1.51,1.51,0,0,1,.35-.73c.36-.4,1.23-.61,2.6-.61a3.62,3.62,0,0,1,2.65.91,3.71,3.71,0,0,1,.91,2.74V19h-1.48l-.6-.78h-.09a1.81,1.81,0,0,1-.48.48,2.48,2.48,0,0,1-1.6.47A3.37,3.37,0,0,1,104.39,18.54Zm3.32-.38a2.14,2.14,0,0,0,.51-.41,1.63,1.63,0,0,0,.34-.57V15h-.26a2.89,2.89,0,0,0-1.78.44,1.67,1.67,0,0,0-.56,1.38,1.73,1.73,0,0,0,.3,1.09,1,1,0,0,0,.83.38A1.21,1.21,0,0,0,107.71,18.16Z"/><path class="b" d="M112.4,18.46,117,11.63h-2a2.36,2.36,0,0,0-1.54.39,1.58,1.58,0,0,0-.45,1.25h-.52v-1q0-1.38,1.47-1.38h6.18l-4.93,7.37h4.56V19H112.4Z"/><path class="b" d="M121.55,18.54a2.08,2.08,0,0,1-.78-1.71,2.43,2.43,0,0,1,.41-1.44,2.58,2.58,0,0,1,1.43-.87,11.07,11.07,0,0,1,2.85-.29h.26a4,4,0,0,0-.42-2.14,1.37,1.37,0,0,0-1.23-.64,1.79,1.79,0,0,0-1.11.33,2,2,0,0,0-.63,1.23h-1a5.7,5.7,0,0,1,.08-1,1.51,1.51,0,0,1,.35-.73c.36-.4,1.23-.61,2.61-.61a3.61,3.61,0,0,1,2.64.91,3.71,3.71,0,0,1,.91,2.74V19H126.5l-.61-.78h-.09a1.81,1.81,0,0,1-.48.48,2.48,2.48,0,0,1-1.6.47A3.34,3.34,0,0,1,121.55,18.54Zm3.32-.38a2.31,2.31,0,0,0,.5-.41,1.65,1.65,0,0,0,.35-.57V15h-.26a2.92,2.92,0,0,0-1.79.44,1.67,1.67,0,0,0-.56,1.38,1.73,1.73,0,0,0,.3,1.09,1,1,0,0,0,.83.38A1.25,1.25,0,0,0,124.87,18.16Z"/><path class="b" d="M135.06,18.65a1.69,1.69,0,0,1-.48.26,3.52,3.52,0,0,1-1.34.26A3.32,3.32,0,0,1,130.48,18a4.71,4.71,0,0,1-1-3.06,4.76,4.76,0,0,1,1-3.06,3.26,3.26,0,0,1,2.7-1.19,2.38,2.38,0,0,1,1.51.49,1.79,1.79,0,0,1,.48.47h.09l.6-.78h1.48V22.29h-2.26Zm-.41-.52a1.51,1.51,0,0,0,.41-.26V12.58a3.07,3.07,0,0,0-.39-.55,1.58,1.58,0,0,0-1.17-.58,1.3,1.3,0,0,0-1.25.93,6.74,6.74,0,0,0-.39,2.54c0,2.32.57,3.47,1.73,3.47A2.28,2.28,0,0,0,134.65,18.13Z"/><path class="b" d="M139.54,18.46a1.2,1.2,0,0,1-.35-.74,10.75,10.75,0,0,1-.07-1.32h.61a2.53,2.53,0,0,0,.71,1.44,2.07,2.07,0,0,0,1.54.55c1.16,0,1.74-.39,1.74-1.18a.91.91,0,0,0-.37-.74,5.73,5.73,0,0,0-1.19-.66l-.9-.38a5.41,5.41,0,0,1-1.67-1.06,2,2,0,0,1,.36-3.09,4.24,4.24,0,0,1,2.38-.61,4.16,4.16,0,0,1,2.79.71,1.23,1.23,0,0,1,.35.73,9.27,9.27,0,0,1,.07,1.34h-.61a2.56,2.56,0,0,0-.71-1.45,2.11,2.11,0,0,0-1.54-.55,1.65,1.65,0,0,0-1.11.32,1.08,1.08,0,0,0-.37.86.92.92,0,0,0,.31.72,3.5,3.5,0,0,0,.92.57l1,.43a6.16,6.16,0,0,1,1.84,1.08,2,2,0,0,1-.41,3.14,4.93,4.93,0,0,1-2.58.6A4.16,4.16,0,0,1,139.54,18.46Z"/><path class="b" d="M148.54,18.52a2.52,2.52,0,0,1-.66-1.88v-5h-1v-.78h1V9.29l.87-1h1.38v2.6H152v.78h-1.91v5.11a2.63,2.63,0,0,0,.23,1.3.76.76,0,0,0,.68.35,2.31,2.31,0,0,0,1-.22,3.68,3.68,0,0,0,.4-.25l.24.49a4.2,4.2,0,0,1-.54.38,3.7,3.7,0,0,1-1.72.38A2.54,2.54,0,0,1,148.54,18.52Z"/><path class="b" d="M153.89,18.54a2.07,2.07,0,0,1-.77-1.71,2.36,2.36,0,0,1,.41-1.44,2.55,2.55,0,0,1,1.43-.87,11,11,0,0,1,2.84-.29h.26a4,4,0,0,0-.42-2.14,1.35,1.35,0,0,0-1.23-.64,1.79,1.79,0,0,0-1.11.33,2,2,0,0,0-.62,1.23h-1a5.7,5.7,0,0,1,.08-1,1.44,1.44,0,0,1,.36-.73c.36-.4,1.22-.61,2.6-.61a3.58,3.58,0,0,1,2.64.91,3.71,3.71,0,0,1,.91,2.74V19h-1.47l-.61-.78h-.08a2,2,0,0,1-.49.48,2.43,2.43,0,0,1-1.59.47A3.35,3.35,0,0,1,153.89,18.54Zm3.32-.38a2.31,2.31,0,0,0,.5-.41,1.65,1.65,0,0,0,.35-.57V15h-.26a2.92,2.92,0,0,0-1.79.44,1.67,1.67,0,0,0-.55,1.38,1.79,1.79,0,0,0,.29,1.09,1,1,0,0,0,.84.38A1.21,1.21,0,0,0,157.21,18.16Z"/><path class="b" d="M162.6,13.1a2.79,2.79,0,0,0-.23-1.31,1,1,0,0,0-1-.42h-.18v-.52H163a2.6,2.6,0,0,1,.93.14,1.16,1.16,0,0,1,.53.5,3.61,3.61,0,0,1,2.53-.82,3.47,3.47,0,0,1,2.47.78,3.15,3.15,0,0,1,.82,2.41V19H168V13.85a2.83,2.83,0,0,0-.44-1.75,1.48,1.48,0,0,0-1.21-.56,2.69,2.69,0,0,0-.94.15,1.79,1.79,0,0,0-.65.39l0,.24a2.26,2.26,0,0,1,.07.68v6H162.6Z"/><path class="b" d="M91.41,24.7a2.75,2.75,0,0,0-.24-1.31,1,1,0,0,0-1-.43H90v-.52h2.09a1.78,1.78,0,0,1,1,.21,1.15,1.15,0,0,1,.47.69,5.23,5.23,0,0,1,.14,1.36v1.52a3.56,3.56,0,0,1,.53-.32,3.2,3.2,0,0,1,1.37-.33,3.76,3.76,0,0,1,2.35.72,2.89,2.89,0,0,1,1,2.45v5.15H96.62V28.83A2.93,2.93,0,0,0,96.17,27a1.33,1.33,0,0,0-1.12-.58,1.89,1.89,0,0,0-1,.32,1.85,1.85,0,0,0-.4.29v6.85H91.41Z"/><path class="b" d="M101.08,33.43a2.1,2.1,0,0,1-.77-1.71,2.36,2.36,0,0,1,.41-1.44,2.52,2.52,0,0,1,1.43-.86,10.54,10.54,0,0,1,2.84-.3h.26a4.17,4.17,0,0,0-.41-2.14,1.39,1.39,0,0,0-1.24-.63,1.79,1.79,0,0,0-1.11.33,2.09,2.09,0,0,0-.62,1.23h-1a5.84,5.84,0,0,1,.07-1,1.52,1.52,0,0,1,.36-.73c.36-.4,1.23-.6,2.6-.6a3.58,3.58,0,0,1,2.65.91,3.71,3.71,0,0,1,.91,2.73v4.68H106l-.6-.78h-.09a2.26,2.26,0,0,1-.49.49,2.49,2.49,0,0,1-1.59.46A3.37,3.37,0,0,1,101.08,33.43Zm3.32-.38a2.35,2.35,0,0,0,.51-.41,1.63,1.63,0,0,0,.34-.57V29.9H105a2.89,2.89,0,0,0-1.78.44,1.67,1.67,0,0,0-.56,1.38,1.71,1.71,0,0,0,.3,1.09,1,1,0,0,0,.83.39A1.21,1.21,0,0,0,104.4,33.05Z"/><path class="b" d="M109.52,24.7a2.75,2.75,0,0,0-.24-1.31,1.05,1.05,0,0,0-1-.43h-.17v-.52h2.08a1.8,1.8,0,0,1,1,.21,1.14,1.14,0,0,1,.46.69,4.83,4.83,0,0,1,.14,1.36v9.19h-2.25Z"/><path class="b" d="M119.07,33.54a1.69,1.69,0,0,1-.48.26,3.74,3.74,0,0,1-4.1-.92,4.76,4.76,0,0,1-1-3.07,4.8,4.8,0,0,1,1-3.06,3.25,3.25,0,0,1,2.7-1.18,2.37,2.37,0,0,1,1.51.48,1.79,1.79,0,0,1,.48.47h.09l.6-.78h1.48V37.19h-2.26Zm-.41-.52a1.31,1.31,0,0,0,.41-.26V27.47a3.07,3.07,0,0,0-.39-.55,1.6,1.6,0,0,0-1.17-.57,1.3,1.3,0,0,0-1.25.92,6.74,6.74,0,0,0-.39,2.54c0,2.32.57,3.47,1.73,3.47A2.16,2.16,0,0,0,118.66,33Z"/><path class="b" d="M124,36.75a2.94,2.94,0,0,0,1.55-.36,2.56,2.56,0,0,0,.95-1.32l.37-.94L123.7,27.3a2.11,2.11,0,0,0-1.61-1.39v-.34h1.53a2.44,2.44,0,0,1,1.35.37,2.51,2.51,0,0,1,.9,1l2,4.37L130,25.74h.92L127.4,35a4,4,0,0,1-1.13,1.84,2.56,2.56,0,0,1-1.61.5H124Z"/><path class="b" d="M132.58,28a2.79,2.79,0,0,0-.23-1.31,1,1,0,0,0-1-.42h-.18v-.52h1.72a2.38,2.38,0,0,1,.93.15,1.09,1.09,0,0,1,.53.49,3.61,3.61,0,0,1,2.53-.81,3.47,3.47,0,0,1,2.47.77,3.16,3.16,0,0,1,.82,2.42v5.13H138V28.74a2.83,2.83,0,0,0-.44-1.75,1.48,1.48,0,0,0-1.21-.56,2.69,2.69,0,0,0-.94.15,1.79,1.79,0,0,0-.65.39l.05.24a2.26,2.26,0,0,1,.07.68v6h-2.26Z"/><path class="b" d="M142.44,33.43a2.1,2.1,0,0,1-.77-1.71,2.43,2.43,0,0,1,.41-1.44,2.52,2.52,0,0,1,1.43-.86,10.54,10.54,0,0,1,2.84-.3h.26A4.07,4.07,0,0,0,146.2,27a1.38,1.38,0,0,0-1.23-.63,1.79,1.79,0,0,0-1.11.33,2,2,0,0,0-.63,1.23h-.95a4.92,4.92,0,0,1,.08-1,1.51,1.51,0,0,1,.35-.73c.36-.4,1.23-.6,2.6-.6a3.58,3.58,0,0,1,2.65.91,3.67,3.67,0,0,1,.91,2.73v4.68h-1.48l-.6-.78h-.09a2,2,0,0,1-.48.49,2.54,2.54,0,0,1-1.6.46A3.37,3.37,0,0,1,142.44,33.43Zm3.32-.38a2.14,2.14,0,0,0,.51-.41,1.63,1.63,0,0,0,.34-.57V29.9h-.26a2.89,2.89,0,0,0-1.78.44,1.67,1.67,0,0,0-.56,1.38,1.71,1.71,0,0,0,.3,1.09,1,1,0,0,0,.83.39A1.21,1.21,0,0,0,145.76,33.05Z"/></svg>