<svg xmlns="http://www.w3.org/2000/svg">
<symbol id="arrow-button" viewBox="0 0 23 14"> <path fill-rule="evenodd" clip-rule="evenodd" d="M0 7C0 6.79375 0.0865376 6.59595 0.240575 6.45011C0.394613 6.30426 0.603534 6.22233 0.821376 6.22233H20.1944L15.0246 1.32924C14.8704 1.18322 14.7837 0.985162 14.7837 0.778651C14.7837 0.57214 14.8704 0.374087 15.0246 0.228061C15.1788 0.082036 15.388 4.86557e-09 15.6061 0C15.8243 -4.86557e-09 16.0334 0.082036 16.1877 0.228061L22.7587 6.44941C22.8352 6.52165 22.8959 6.60747 22.9373 6.70195C22.9787 6.79642 23 6.89771 23 7C23 7.10229 22.9787 7.20358 22.9373 7.29805C22.8959 7.39253 22.8352 7.47835 22.7587 7.55059L16.1877 13.7719C16.0334 13.918 15.8243 14 15.6061 14C15.388 14 15.1788 13.918 15.0246 13.7719C14.8704 13.6259 14.7837 13.4279 14.7837 13.2213C14.7837 13.0148 14.8704 12.8168 15.0246 12.6708L20.1944 7.77767H0.821376C0.603534 7.77767 0.394613 7.69574 0.240575 7.5499C0.0865376 7.40405 0 7.20625 0 7Z"/> </symbol>
<symbol id="arrow-left" viewBox="0 0 17 14"> <path d="M16.5172 5.89142H4.16508L8.64745 1.51025L7.45 0.339844L0.92334 6.71915L7.45 13.0985L8.64745 11.9281L4.16508 7.54688H16.5172V5.89142Z"/> </symbol>
<symbol id="arrow-link" viewBox="0 0 17 11"> <path fill-rule="evenodd" clip-rule="evenodd" d="M0.737305 5.15157C0.737305 4.99978 0.797602 4.85421 0.904932 4.74688C1.01226 4.63955 1.15783 4.57925 1.30962 4.57925H14.8083L11.2061 0.978238C11.0986 0.870773 11.0383 0.725018 11.0383 0.573039C11.0383 0.421059 11.0986 0.275305 11.2061 0.167839C11.3136 0.0603734 11.4593 3.58076e-09 11.6113 0C11.7633 -3.58076e-09 11.909 0.0603734 12.0165 0.167839L16.595 4.74637C16.6483 4.79953 16.6906 4.86268 16.7195 4.93222C16.7483 5.00175 16.7632 5.07629 16.7632 5.15157C16.7632 5.22684 16.7483 5.30138 16.7195 5.37091C16.6906 5.44045 16.6483 5.5036 16.595 5.55676L12.0165 10.1353C11.909 10.2428 11.7633 10.3031 11.6113 10.3031C11.4593 10.3031 11.3136 10.2428 11.2061 10.1353C11.0986 10.0278 11.0383 9.88207 11.0383 9.73009C11.0383 9.57811 11.0986 9.43236 11.2061 9.32489L14.8083 5.72388H1.30962C1.15783 5.72388 1.01226 5.66358 0.904932 5.55625C0.797602 5.44892 0.737305 5.30335 0.737305 5.15157Z" fill="#702206"/> </symbol>
<symbol id="arrow-list" viewBox="0 0 19 12"> <path fill-rule="evenodd" clip-rule="evenodd" d="M0 6C0 5.82321 0.070228 5.65367 0.195235 5.52866C0.320241 5.40366 0.489787 5.33343 0.666573 5.33343H16.3884L12.193 1.13935C12.0678 1.01418 11.9975 0.844425 11.9975 0.667415C11.9975 0.490406 12.0678 0.320646 12.193 0.195481C12.3181 0.0703166 12.4879 4.17049e-09 12.6649 0C12.8419 -4.17049e-09 13.0117 0.0703166 13.1368 0.195481L18.4694 5.52807C18.5315 5.58998 18.5807 5.66354 18.6143 5.74452C18.6479 5.82551 18.6652 5.91232 18.6652 6C18.6652 6.08768 18.6479 6.17449 18.6143 6.25548C18.5807 6.33646 18.5315 6.41002 18.4694 6.47193L13.1368 11.8045C13.0117 11.9297 12.8419 12 12.6649 12C12.4879 12 12.3181 11.9297 12.193 11.8045C12.0678 11.6794 11.9975 11.5096 11.9975 11.3326C11.9975 11.1556 12.0678 10.9858 12.193 10.8607L16.3884 6.66657H0.666573C0.489787 6.66657 0.320241 6.59635 0.195235 6.47134C0.070228 6.34633 0 6.17679 0 6Z" fill="#702206"/> </symbol>
<symbol id="arrow-news-next" viewBox="0 0 12 16"> <path d="M0 0L12 8.06L0 16L0 0Z" fill="#65473C"/> </symbol>
<symbol id="arrow-news-prev" viewBox="0 0 12 16"> <path d="M12 0L0 8.06L12 16L12 0Z" fill="#65473C"/> </symbol>
<symbol id="arrow-next" viewBox="0 0 9 18"> <path d="M1.30814 18L8.7302 9.72889C9.08993 9.32561 9.08993 8.67439 8.7302 8.27111L1.30814 0L0 1.46812L6.76335 9.00517L0 16.5422L1.30814 18Z" fill="#65473C"/> </symbol>
<symbol id="arrow-prev" viewBox="0 0 10 18"> <path d="M8.54651 18L0.299782 9.72889C-0.0999272 9.32561 -0.0999272 8.67439 0.299782 8.27111L8.54651 0L10 1.46812L2.48517 9.00517L10 16.5422L8.54651 18Z" fill="#65473C"/> </symbol>
<symbol id="arrow-right" viewBox="0 0 17 14"> <path d="M0.922243 5.89142H13.2744L8.79201 1.51025L9.98945 0.339844L16.5161 6.71915L9.98945 13.0985L8.79201 11.9281L13.2744 7.54688H0.922243V5.89142Z"/> </symbol>
<symbol id="calendar" viewBox="0 0 21 21"> <path d="M0 20.6148H21V6.54102H0V20.6148ZM15.5695 8.59306H17.742V10.7655H15.5695V8.59306ZM15.5695 12.2865H17.742V14.459H15.5695V12.2865ZM15.5695 15.98H17.742V18.1525H15.5695V15.98ZM11.4657 8.59306H13.6381V10.7655H11.4657V8.59306ZM11.4657 12.2865H13.6381V14.459H11.4657V12.2865ZM11.4657 15.98H13.6381V18.1525H11.4657V15.98ZM7.36177 8.59306H9.5343V10.7655H7.36177V8.59306ZM7.36177 12.2865H9.5343V14.459H7.36177V12.2865ZM7.36177 15.98H9.5343V18.1525H7.36177V15.98ZM3.25797 8.59306H5.43046V10.7655H3.25797V8.59306ZM3.25797 12.2865H5.43046V14.459H3.25797V12.2865ZM5.43046 15.98V18.1525H3.25797V15.98H5.43046Z" fill="#65473C"/> <path d="M21 1.6167H17.3065V4.07898H16.0754V1.6167H4.92456V4.07898H3.69348V1.6167H0V5.31014H21V1.6167Z" fill="#65473C"/> <path d="M4.92442 0.385254H3.69334V1.61633H4.92442V0.385254Z" fill="#65473C"/> <path d="M17.3067 0.385254H16.0756V1.61633H17.3067V0.385254Z" fill="#65473C"/> </symbol>
<symbol id="call" viewBox="0 0 21 21"> <path d="M20.7082 17.4622L17.7474 20.3993C17.3104 20.8475 16.7311 20.9993 16.1669 21C13.6719 20.9253 11.3136 19.6997 9.37724 18.4412C6.19885 16.129 3.28255 13.2618 1.45222 9.79706C0.750228 8.34415 -0.0734619 6.49036 0.00523565 4.86866C0.0122532 4.25861 0.176648 3.65988 0.606291 3.26665L3.56705 0.307385C4.18186 -0.215567 4.77642 -0.0347575 5.16985 0.574382L7.5518 5.09117C7.8025 5.62627 7.65869 6.1996 7.28464 6.58196L6.19383 7.67221C6.12649 7.76445 6.08362 7.86945 6.08253 7.98373C6.50082 9.60286 7.76801 11.0952 8.88745 12.1222C10.0069 13.1493 11.2101 14.5407 12.772 14.8701C12.9651 14.9239 13.2016 14.9429 13.3397 14.8145L14.6086 13.524C15.0461 13.1924 15.6776 13.0304 16.1446 13.3015H16.1669L20.4633 15.838C21.094 16.2333 21.1598 16.9974 20.7082 17.4622Z" fill="#65473C"/> </symbol>
<symbol id="check" viewBox="0 0 11 8"> <path d="M3.59213 5.96565L1.07909 3.5968L0 4.61397L3.59213 8L11 1.01717L9.92091 0L3.59213 5.96565Z"/> </symbol>
<symbol id="close" viewBox="0 0 28 28"> <path d="M26 26L2 2" fill="none" stroke-width="3" stroke-linejoin="round"/> <path d="M26 2L2 26" fill="none" stroke-width="3" stroke-linejoin="round"/> </symbol>
<symbol id="count-1" viewBox="0 0 143 148"> <path fill-rule="evenodd" clip-rule="evenodd" d="M140.484 93.5755C131.906 123.645 104.225 145.66 71.4016 145.66C38.5788 145.66 10.8978 123.645 2.31939 93.5755H0.241377C8.87646 124.764 37.4651 147.66 71.4016 147.66C105.338 147.66 133.927 124.764 142.562 93.5755H140.484ZM2.08026 54.9434C10.3727 24.4351 38.2672 2 71.4016 2C104.536 2 132.431 24.4351 140.723 54.9434H142.794C134.45 23.318 105.649 0 71.4016 0C37.1545 0 8.35353 23.318 0.00927734 54.9434H2.08026Z" fill="white"/> </symbol>
<symbol id="count-2" viewBox="0 0 123 118"> <path fill-rule="evenodd" clip-rule="evenodd" d="M76.683 117.964C86.8011 115.317 96.3714 110.029 104.301 102.1C128.104 78.2966 128.104 39.7034 104.301 15.8998C96.3714 7.97065 86.8011 2.68274 76.683 0.0361328V2.10618C86.2812 4.70858 95.3501 9.77787 102.886 17.3141C125.909 40.3366 125.909 77.6634 102.886 100.686C95.3501 108.222 86.2812 113.291 76.683 115.894V117.964ZM44.7891 2.36616C35.5351 5.03874 26.8071 10.0214 19.5144 17.3141C-3.50807 40.3366 -3.50807 77.6634 19.5144 100.686C26.8071 107.979 35.5351 112.961 44.7891 115.634V117.713C35.0147 114.991 25.7864 109.786 18.1002 102.1C-5.70333 78.2966 -5.70333 39.7034 18.1002 15.8998C25.7864 8.21366 35.0147 3.00934 44.7891 0.286908V2.36616Z" fill="white"/> </symbol>
<symbol id="doc-common" viewBox="0 0 14 20"> <path d="M14 4.66667H9.33333V0H0V19.9111H14V4.66667ZM11.6667 16.3722H8.16667V15.2056H11.6667V16.3722ZM11.6667 14.0389H2.33333V12.8722H11.6667V14.0389ZM11.6667 10.5389H2.33333V9.37222H11.6667V10.5389ZM11.6667 7.03889H2.33333V5.87222H11.6667V7.03889Z" fill="#65473C"/> <path d="M13.6582 3.49988L10.5 0.341675V3.49988H13.6582Z" fill="#65473C"/> </symbol>
<symbol id="doc-pdf" viewBox="0 0 14 19"> <path d="M6.61454 14.3052C6.38642 14.3052 6.23909 14.3254 6.15186 14.3454V17.3023C6.23927 17.3225 6.38008 17.3225 6.50729 17.3225C7.43239 17.329 8.03595 16.8197 8.03595 15.7401C8.0425 14.8013 7.49282 14.3052 6.61454 14.3052Z" fill="#65473C"/> <path d="M2.6642 14.2917C2.45647 14.2917 2.31566 14.3118 2.2417 14.3318V15.6662C2.32901 15.6862 2.43636 15.6931 2.5833 15.6931C3.12684 15.6931 3.46193 15.4181 3.46193 14.9555C3.46196 14.5399 3.17348 14.2917 2.6642 14.2917Z" fill="#65473C"/> <path d="M13.7806 4.55308C13.7795 4.46595 13.7519 4.37988 13.6921 4.31186L10.0286 0.127425C10.0278 0.126252 10.0264 0.125873 10.0257 0.124803C10.0038 0.100415 9.97876 0.0803047 9.95182 0.0625742C9.94382 0.0573999 9.93543 0.0527431 9.92705 0.0480173C9.90377 0.035392 9.87938 0.0249055 9.85358 0.0172476C9.84702 0.0152469 9.84047 0.0124183 9.83357 0.0106245C9.80594 0.00393245 9.7772 0 9.74843 0H0.745095C0.334327 0 0 0.334361 0 0.74513V18.2549C0 18.6658 0.334327 19 0.745095 19H13.0392C13.4499 19 13.7843 18.6658 13.7843 18.2549V4.59482C13.7843 4.58082 13.7821 4.56709 13.7806 4.55308ZM4.05873 16.0014C3.7102 16.3299 3.19387 16.4776 2.59031 16.4776C2.4564 16.4776 2.33536 16.4707 2.24184 16.4576V18.0733H1.22941V13.6144C1.54438 13.5609 1.98716 13.5205 2.61084 13.5205C3.24096 13.5205 3.69026 13.6413 3.99188 13.8825C4.28037 14.1106 4.4743 14.4861 4.4743 14.9285C4.4743 15.3712 4.32714 15.7467 4.05873 16.0014ZM8.37032 17.5371C7.8948 17.9325 7.17065 18.1202 6.28585 18.1202C5.75603 18.1202 5.38076 18.0868 5.12553 18.0533V13.6144C5.50108 13.5544 5.99077 13.5205 6.50692 13.5205C7.36472 13.5205 7.92136 13.6748 8.35742 14.0033C8.8269 14.352 9.12197 14.9085 9.12197 15.7063C9.12159 16.5715 8.80651 17.1681 8.37032 17.5371ZM12.5553 14.3922H10.8184V15.4247H12.441V16.2564H10.8184V18.0733H9.79283V13.5544H12.5553V14.3922ZM0.745095 12.6512V0.74513H9.37589V4.55736C9.37589 4.76299 9.54253 4.92991 9.74843 4.92991H13.0392L13.0395 12.6512H0.745095Z" fill="#65473C"/> <path d="M10.7147 8.00758C10.6929 8.00555 10.1679 7.95763 9.36206 7.95763C9.10959 7.95763 8.85529 7.96257 8.60424 7.97202C7.01287 6.7778 5.70944 5.58264 5.01164 4.91285C5.02436 4.8391 5.03313 4.7808 5.0372 4.73603C5.12923 3.76447 5.02692 3.10858 4.73412 2.78654C4.5424 2.57608 4.26081 2.50606 3.96719 2.58626C3.78485 2.63403 3.44732 2.81092 3.33924 3.17102C3.21992 3.56895 3.41172 4.05192 3.91559 4.61198C3.92359 4.62047 4.09458 4.79964 4.40528 5.10323C4.20335 6.06609 3.67474 8.14391 3.41827 9.14168C2.81588 9.46355 2.31398 9.85128 1.92542 10.2961L1.89997 10.3252L1.88351 10.3601C1.8435 10.4442 1.65222 10.8805 1.79583 11.2311C1.8614 11.3905 1.98427 11.5069 2.15119 11.568L2.19593 11.58C2.19593 11.58 2.23629 11.5888 2.30725 11.5888C2.61805 11.5888 3.38522 11.4254 3.79672 9.90903L3.89641 9.52482C5.33275 8.82667 7.12819 8.60145 8.42959 8.53871C9.099 9.03513 9.76514 9.49115 10.4106 9.89499L10.4317 9.9072C10.4629 9.9232 10.746 10.0629 11.0774 10.0633C11.5511 10.0633 11.8971 9.77256 12.0259 9.26597L12.0324 9.23133C12.0684 8.94182 11.9957 8.68086 11.8222 8.47686C11.4566 8.04712 10.7759 8.00965 10.7147 8.00758ZM2.31884 11.0297C2.31594 11.0262 2.31456 11.023 2.31311 11.0193C2.28221 10.9449 2.31929 10.7644 2.37386 10.6322C2.60815 10.3703 2.88939 10.1298 3.21392 9.9133C2.89788 10.9364 2.43826 11.0248 2.31884 11.0297ZM4.32549 4.23243C3.84015 3.69217 3.84742 3.42432 3.87354 3.33415C3.91638 3.18344 4.10976 3.12649 4.11142 3.12597C4.20883 3.09948 4.26795 3.10468 4.32059 3.16246C4.43964 3.29323 4.54188 3.68789 4.50149 4.41181C4.38689 4.29666 4.32549 4.23243 4.32549 4.23243ZM4.07471 8.83316L4.0831 8.80114L4.08199 8.80152C4.32501 7.8497 4.67548 6.45599 4.877 5.56074L4.88428 5.56767L4.885 5.5634C5.53696 6.17734 6.53663 7.07535 7.73358 8.00934L7.72013 8.00989L7.73993 8.02483C6.61235 8.12007 5.26559 8.34236 4.07471 8.83316ZM11.4799 9.14541C11.394 9.4609 11.2288 9.50402 11.0775 9.50402C10.9018 9.50402 10.7326 9.43089 10.694 9.41323C10.2545 9.13775 9.80487 8.83757 9.35116 8.51642C9.35478 8.51642 9.35806 8.51642 9.36206 8.51642C10.1399 8.51642 10.658 8.56365 10.6783 8.56509C10.8082 8.56992 11.2193 8.63063 11.3965 8.83892C11.466 8.92057 11.4926 9.01815 11.4799 9.14541Z" fill="#65473C"/> </symbol>
<symbol id="download" viewBox="0 0 36 36"> <path d="M2.8125 22.0078V31.7812C2.8125 32.5567 3.44334 33.1875 4.21875 33.1875H31.7812C32.5567 33.1875 33.1875 32.5567 33.1875 31.7812V22.0078H36V31.7812C36 34.1075 34.1075 36 31.7812 36H4.21875C1.89253 36 0 34.1075 0 31.7812V22.0078H2.8125Z"/> <path d="M11.2496 16.5738L16.5933 21.9175V0H19.4058V21.9175L24.7496 16.5738L26.7383 18.5625L17.9996 27.3012L9.26085 18.5625L11.2496 16.5738Z"/> </symbol>
<symbol id="email" viewBox="0 0 21 15"> <path d="M0.810492 2.079L9.43549 6.71235C9.72529 6.8676 10.1002 6.9412 10.4774 6.9412C10.8546 6.9412 11.2295 6.8676 11.5193 6.71235L20.1443 2.079C20.7066 1.77655 21.2379 0.600098 20.2064 0.600098H0.749542C-0.282007 0.600098 0.249292 1.77655 0.810492 2.079ZM20.4053 4.61245L11.5193 9.2435C11.1283 9.4482 10.8546 9.47235 10.4774 9.47235C10.1002 9.47235 9.82649 9.4482 9.43549 9.2435C9.04449 9.0388 1.23254 4.94365 0.594292 4.6113C0.145793 4.3767 0.150392 4.65155 0.150392 4.86315V13.2501C0.150392 13.7331 0.801292 14.4001 1.30039 14.4001H19.7004C20.1995 14.4001 20.8504 13.7331 20.8504 13.2501V4.8643C20.8504 4.6527 20.855 4.37785 20.4053 4.61245Z" fill="#65473C"/> </symbol>
<symbol id="fb" viewBox="0 0 17 29"> <path d="M14.2211 5.0765H17V0.0030879H11.95C11.5287 -0.0144409 6.39333 -0.112602 5.06231 4.96315C5.04303 5.01632 4.61767 6.22347 4.61767 9.04327L0 9.05729V14.3784L4.62351 14.365V28.4003H11.6859V14.3773H16.3602V9.0421H11.6859V7.36343C11.6859 6.31988 12.1258 5.0765 14.2211 5.0765ZM15.1916 10.2101V13.2081H10.5173V27.2311H5.79209V13.1929L1.16859 13.2064V10.2224L5.80437 10.2089L5.79209 9.61471C5.73133 6.6278 6.15728 5.37157 6.17656 5.31139C7.32528 0.93971 11.7116 1.1594 11.8997 1.17109L15.8314 1.17226V3.9085H14.2211C11.4907 3.9085 10.5179 5.69293 10.5179 7.36284V10.2101H15.1916Z"/> </symbol>
<symbol id="glasses" viewBox="0 0 65 27"> <path d="M65 9.00317H61.5144C59.7544 3.7783 54.8185 0 49.0078 0C43.0631 0 38.0276 3.95132 36.3792 9.36419C35.3364 8.67501 33.9992 8.24811 32.4992 8.24811C30.9997 8.24811 29.6628 8.67488 28.6199 9.36405C26.971 3.95118 21.9347 0.000138506 15.9901 0.000138506C10.1795 0.000138506 5.24398 3.77844 3.48425 9.0033H0V11.7116H2.87787C2.82245 12.2019 2.78765 12.6984 2.78765 13.2033C2.78765 20.4833 8.71022 26.405 15.9901 26.405C23.27 26.405 29.1932 20.4832 29.1932 13.2033C29.1932 13.1274 29.1832 13.0541 29.1818 12.9784H29.1913C29.1913 12.0223 30.5501 10.9564 32.4994 10.9564C34.4493 10.9564 35.8075 12.0223 35.8075 12.9784H35.8175C35.8161 13.0539 35.8061 13.1274 35.8061 13.2033C35.8061 20.4833 41.728 26.405 49.0078 26.405C56.2877 26.405 62.211 20.4832 62.211 13.2033C62.211 12.6984 62.1762 12.2019 62.1208 11.7116H65V9.00317ZM15.9901 23.6967C10.2038 23.6967 5.49594 18.9889 5.49594 13.2033C5.49594 7.41632 10.2038 2.70843 15.9901 2.70843C21.7771 2.70843 26.4849 7.41632 26.4849 13.2033C26.4849 18.9889 21.7771 23.6967 15.9901 23.6967ZM49.008 23.6967C43.2224 23.6967 38.5145 18.9889 38.5145 13.2033C38.5145 7.41632 43.2224 2.70843 49.008 2.70843C54.7949 2.70843 59.5028 7.41632 59.5028 13.2033C59.5027 18.9889 54.7948 23.6967 49.008 23.6967Z"/> </symbol>
<symbol id="in" viewBox="0 0 28 28"> <path d="M23.5667 3.2085H20.7667C19.9302 3.2085 19.25 3.88866 19.25 4.72516V7.52516C19.25 8.36166 19.9302 9.04183 20.7667 9.04183H23.5667C24.4032 9.04183 25.0833 8.36166 25.0833 7.52516V4.72516C25.0833 3.88866 24.4032 3.2085 23.5667 3.2085ZM23.9167 7.52516C23.9167 7.71825 23.7597 7.87516 23.5667 7.87516H20.7667C20.5736 7.87516 20.4167 7.71825 20.4167 7.52516V4.72516C20.4167 4.53208 20.5736 4.37516 20.7667 4.37516H23.5667C23.7597 4.37516 23.9167 4.53208 23.9167 4.72516V7.52516Z"/> <path d="M22.05 0.291748H5.95C2.66933 0.291748 0 2.96866 0 6.25983V10.2084V11.3751V21.7409C0 25.0315 2.66933 27.7084 5.95 27.7084H22.05C25.3307 27.7084 28 25.0315 28 21.7409V11.3751V10.2084V6.25983C28 2.96866 25.3307 0.291748 22.05 0.291748ZM26.8333 21.7409C26.8333 24.3881 24.6872 26.5417 22.05 26.5417H5.95C3.31217 26.5417 1.16667 24.3881 1.16667 21.7409V11.3751H8.29558C6.77833 12.8585 5.83333 14.9241 5.83333 17.2084C5.83333 21.7117 9.49667 25.3751 14 25.3751C18.5033 25.3751 22.1667 21.7117 22.1667 17.2084C22.1667 14.9241 21.2217 12.8585 19.7044 11.3751H26.8333V21.7409ZM21 17.2084C21 21.0683 17.8599 24.2084 14 24.2084C10.1401 24.2084 7 21.0683 7 17.2084C7 13.3485 10.1401 10.2084 14 10.2084C17.8599 10.2084 21 13.3485 21 17.2084ZM18.1848 10.2084C16.9592 9.47283 15.5307 9.04175 14 9.04175C12.4693 9.04175 11.0407 9.47283 9.81517 10.2084H1.16667V6.25983C1.16667 3.61208 3.31275 1.45841 5.95 1.45841H22.05C24.6872 1.45841 26.8333 3.61208 26.8333 6.25983V10.2084H18.1848Z"/> <path d="M8.75 17.2085C8.75 20.103 11.1049 22.4585 14 22.4585C16.8951 22.4585 19.25 20.103 19.25 17.2085C19.25 14.314 16.8951 11.9585 14 11.9585C11.1049 11.9585 8.75 14.314 8.75 17.2085ZM18.0833 17.2085C18.0833 19.4602 16.2511 21.2918 14 21.2918C11.7489 21.2918 9.91667 19.4602 9.91667 17.2085C9.91667 14.9568 11.7489 13.1252 14 13.1252C16.2511 13.1252 18.0833 14.9568 18.0833 17.2085Z"/> </symbol>
<symbol id="link-1" viewBox="0 0 88 88"> <path d="M82.5 33H5.5C2.46767 33 0 30.5323 0 27.5V5.5C0 2.46767 2.46767 0 5.5 0H82.5C85.5323 0 88 2.46767 88 5.5V27.5C88 30.5323 85.5323 33 82.5 33ZM5.5 3.66667C4.49167 3.66667 3.66667 4.488 3.66667 5.5V27.5C3.66667 28.512 4.49167 29.3333 5.5 29.3333H82.5C83.5083 29.3333 84.3333 28.512 84.3333 27.5V5.5C84.3333 4.488 83.5083 3.66667 82.5 3.66667H5.5Z" fill="white"/> <path d="M34.8333 66.0002H5.5C2.46767 66.0002 0 63.5325 0 60.5002V45.8335C0 42.8012 2.46767 40.3335 5.5 40.3335H34.8333C37.8657 40.3335 40.3333 42.8012 40.3333 45.8335V60.5002C40.3333 63.5325 37.8657 66.0002 34.8333 66.0002ZM5.5 44.0002C4.49167 44.0002 3.66667 44.8215 3.66667 45.8335V60.5002C3.66667 61.5122 4.49167 62.3335 5.5 62.3335H34.8333C35.8417 62.3335 36.6667 61.5122 36.6667 60.5002V45.8335C36.6667 44.8215 35.8417 44.0002 34.8333 44.0002H5.5Z" fill="white"/> <path d="M86.166 44.0002H49.4993C48.4873 44.0002 47.666 43.1788 47.666 42.1668C47.666 41.1548 48.4873 40.3335 49.4993 40.3335H86.166C87.178 40.3335 87.9993 41.1548 87.9993 42.1668C87.9993 43.1788 87.178 44.0002 86.166 44.0002Z" fill="white"/> <path d="M86.166 55.0002H49.4993C48.4873 55.0002 47.666 54.1788 47.666 53.1668C47.666 52.1548 48.4873 51.3335 49.4993 51.3335H86.166C87.178 51.3335 87.9993 52.1548 87.9993 53.1668C87.9993 54.1788 87.178 55.0002 86.166 55.0002Z" fill="white"/> <path d="M86.166 66.0002H49.4993C48.4873 66.0002 47.666 65.1788 47.666 64.1668C47.666 63.1548 48.4873 62.3335 49.4993 62.3335H86.166C87.178 62.3335 87.9993 63.1548 87.9993 64.1668C87.9993 65.1788 87.178 66.0002 86.166 66.0002Z" fill="white"/> <path d="M86.1667 77.0002H1.83333C0.821333 77.0002 0 76.1788 0 75.1668C0 74.1548 0.821333 73.3335 1.83333 73.3335H86.1667C87.1787 73.3335 88 74.1548 88 75.1668C88 76.1788 87.1787 77.0002 86.1667 77.0002Z" fill="white"/> <path d="M86.1667 88.0002H1.83333C0.821333 88.0002 0 87.1788 0 86.1668C0 85.1548 0.821333 84.3335 1.83333 84.3335H86.1667C87.1787 84.3335 88 85.1548 88 86.1668C88 87.1788 87.1787 88.0002 86.1667 88.0002Z" fill="white"/> </symbol>
<symbol id="link-2" viewBox="0 0 120 88"> <path d="M114.609 0.187012H5.39062C3.9614 0.188501 2.59114 0.756918 1.58052 1.76753C0.569906 2.77815 0.00148904 4.14841 0 5.57764L0 69.322C0.00173666 70.7512 0.570234 72.1213 1.5808 73.1319C2.59136 74.1424 3.96148 74.7109 5.39062 74.7126H14.6559L11.7797 78.8751C10.9503 80.119 10.6429 81.6389 10.9237 83.1073C11.2045 84.5757 12.051 85.875 13.2808 86.725C14.5107 87.5751 16.0253 87.9078 17.4981 87.6516C18.971 87.3953 20.2842 86.5706 21.1547 85.3551L28.5113 74.7126H91.4887L98.8425 85.3542C99.713 86.5697 101.026 87.3944 102.499 87.6507C103.972 87.9069 105.487 87.5741 106.716 86.7241C107.946 85.874 108.793 84.5748 109.074 83.1064C109.354 81.638 109.047 80.118 108.217 78.8742L105.341 74.7126H114.607C116.036 74.7117 117.407 74.1435 118.418 73.1328C119.429 72.1222 119.998 70.7517 120 69.322V5.57764C119.999 4.14841 119.43 2.77815 118.419 1.76753C117.409 0.756918 116.039 0.188501 114.609 0.187012ZM18.4584 83.4895C18.2357 83.8111 17.9384 84.0739 17.592 84.2555C17.2455 84.437 16.8602 84.5319 16.4691 84.532C16.0279 84.532 15.5952 84.4114 15.2177 84.1831C14.8402 83.9549 14.5323 83.6277 14.3273 83.2371C14.1223 82.8465 14.0281 82.4072 14.0548 81.9669C14.0815 81.5266 14.2281 81.1019 14.4788 80.7389L18.6441 74.7126H24.5231L18.4584 83.4895ZM105.521 80.7389C105.772 81.1019 105.919 81.5266 105.945 81.9669C105.972 82.4072 105.878 82.8465 105.673 83.2371C105.468 83.6277 105.16 83.9549 104.782 84.1831C104.405 84.4114 103.972 84.532 103.531 84.532C103.14 84.5318 102.754 84.4369 102.408 84.2554C102.061 84.0738 101.764 83.8111 101.541 83.4895L95.4769 74.7126H101.356L105.521 80.7389ZM116.719 69.322C116.718 69.8812 116.496 70.4173 116.1 70.8128C115.705 71.2082 115.169 71.4307 114.609 71.4314H5.39062C4.83141 71.4307 4.29532 71.2082 3.89989 70.8128C3.50447 70.4173 3.28199 69.8812 3.28125 69.322V5.57764C3.28199 5.01842 3.50447 4.48233 3.89989 4.0869C4.29532 3.69148 4.83141 3.46901 5.39062 3.46826H114.609C115.169 3.46901 115.705 3.69148 116.1 4.0869C116.496 4.48233 116.718 5.01842 116.719 5.57764V69.322Z" fill="white"/> <path d="M110.859 7.68701H9.14063C8.92514 7.68689 8.71175 7.72924 8.51264 7.81165C8.31353 7.89405 8.13262 8.01489 7.98025 8.16727C7.82788 8.31964 7.70704 8.50054 7.62463 8.69965C7.54223 8.89875 7.49988 9.11215 7.5 9.32764V65.572C7.5 66.0071 7.67285 66.4244 7.98053 66.7321C8.2882 67.0398 8.7055 67.2126 9.14063 67.2126H110.859C111.294 67.2126 111.712 67.0398 112.019 66.7321C112.327 66.4244 112.5 66.0071 112.5 65.572V9.32764C112.5 9.11215 112.458 8.89875 112.375 8.69965C112.293 8.50054 112.172 8.31964 112.02 8.16727C111.867 8.01489 111.686 7.89405 111.487 7.81165C111.288 7.72924 111.075 7.68689 110.859 7.68701ZM109.219 63.9314H10.7813V10.9683H109.219V63.9314Z" fill="white"/> <path d="M38.7891 28.9268H45.6328V47.613C45.6328 48.0481 45.8057 48.4654 46.1133 48.7731C46.421 49.0808 46.8383 49.2536 47.2734 49.2536C47.7086 49.2536 48.1259 49.0808 48.4335 48.7731C48.7412 48.4654 48.9141 48.0481 48.9141 47.613V28.9268H55.7578C56.1929 28.9268 56.6102 28.7539 56.9179 28.4462C57.2256 28.1386 57.3984 27.7213 57.3984 27.2861C57.3984 26.851 57.2256 26.4337 56.9179 26.126C56.6102 25.8184 56.1929 25.6455 55.7578 25.6455H38.7891C38.3539 25.6455 37.9366 25.8184 37.629 26.126C37.3213 26.4337 37.1484 26.851 37.1484 27.2861C37.1484 27.7213 37.3213 28.1386 37.629 28.4462C37.9366 28.7539 38.3539 28.9268 38.7891 28.9268Z" fill="white"/> <path d="M71.2156 48.244C71.3399 48.5431 71.5501 48.7987 71.8195 48.9785C72.089 49.1583 72.4057 49.2542 72.7296 49.2542C73.0536 49.2542 73.3702 49.1583 73.6397 48.9785C73.9092 48.7987 74.1193 48.5431 74.2437 48.244L82.7252 27.9181C82.8134 27.7183 82.8609 27.503 82.8648 27.2847C82.8687 27.0664 82.829 26.8495 82.748 26.6467C82.667 26.4439 82.5463 26.2594 82.393 26.1039C82.2398 25.9483 82.057 25.825 81.8555 25.741C81.6539 25.657 81.4377 25.6141 81.2193 25.6148C81.001 25.6154 80.785 25.6597 80.5839 25.7449C80.3829 25.8302 80.2009 25.9547 80.0487 26.1111C79.8964 26.2676 79.7769 26.4529 79.6971 26.6562L72.7296 43.3521L65.7621 26.6562C65.5945 26.2546 65.2743 25.9361 64.8719 25.7706C64.4694 25.6052 64.0177 25.6064 63.6162 25.774C63.2146 25.9416 62.8961 26.2618 62.7306 26.6643C62.5652 27.0667 62.5664 27.5184 62.734 27.9199L71.2156 48.244Z" fill="white"/> </symbol>
<symbol id="loupe" viewBox="0 0 22 22"> <path d="M9.71557 18.3686C14.5291 18.3686 18.4311 14.4666 18.4311 9.65307C18.4311 4.8396 14.5291 0.9375 9.71557 0.9375C4.9021 0.9375 1 4.8396 1 9.65307C1 14.4666 4.9021 18.3686 9.71557 18.3686Z" fill="none" stroke-linecap="round" stroke-linejoin="round"/> <path d="M16.2524 16.1899L21.3365 21.274" fill="none" stroke-linecap="round" stroke-linejoin="round"/> </symbol>
<symbol id="magent" viewBox="0 0 22 23"> <path d="M11.1527 0C9.13309 0.000139369 7.15359 0.569213 5.43715 1.64314C3.7207 2.71706 2.33548 4.25319 1.43747 6.07854C0.539452 7.90388 0.16431 9.94596 0.354286 11.9748C0.544262 14.0036 1.29181 15.9387 2.51275 17.562C2.58379 17.7457 2.63093 17.9379 2.65299 18.1338C2.77113 19.7544 0 21.9234 0 21.9234C0 21.9234 2.15831 22.0679 3.16207 21.9632C4.3051 21.8449 5.48367 21.2179 6.26362 20.7187C7.72611 21.4634 9.33674 21.8642 10.9747 21.891C12.6126 21.9178 14.2353 21.57 15.7209 20.8737C17.2066 20.1773 18.5167 19.1505 19.5529 17.8703C20.5891 16.5901 21.3245 15.0897 21.704 13.4817C22.0834 11.8737 22.097 10.1999 21.7438 8.58586C21.3906 6.97181 20.6797 5.45944 19.6644 4.16223C18.6492 2.86502 17.356 1.81665 15.8818 1.09579C14.4077 0.374929 12.7909 0.000295596 11.1527 0Z" fill="#65473C"/> <path fill-rule="evenodd" clip-rule="evenodd" d="M10.8792 6.51318C12.076 6.51318 13.2027 7.04818 14.0268 7.88266C14.0268 7.48238 14.2948 7.17999 14.6675 7.17999H14.7636C15.3447 7.17999 15.4638 7.73438 15.4628 7.9098V14.1486C15.4225 14.5576 15.8807 14.7679 16.1352 14.5062C17.1284 13.4769 18.3156 9.21338 15.5176 6.74385C12.9107 4.44392 9.41245 4.82288 7.55094 6.11774C5.57417 7.49304 4.30723 10.5393 5.53383 13.4013C6.87857 16.5222 10.7092 17.4526 12.9875 16.5231C14.1402 16.054 14.6752 17.629 13.4765 18.1436C11.6659 18.919 6.62499 18.8434 4.26977 14.7262C2.68394 11.9475 2.76846 7.05787 6.98807 4.52437C10.2155 2.58596 14.4725 3.1229 17.0381 5.82698C19.7199 8.65415 19.5633 13.948 16.9478 16.0036C15.7616 16.938 14.0009 16.0288 14.0124 14.6652L13.9999 14.2203C13.5908 14.635 13.1044 14.9642 12.5689 15.1889C12.0334 15.4136 11.4592 15.5294 10.8792 15.5297C8.51628 15.5297 6.43481 13.4304 6.43481 11.0442C6.43481 8.63671 8.51628 6.51318 10.8792 6.51318ZM13.8568 10.8746C13.7675 9.13003 12.4823 8.07651 10.9311 8.07651H10.8715C9.08107 8.07651 8.08596 9.49833 8.08596 11.113C8.08596 12.9196 9.28758 14.0614 10.8648 14.0614C12.6206 14.0614 13.7761 12.7636 13.8597 11.2274V10.8746H13.8568Z" fill="white"/> </symbol>
<symbol id="personal" viewBox="0 0 37 43"> <path d="M18.6553 23.1696C18.6108 23.1696 18.5662 23.1696 18.5128 23.1696C18.495 23.1696 18.4772 23.1696 18.4594 23.1696C18.4327 23.1696 18.397 23.1696 18.3703 23.1696C15.7613 23.1251 13.6509 22.2079 12.0926 20.4537C8.66439 16.5891 9.23429 9.96418 9.29662 9.33195C9.51923 4.58584 11.7632 2.31518 13.6153 1.25554C14.9955 0.463036 16.6072 0.0356181 18.406 0H18.4683C18.4772 0 18.495 0 18.5039 0H18.5573C19.5457 0 21.4869 0.160282 23.348 1.21992C25.2179 2.27956 27.4975 4.55022 27.7201 9.33195C27.7824 9.96418 28.3523 16.5891 24.9241 20.4537C23.3747 22.2079 21.2643 23.1251 18.6553 23.1696ZM25.3426 9.55457C25.3426 9.52785 25.3337 9.50114 25.3337 9.48333C25.0398 3.09878 20.5074 2.41313 18.5662 2.41313H18.5306C18.5128 2.41313 18.4861 2.41313 18.4594 2.41313C16.0552 2.46656 11.968 3.44605 11.6919 9.48333C11.6919 9.51004 11.6919 9.53676 11.683 9.55457C11.6741 9.6169 11.0508 15.672 13.8825 18.8598C15.0044 20.1243 16.5004 20.7476 18.4683 20.7654C18.4861 20.7654 18.495 20.7654 18.5128 20.7654C18.5306 20.7654 18.5395 20.7654 18.5573 20.7654C20.5163 20.7476 22.0212 20.1243 23.1343 18.8598C25.957 15.6898 25.3515 9.60799 25.3426 9.55457Z"/> <path d="M0.21376 34.1578C0.21376 34.1489 0.21376 34.14 0.21376 34.1311C0.21376 34.0598 0.222664 33.9886 0.222664 33.9085C0.276089 32.1454 0.39185 28.0226 4.25642 26.7047C4.28313 26.6958 4.31875 26.6869 4.34546 26.678C8.36141 25.654 11.7006 23.3388 11.7362 23.3121C12.2794 22.9292 13.0274 23.0627 13.4103 23.6059C13.7932 24.1491 13.6596 24.8971 13.1164 25.28C12.9651 25.3868 9.42105 27.8534 4.98659 28.9932C2.91183 29.7322 2.68032 31.9495 2.61798 33.9797C2.61798 34.0598 2.61798 34.1311 2.60908 34.2023C2.60017 35.0037 2.6536 36.2414 2.79607 36.9538C4.23861 37.773 9.89299 40.6047 18.4948 40.6047C27.0609 40.6047 32.7509 37.7641 34.2024 36.9449C34.3448 36.2325 34.4072 34.9948 34.3894 34.1934C34.3894 34.1222 34.3805 34.0509 34.3805 33.9708C34.3181 31.9406 34.0866 29.7233 32.0119 28.9843C27.5774 27.8445 24.0334 25.369 23.882 25.2711C23.3388 24.8882 23.2053 24.1402 23.5882 23.597C23.9711 23.0538 24.719 22.9203 25.2622 23.3032C25.2978 23.3299 28.6192 25.645 32.653 26.6691C32.6886 26.678 32.7153 26.6869 32.742 26.6958C36.6066 28.0226 36.7224 32.1454 36.7758 33.8996C36.7758 33.9797 36.7758 34.0509 36.7847 34.1222C36.7847 34.1311 36.7847 34.14 36.7847 34.1489C36.7936 34.6119 36.8025 36.9894 36.3306 38.1826C36.2415 38.4142 36.0812 38.6101 35.8675 38.7436C35.6004 38.9217 29.198 43 18.4859 43C7.77371 43 1.37135 38.9128 1.10421 38.7436C0.89941 38.6101 0.730221 38.4142 0.641178 38.1826C0.19595 36.9983 0.204857 34.6208 0.21376 34.1578Z"/> </symbol>
<symbol id="phone" viewBox="0 0 21 21"> <path d="M16.596 13.0084C16.1661 12.5608 15.6475 12.3214 15.0979 12.3214C14.5528 12.3214 14.0298 12.5563 13.5821 13.004L12.1815 14.4001C12.0663 14.3381 11.9511 14.2805 11.8403 14.2228C11.6807 14.1431 11.53 14.0677 11.4015 13.9879C10.0895 13.1547 8.89727 12.0688 7.75377 10.6638C7.19974 9.96351 6.82744 9.37403 6.55708 8.77568C6.92052 8.44327 7.25736 8.09755 7.58534 7.76514C7.70945 7.64104 7.83355 7.5125 7.95765 7.3884C8.88841 6.45764 8.88841 5.25209 7.95765 4.32132L6.74766 3.11134C6.61026 2.97394 6.46843 2.83211 6.33547 2.69028C6.06953 2.41548 5.79031 2.13182 5.50221 1.86589C5.07229 1.4404 4.55816 1.21436 4.01743 1.21436C3.4767 1.21436 2.9537 1.4404 2.51048 1.86589C2.50605 1.87032 2.50605 1.87032 2.50162 1.87475L0.994672 3.395C0.427351 3.96232 0.103801 4.65374 0.0328863 5.45597C-0.0734864 6.75017 0.307682 7.95572 0.600207 8.74466C1.31822 10.6815 2.39081 12.4766 3.99084 14.4001C5.93214 16.7182 8.2679 18.5487 10.9361 19.8384C11.9555 20.3215 13.3162 20.8933 14.8364 20.9908C14.9295 20.9952 15.027 20.9997 15.1156 20.9997C16.1395 20.9997 16.9993 20.6318 17.673 19.9005C17.6775 19.8916 17.6863 19.8872 17.6907 19.8783C17.9212 19.5991 18.1872 19.3465 18.4664 19.0761C18.657 18.8944 18.852 18.7038 19.0426 18.5044C19.4814 18.0478 19.7118 17.516 19.7118 16.9708C19.7118 16.4212 19.4769 15.8938 19.0293 15.4506L16.596 13.0084ZM18.1827 17.6755C18.1783 17.6755 18.1783 17.68 18.1827 17.6755C18.0099 17.8617 17.8326 18.0301 17.642 18.2163C17.3539 18.4911 17.0614 18.7791 16.7866 19.1027C16.3389 19.5814 15.8115 19.8074 15.1201 19.8074C15.0536 19.8074 14.9827 19.8074 14.9162 19.803C13.5998 19.7188 12.3765 19.2046 11.4591 18.7659C8.95046 17.5514 6.74766 15.8273 4.91716 13.6422C3.40579 11.8206 2.39525 10.1364 1.72598 8.32803C1.31379 7.22441 1.1631 6.36457 1.22958 5.55347C1.2739 5.03491 1.47335 4.60499 1.84122 4.23711L3.3526 2.72573C3.56978 2.52185 3.80025 2.41105 4.02629 2.41105C4.30552 2.41105 4.53156 2.57947 4.67339 2.7213C4.67783 2.72573 4.68226 2.73017 4.68669 2.7346C4.95705 2.98723 5.21412 3.24873 5.48448 3.52796C5.62188 3.66979 5.76371 3.81162 5.90554 3.95788L7.11553 5.16787C7.58534 5.63769 7.58534 6.07204 7.11553 6.54185C6.987 6.67039 6.8629 6.79892 6.73436 6.92302C6.36206 7.30419 6.00748 7.65877 5.62188 8.00448C5.61302 8.01334 5.60415 8.01778 5.59972 8.02664C5.21855 8.40781 5.28947 8.78011 5.36925 9.03275C5.37368 9.04604 5.37811 9.05934 5.38254 9.07264C5.69723 9.83498 6.14045 10.553 6.81414 11.4084L6.81857 11.4128C8.04186 12.9198 9.33163 14.0943 10.7544 14.9941C10.9361 15.1093 11.1222 15.2024 11.2995 15.291C11.4591 15.3708 11.6098 15.4461 11.7383 15.5259C11.756 15.5348 11.7738 15.5481 11.7915 15.5569C11.9422 15.6323 12.084 15.6677 12.2303 15.6677C12.5982 15.6677 12.8286 15.4373 12.904 15.3619L14.4198 13.8461C14.5705 13.6954 14.8098 13.5137 15.089 13.5137C15.3638 13.5137 15.5899 13.6866 15.7273 13.8372C15.7317 13.8417 15.7317 13.8417 15.7361 13.8461L18.1783 16.2883C18.6348 16.7403 18.6348 17.2057 18.1827 17.6755Z"/> <path d="M11.3485 4.99459C12.5097 5.18961 13.5646 5.7392 14.4067 6.58132C15.2488 7.42343 15.794 8.4783 15.9934 9.63953C16.0422 9.93206 16.2948 10.1359 16.5829 10.1359C16.6183 10.1359 16.6494 10.1315 16.6848 10.1271C17.0128 10.0739 17.23 9.76363 17.1768 9.43565C16.9375 8.03064 16.2726 6.74974 15.2577 5.73477C14.2427 4.7198 12.9618 4.05497 11.5568 3.81563C11.2288 3.76244 10.923 3.97962 10.8654 4.30317C10.8077 4.62672 11.0205 4.94141 11.3485 4.99459Z"/> <path d="M20.9748 9.26354C20.5803 6.94994 19.49 4.84465 17.8147 3.16928C16.1393 1.49391 14.034 0.403587 11.7204 0.00912211C11.3968 -0.0484964 11.091 0.173113 11.0334 0.496663C10.9802 0.824646 11.1974 1.13047 11.5254 1.18809C13.5908 1.53823 15.4745 2.51774 16.9725 4.01139C18.4706 5.50947 19.4457 7.39316 19.7958 9.45856C19.8446 9.75108 20.0972 9.95497 20.3853 9.95497C20.4208 9.95497 20.4518 9.95053 20.4873 9.9461C20.8108 9.89735 21.0324 9.58709 20.9748 9.26354Z"/> </symbol>
<symbol id="play" viewBox="0 0 137 137"> <path d="M68.5002 136.84C30.7122 136.84 0.160156 106.288 0.160156 68.5002C0.160156 30.7122 30.7122 0.160156 68.5002 0.160156C106.288 0.160156 136.84 30.7122 136.84 68.5002C136.84 106.288 106.288 136.84 68.5002 136.84ZM68.5002 8.20016C35.1342 8.20016 8.20016 35.1342 8.20016 68.5002C8.20016 101.866 35.1342 128.8 68.5002 128.8C101.866 128.8 128.8 101.866 128.8 68.5002C128.8 35.1342 101.866 8.20016 68.5002 8.20016Z" fill="white"/> <path d="M48.4004 103.473V33.5254L108.7 68.4994L48.4004 103.473ZM56.4404 47.1934V89.4034L92.6204 68.0974L56.4404 47.1934Z" fill="white"/> </symbol>
<symbol id="policy-1" viewBox="0 0 70 70"> <path d="M69.1819 10.3244C69.1246 10.1266 69.0152 9.94798 68.8651 9.80711C68.715 9.66624 68.5298 9.56836 68.3288 9.52374L61.2905 7.93364L59.7004 0.895362C59.6553 0.694929 59.5571 0.510298 59.4162 0.360745C59.2753 0.211192 59.0969 0.102199 58.8995 0.0451426C58.7021 -0.0119133 58.493 -0.0149399 58.2941 0.0363789C58.0951 0.0876977 57.9136 0.19148 57.7684 0.336893L49.6736 8.43305C42.8236 4.2996 34.6976 2.81634 26.8291 4.2632C18.9605 5.71006 11.8936 9.98696 6.96213 16.2868C2.03062 22.5866 -0.424469 30.4736 0.060189 38.4594C0.544847 46.4451 3.93573 53.9773 9.59291 59.6345C15.2501 65.2917 22.7823 68.6826 30.7681 69.1673C38.7539 69.6519 46.6409 67.1968 52.9407 62.2653C59.2405 57.3338 63.5174 50.267 64.9642 42.3984C66.4111 34.5298 64.9279 26.4038 60.7944 19.5539L68.8925 11.4557C69.0375 11.3102 69.1408 11.1285 69.1917 10.9296C69.2426 10.7306 69.2392 10.5216 69.1819 10.3244ZM63.2061 36.4792C63.2052 43.1839 60.9917 49.7009 56.9091 55.0192C52.8264 60.3375 47.1028 64.1599 40.6261 65.8934C34.1494 67.6269 27.2816 67.1746 21.0882 64.6067C14.8948 62.0388 9.72186 57.4988 6.37194 51.691C3.02203 45.8831 1.68235 39.1322 2.56072 32.4853C3.4391 25.8384 6.48643 19.6671 11.23 14.9288C15.9736 10.1905 22.1482 7.15009 28.7961 6.27912C35.444 5.40815 42.1934 6.75535 47.9975 10.1117L44.2799 13.8294C44.2479 13.8658 44.2183 13.9041 44.1913 13.9442C38.8233 11.2113 32.6565 10.4827 26.7994 11.8894C20.9424 13.296 15.7791 16.7457 12.2376 21.6183C8.69616 26.4909 7.00881 32.4669 7.47885 38.4721C7.94889 44.4774 10.5455 50.1181 14.8019 54.3803C19.0584 58.6425 24.6955 61.2468 30.7002 61.725C36.7048 62.2032 42.6831 60.524 47.5605 56.9892C52.4379 53.4544 55.8946 48.2958 57.3092 42.4406C58.7238 36.5855 58.0036 30.4177 55.278 25.046C55.3202 25.0162 55.3603 24.9835 55.3981 24.9482L59.1157 21.2306C61.8004 25.8636 63.2116 31.1245 63.2061 36.4792ZM52.5526 24.8544C55.3729 29.6691 56.3421 35.3465 55.2788 40.8242C54.2154 46.3018 51.1924 51.2043 46.7754 54.614C42.3585 58.0237 36.8504 59.707 31.282 59.3488C25.7136 58.9906 20.4665 56.6155 16.5228 52.668C12.5791 48.7205 10.209 43.4712 9.85622 37.9025C9.5034 32.3337 11.192 26.8272 14.6059 22.4135C18.0199 17.9999 22.9253 14.9816 28.4039 13.9235C33.8826 12.8654 39.5591 13.8401 44.3711 16.6651L45.5806 22.0227L44.4203 23.1829C40.9603 20.1446 36.4543 18.5709 31.8551 18.7946C27.2558 19.0183 22.9238 21.0218 19.775 24.3816C16.6261 27.7413 14.9073 32.194 14.9819 36.7981C15.0565 41.4022 16.9186 45.7968 20.1747 49.0528C23.4307 52.3088 27.8253 54.171 32.4294 54.2456C37.0335 54.3201 41.4861 52.6013 44.8459 49.4525C48.2057 46.3036 50.2092 41.9716 50.4329 37.3724C50.6566 32.7731 49.0829 28.2672 46.0445 24.8071L47.2048 23.6469L52.5526 24.8544ZM37.6865 36.4792C37.6906 37.577 37.3301 38.6452 36.6615 39.516C35.9929 40.3868 35.0542 41.011 33.9926 41.2907C32.9309 41.5703 31.8065 41.4896 30.7957 41.0612C29.7849 40.6328 28.9449 39.8809 28.4076 38.9236C27.8702 37.9662 27.6659 36.8576 27.8267 35.7715C27.9875 34.6855 28.5043 33.6836 29.296 32.9231C30.0877 32.1625 31.1095 31.6863 32.2011 31.5692C33.2927 31.452 34.3923 31.7006 35.3273 32.2759L31.9358 35.6674C31.8261 35.7734 31.7387 35.9001 31.6785 36.0403C31.6184 36.1804 31.5867 36.3311 31.5854 36.4836C31.5841 36.6361 31.6132 36.7873 31.671 36.9284C31.7288 37.0695 31.8141 37.1977 31.9219 37.3055C32.0298 37.4134 32.158 37.4986 32.2992 37.5563C32.4403 37.614 32.5915 37.6431 32.744 37.6417C32.8965 37.6404 33.0472 37.6086 33.1873 37.5484C33.3274 37.4882 33.4541 37.4007 33.56 37.291L36.9515 33.8995C37.4317 34.6743 37.6862 35.5677 37.6865 36.4792ZM36.9804 30.6228C35.5008 29.5511 33.6716 29.0762 31.8575 29.2928C30.0434 29.5094 28.3775 30.4016 27.1918 31.7916C26.0061 33.1817 25.3877 34.9674 25.4598 36.793C25.5319 38.6186 26.2892 40.35 27.5809 41.6421C28.8725 42.9343 30.6036 43.6923 32.4292 43.7652C34.2547 43.838 36.0407 43.2203 37.4312 42.0352C38.8217 40.8501 39.7146 39.1845 39.9319 37.3705C40.1493 35.5565 39.6751 33.7271 38.604 32.2471L44.417 26.434C47.0217 29.46 48.3519 33.3778 48.1281 37.3641C47.9044 41.3504 46.1441 45.0948 43.2172 47.8103C40.2903 50.5258 36.4247 52.001 32.4329 51.9258C28.441 51.8506 24.6337 50.231 21.8111 47.4073C18.9885 44.5835 17.3703 40.7755 17.2968 36.7836C17.2233 32.7917 18.7 28.9268 21.4167 26.001C24.1334 23.0752 27.8785 21.3164 31.8649 21.0942C35.8512 20.8721 39.7685 22.2039 42.7935 24.8098L36.9804 30.6228ZM58.5343 18.5636L54.224 22.8732L53.5776 22.7275L53.5527 22.7216L47.8007 21.4268L46.351 15.0067L57.922 3.43374L59.2128 9.14705C59.2607 9.35885 59.3676 9.55276 59.5211 9.70631C59.6747 9.85985 59.8686 9.96675 60.0804 10.0146L65.7937 11.3055L58.5343 18.5636Z" fill="#702206"/> </symbol>
<symbol id="policy-2" viewBox="0 0 79 62"> <path d="M37.9559 21.3621C38.3057 21.3439 38.6573 21.3335 39.012 21.3335C39.3666 21.3335 39.7182 21.3439 40.068 21.3621C60.7496 21.9593 77.0443 39.8037 77.7383 40.5757C77.9143 40.7715 78.0117 41.0254 78.0117 41.2887C78.0117 41.552 77.9143 41.8059 77.7383 42.0017C77.0443 42.7744 60.7496 60.6187 40.068 61.2159C39.7182 61.2342 39.3662 61.2435 39.012 61.2439C38.6577 61.2443 38.3057 61.235 37.9559 61.2159C17.2743 60.6187 0.980247 42.7744 0.285561 42.0017C0.109558 41.8059 0.0121841 41.552 0.0121841 41.2887C0.0121841 41.0254 0.109558 40.7715 0.285561 40.5757C0.980247 39.8037 17.2743 21.9593 37.9559 21.3621ZM50.7065 54.7205C50.6973 52.8551 49.9504 51.069 48.6288 49.7524C47.3073 48.4357 45.5184 47.6955 43.653 47.6932H34.371C32.5055 47.6955 30.7166 48.4357 29.3951 49.7524C28.0735 51.069 27.3266 52.8551 27.3174 54.7205C30.5558 57.5511 34.7109 59.111 39.012 59.111C43.313 59.111 47.4681 57.5511 50.7065 54.7205ZM25.4016 52.7773C25.853 50.7336 26.9876 48.9049 28.6182 47.5929C30.2489 46.2809 32.278 45.564 34.371 45.5604H43.653C45.7459 45.564 47.775 46.2809 49.4057 47.5929C51.0363 48.9049 52.1709 50.7336 52.6223 52.7773C54.8162 50.1822 56.2225 47.014 56.6754 43.6461C57.1282 40.2783 56.6088 36.8511 55.1784 33.7687C53.7479 30.6863 51.4661 28.077 48.6018 26.2485C45.7375 24.4201 42.4101 23.4486 39.012 23.4486C35.6138 23.4486 32.2864 24.4201 29.4221 26.2485C26.5578 28.077 24.276 30.6863 22.8455 33.7687C21.4151 36.8511 20.8957 40.2783 21.3485 43.6461C21.8014 47.014 23.2077 50.1822 25.4016 52.7773ZM75.4727 41.2887C72.9371 38.7031 63.5612 29.7715 51.3506 25.6235C53.7238 27.4872 55.6426 29.8658 56.962 32.5796C58.2814 35.2934 58.967 38.2715 58.967 41.289C58.967 44.3066 58.2814 47.2847 56.962 49.9985C55.6426 52.7123 53.7238 55.0908 51.3506 56.9545C63.5612 52.8022 72.9371 43.8749 75.4727 41.2887ZM26.6733 56.9545C24.3001 55.0908 22.3813 52.7123 21.0619 49.9985C19.7425 47.2847 19.0569 44.3066 19.0569 41.289C19.0569 38.2715 19.7425 35.2934 21.0619 32.5796C22.3813 29.8658 24.3001 27.4872 26.6733 25.6235C14.4627 29.7746 5.08682 38.7031 2.55122 41.2887C5.08682 43.8749 14.4627 52.8022 26.6733 56.9545Z" fill="#702206"/> <path d="M39.0133 28.116C40.5641 28.1184 42.0506 28.7355 43.1472 29.8321C44.2438 30.9286 44.8609 32.4152 44.8633 33.966V35.8508C44.8633 37.4029 44.2467 38.8915 43.1491 39.9891C42.0516 41.0866 40.563 41.7032 39.0108 41.7032C37.4587 41.7032 35.9701 41.0866 34.8726 39.9891C33.775 38.8915 33.1584 37.4029 33.1584 35.8508V33.9684C33.1602 32.4164 33.7777 30.9284 34.8754 29.8312C35.9731 28.734 37.4612 28.1171 39.0133 28.116ZM35.2961 35.855C35.2961 36.8415 35.688 37.7876 36.3856 38.4852C37.0831 39.1828 38.0292 39.5747 39.0157 39.5747C40.0022 39.5747 40.9483 39.1828 41.6459 38.4852C42.3435 37.7876 42.7353 36.8415 42.7353 35.855V33.9684C42.7353 32.9819 42.3435 32.0358 41.6459 31.3382C40.9483 30.6407 40.0022 30.2488 39.0157 30.2488C38.0292 30.2488 37.0831 30.6407 36.3856 31.3382C35.688 32.0358 35.2961 32.9819 35.2961 33.9684V35.855Z" fill="#702206"/> <path d="M72.3863 27.7302C74.4252 29.2536 76.1979 30.7228 77.6537 32.0135C77.7649 32.1045 77.8566 32.217 77.9232 32.3443C77.9899 32.4715 78.0301 32.611 78.0416 32.7542C78.053 32.8974 78.0353 33.0415 77.9897 33.1777C77.944 33.314 77.8713 33.4396 77.7759 33.547C77.6805 33.6544 77.5644 33.7415 77.4345 33.8029C77.3046 33.8644 77.1637 33.8989 77.0201 33.9045C76.8766 33.9101 76.7333 33.8867 76.5991 33.8355C76.4648 33.7844 76.3422 33.7067 76.2387 33.607C69.3967 27.5456 55.4621 17.3727 39.0126 17.3727C22.5632 17.3727 8.62858 27.5456 1.78651 33.607C1.68172 33.6999 1.55965 33.7713 1.42728 33.817C1.29491 33.8627 1.15484 33.882 1.01504 33.8736C0.875244 33.8652 0.738472 33.8293 0.612534 33.768C0.486595 33.7068 0.373955 33.6213 0.281052 33.5165C0.188141 33.4117 0.116783 33.2897 0.0710526 33.1573C0.0253143 33.0249 0.00609589 32.8848 0.0144958 32.7451C0.0229034 32.6053 0.0587692 32.4685 0.120026 32.3425C0.18129 32.2166 0.266747 32.104 0.371544 32.0111C1.82795 30.7204 3.60123 29.2494 5.63898 27.7278L0.322792 22.3799C0.221283 22.2812 0.140442 22.1633 0.0849838 22.033C0.0295181 21.9028 0.000556946 21.7628 -0.000228882 21.6212C-0.00101471 21.4796 0.0264053 21.3393 0.0804214 21.2084C0.134438 21.0776 0.213974 20.9588 0.314392 20.8589C0.414803 20.7591 0.534088 20.6803 0.665283 20.6271C0.796471 20.5739 0.936951 20.5473 1.07852 20.549C1.22009 20.5506 1.35991 20.5804 1.48984 20.6367C1.61976 20.6929 1.73718 20.7745 1.83526 20.8766L7.38605 26.4633C9.83079 24.7357 12.3798 23.1605 15.0185 21.7468L8.63101 11.6116C8.55526 11.4932 8.50369 11.3609 8.47927 11.2224C8.45485 11.0839 8.45807 10.9419 8.48873 10.8047C8.51939 10.6674 8.5769 10.5376 8.65794 10.4227C8.73898 10.3077 8.84195 10.21 8.96092 10.135C9.0799 10.06 9.21252 10.0093 9.35117 9.9858C9.48982 9.96229 9.63175 9.96643 9.76879 9.99799C9.90583 10.0295 10.0353 10.0879 10.1497 10.1697C10.2641 10.2515 10.3612 10.3551 10.4354 10.4745L16.9246 20.7693C20.045 19.2201 23.3007 17.9597 26.6508 17.004L22.3157 4.77201C22.269 4.63997 22.2487 4.50001 22.256 4.36013C22.2633 4.22024 22.2981 4.08316 22.3584 3.95672C22.4187 3.83028 22.5033 3.71695 22.6074 3.62321C22.7115 3.52946 22.833 3.45714 22.965 3.41037C23.0971 3.36359 23.237 3.34328 23.3769 3.3506C23.5168 3.35791 23.6539 3.39271 23.7803 3.453C23.9068 3.5133 24.0201 3.5979 24.1138 3.70199C24.2076 3.80608 24.2799 3.92761 24.3267 4.05965L28.7252 16.472C31.7489 15.7515 34.839 15.3453 37.9462 15.26V1.06641C37.9462 0.783577 38.0586 0.512333 38.2586 0.312343C38.4586 0.112353 38.7298 0 39.0126 0C39.2955 0 39.5667 0.112353 39.7667 0.312343C39.9667 0.512333 40.079 0.783577 40.079 1.06641V15.2648C43.1863 15.3502 46.2764 15.7564 49.3001 16.4769L53.6986 4.05965C53.7453 3.92761 53.8177 3.80608 53.9114 3.70199C54.0051 3.5979 54.1185 3.5133 54.2449 3.453C54.3714 3.39271 54.5084 3.35791 54.6483 3.3506C54.7882 3.34328 54.9282 3.36359 55.0602 3.41037C55.1923 3.45714 55.3138 3.52946 55.4179 3.62321C55.522 3.71695 55.6066 3.83028 55.6669 3.95672C55.7272 4.08316 55.762 4.22024 55.7693 4.36013C55.7766 4.50001 55.7563 4.63997 55.7095 4.77201L51.375 17.004C54.7252 17.9597 57.9809 19.2201 61.1013 20.7693L67.5893 10.4745C67.6623 10.3526 67.7589 10.2465 67.8735 10.1625C67.9881 10.0784 68.1183 10.0182 68.2565 9.98515C68.3947 9.95215 68.5381 9.9471 68.6783 9.97031C68.8185 9.99352 68.9527 10.0445 69.0729 10.1203C69.1931 10.1961 69.2969 10.2951 69.3783 10.4116C69.4597 10.5281 69.517 10.6596 69.5468 10.7986C69.5767 10.9375 69.5784 11.081 69.552 11.2206C69.5256 11.3603 69.4715 11.4932 69.393 11.6116L63.0055 21.7468C65.6447 23.1604 68.1941 24.7356 70.6392 26.4633L76.19 20.879C76.2881 20.7769 76.4055 20.6953 76.5354 20.6391C76.6653 20.5828 76.8052 20.553 76.9467 20.5514C77.0883 20.5498 77.2288 20.5763 77.36 20.6295C77.4912 20.6828 77.6104 20.7616 77.7109 20.8614C77.8113 20.9612 77.8908 21.08 77.9448 21.2109C77.9988 21.3417 78.0263 21.482 78.0255 21.6236C78.0247 21.7652 77.9957 21.9052 77.9403 22.0355C77.8848 22.1657 77.804 22.2836 77.7025 22.3823L72.3863 27.7302Z" fill="#702206"/> </symbol>
<symbol id="policy-3" viewBox="0 0 66 66"> <path d="M33.0005 23.1108C29.9638 23.1108 27.502 25.5727 27.502 28.6094C27.5055 31.6448 29.9652 34.1044 33.0005 34.108C36.0373 34.108 38.4991 31.6462 38.4991 28.6094C38.4991 25.5727 36.0373 23.1108 33.0005 23.1108ZM33.0005 31.9086C31.1784 31.9086 29.7014 30.4315 29.7014 28.6094C29.7033 26.7882 31.1793 25.3122 33.0005 25.3103C34.8226 25.3103 36.2997 26.7873 36.2997 28.6094C36.2997 30.4315 34.8226 31.9086 33.0005 31.9086Z" fill="#702206"/> <path d="M44.3692 26.3584L42.8501 25.6882C42.791 25.4761 42.7273 25.2709 42.6589 25.0722L43.504 23.6139C43.6984 23.2783 43.7017 22.8651 43.5125 22.5265C43.0683 21.7329 42.5376 20.9909 41.9301 20.3142C41.6632 20.0159 41.2552 19.8862 40.8653 19.9759L39.5974 20.2662V13.2133C39.5954 10.8092 38.2867 8.59626 36.1809 7.43634C37.8583 5.67912 37.7937 2.89464 36.0365 1.21702C34.2795 -0.460465 31.495 -0.395857 29.8175 1.36149C28.1947 3.06138 28.1947 5.73658 29.8175 7.43634C27.7118 8.59626 26.403 10.8092 26.4009 13.2133V20.2662L25.1331 19.9759C24.7432 19.8864 24.3357 20.0157 24.0688 20.3136C23.4614 20.9904 22.9305 21.7321 22.4858 22.5254C22.2968 22.8643 22.3001 23.2775 22.4945 23.6133L23.3396 25.0717C23.272 25.2683 23.2089 25.4709 23.1506 25.6796L21.5708 26.3529C21.1655 26.5257 20.9023 26.9238 20.9023 27.3645V29.8538C20.9023 30.2945 21.1655 30.6926 21.5708 30.8654L23.1506 31.5387C23.2091 31.7481 23.272 31.95 23.3396 32.146L22.4945 33.6044C22.3001 33.94 22.2968 34.3532 22.4858 34.6918C22.9302 35.4852 23.461 36.2272 24.0683 36.9041C24.335 37.2027 24.743 37.3323 25.1331 37.2424L26.73 36.8768C26.8869 36.9996 27.0481 37.1187 27.2139 37.2339L27.3685 38.928C27.4044 39.3188 27.6457 39.6608 28.0017 39.8258C28.8169 40.2073 29.6727 40.4948 30.5529 40.6827C30.9444 40.7636 31.3491 40.6264 31.6107 40.3241L32.7313 39.0241H33.2672L34.3878 40.3241C34.6491 40.6269 35.0541 40.7643 35.4456 40.6827C36.3255 40.4946 37.1812 40.2071 37.9962 39.8258C38.3521 39.6611 38.5932 39.3191 38.6288 38.9286L38.784 37.2339C38.95 37.119 39.1113 36.9999 39.2683 36.8768L40.8653 37.2424C41.2554 37.3322 41.6634 37.2025 41.9301 36.9041C42.5371 36.2274 43.0677 35.4858 43.5125 34.6929C43.7016 34.354 43.6983 33.9408 43.504 33.605L42.6589 32.1466C42.7276 31.9474 42.7914 31.7419 42.8501 31.5302L44.3692 30.8601C44.7676 30.684 45.0247 30.2894 45.0249 29.8538V27.3643C45.0247 26.929 44.7676 26.5345 44.3692 26.3584ZM32.9992 2.21611C34.214 2.21611 35.1987 3.20077 35.1987 4.41555C35.1987 5.63032 34.214 6.61498 32.9992 6.61498C31.7845 6.61498 30.7998 5.63032 30.7998 4.41555C30.801 3.20132 31.785 2.21735 32.9992 2.21611ZM28.6004 13.2133C28.6004 10.7839 30.5698 8.81442 32.9992 8.81442C35.4287 8.81442 37.3981 10.7839 37.3981 13.2133V17.1534C36.7667 16.8906 36.1134 16.6839 35.4457 16.5355C35.0542 16.4544 34.6494 16.5918 34.3879 16.8942L33.2673 18.1942H32.7315L31.6118 16.8942C31.3501 16.5916 30.9451 16.4543 30.5535 16.5355C29.8855 16.6839 29.232 16.8906 28.6005 17.1534V13.2133H28.6004ZM42.8252 29.1372L41.4709 29.7349C41.153 29.8755 40.9201 30.158 40.8427 30.4969C40.7425 30.9508 40.6039 31.3953 40.4287 31.8259C40.2979 32.1423 40.322 32.5015 40.4937 32.7978L41.276 34.1471C41.0988 34.422 40.9075 34.6894 40.7019 34.9494L39.2296 34.6122C38.8844 34.532 38.5218 34.624 38.2566 34.8592C37.9142 35.1602 37.5469 35.4317 37.1585 35.6705C36.8649 35.8524 36.6738 36.1615 36.6425 36.5055L36.4985 38.0761C36.2027 38.1927 35.9076 38.2929 35.6131 38.3769L34.6041 37.2068C34.3952 36.9645 34.0913 36.8251 33.7712 36.8251H32.227C31.9071 36.8252 31.603 36.9646 31.3941 37.2068L30.3851 38.3775C30.0908 38.2932 29.7949 38.1927 29.4997 38.0763L29.3563 36.5061C29.3247 36.1619 29.1332 35.8525 28.8391 35.6706C28.4511 35.4316 28.0839 35.1602 27.7416 34.8593C27.4763 34.6244 27.1138 34.5323 26.7687 34.6123L25.2963 34.9495C25.0906 34.6896 24.8993 34.4222 24.7222 34.1473L25.5045 32.7979C25.6762 32.5017 25.7001 32.1425 25.5695 31.826C25.3941 31.3956 25.2556 30.9509 25.1555 30.497C25.0771 30.1532 24.8388 29.8678 24.5144 29.7297L23.1016 29.1277V28.0914L24.5144 27.4894C24.8388 27.3513 25.0771 27.0659 25.1555 26.7221C25.2557 26.2682 25.3943 25.8236 25.5695 25.3931C25.7001 25.0766 25.6762 24.7174 25.5045 24.4212L24.7222 23.0719C24.8994 22.7969 25.0906 22.5296 25.2957 22.2696L26.7687 22.6068C27.1138 22.6854 27.4758 22.5936 27.7416 22.3598C28.0841 22.0587 28.4514 21.7874 28.8397 21.5485C29.1333 21.3666 29.3244 21.0574 29.3557 20.7135L29.4997 19.1428C29.7949 19.0263 30.0904 18.9259 30.3856 18.8417L31.3935 20.0123C31.6026 20.2547 31.9068 20.394 32.2268 20.394H33.7711C34.091 20.3939 34.3951 20.2545 34.604 20.0123L35.613 18.8417C35.9073 18.9259 36.2031 19.0264 36.4984 19.1428L36.6418 20.713C36.6734 21.0572 36.8649 21.3666 37.1589 21.5485C37.547 21.7875 37.9142 22.0589 38.2564 22.3598C38.5222 22.5938 38.8842 22.6857 39.2294 22.6068L40.7021 22.2693C40.9077 22.5293 41.0991 22.7967 41.2761 23.0716L40.4938 24.4209C40.3221 24.7172 40.2982 25.0764 40.4288 25.3928C40.6041 25.8234 40.7425 26.2679 40.8428 26.7218C40.9202 27.0607 41.1532 27.3432 41.4711 27.4838L42.8254 28.0815V29.1372H42.8252Z" fill="#702206"/> <path d="M53.8951 48.4043C50.8583 48.4043 48.3965 50.8662 48.3965 53.9029C48.3965 56.9396 50.8583 59.4015 53.8951 59.4015C56.9318 59.4015 59.3937 56.9396 59.3937 53.9029C59.3901 50.8675 56.9304 48.4079 53.8951 48.4043ZM53.8951 57.202C52.073 57.202 50.5959 55.725 50.5959 53.9029C50.5959 52.0808 52.073 50.6037 53.8951 50.6037C55.7172 50.6037 57.1942 52.0808 57.1942 53.9029C57.1923 55.7242 55.7163 57.2001 53.8951 57.202Z" fill="#702206"/> <path d="M65.264 51.6518L63.7449 50.9816C63.6858 50.7695 63.6222 50.5643 63.5537 50.3658L64.3988 48.9074C64.5932 48.5719 64.5965 48.1586 64.4074 47.8201C63.9631 47.0265 63.4325 46.2844 62.8249 45.6077C62.5578 45.3098 62.15 45.1802 61.7601 45.2694L60.4922 45.5597V38.5068C60.4902 36.1027 59.1815 33.8898 57.0757 32.7299C58.7532 30.9726 58.6885 28.1882 56.9313 26.5105C55.1741 24.8329 52.3896 24.8977 50.712 26.6549C49.0892 28.3548 49.0892 31.03 50.712 32.7297C48.6063 33.8897 47.2975 36.1026 47.2955 38.5067V45.5596L46.0276 45.2693C45.6379 45.1805 45.2306 45.3097 44.9634 45.607C44.3559 46.2838 43.825 47.0255 43.3803 47.8188C43.1913 48.1577 43.1946 48.5709 43.389 48.9067L44.2341 50.3651C44.1665 50.5617 44.1034 50.7643 44.0451 50.973L42.4654 51.6463C42.06 51.819 41.7969 52.2171 41.7969 52.6579V55.1472C41.7969 55.5879 42.06 55.986 42.4654 56.1588L44.0451 56.8321C44.1037 57.0415 44.1665 57.2434 44.2341 57.4394L43.389 58.8978C43.1946 59.2333 43.1913 59.6466 43.3803 59.9851C43.8248 60.7786 44.3555 61.5206 44.9628 62.1975C45.2292 62.4963 45.6375 62.6261 46.0276 62.5358L47.6246 62.1701C47.7814 62.293 47.9427 62.4121 48.1084 62.5273L48.2631 64.2214C48.299 64.6122 48.5402 64.9542 48.8962 65.1192C49.7114 65.5006 50.5673 65.7882 51.4475 65.9761C51.8391 66.0579 52.2442 65.9205 52.5052 65.6175L53.6259 64.3175H54.1617L55.2823 65.6175C55.5436 65.9203 55.9486 66.0576 56.3401 65.9761C57.22 65.7879 58.0757 65.5005 58.8908 65.1192C59.2467 64.9545 59.4878 64.6125 59.5234 64.2219L59.6786 62.5273C59.8445 62.4124 60.006 62.2933 60.1629 62.1701L61.7598 62.5358C62.1499 62.6264 62.5583 62.4966 62.8246 62.1975C63.4316 61.5208 63.9622 60.7791 64.4071 59.9862C64.5961 59.6474 64.5928 59.2342 64.3986 58.8983L63.5534 57.44C63.6222 57.2408 63.6859 57.0353 63.7446 56.8236L65.2638 56.1534C65.6621 55.9774 65.9192 55.5828 65.9195 55.1472V52.6577C65.9195 52.2224 65.6624 51.8278 65.264 51.6518ZM53.8941 27.5095C55.1088 27.5095 56.0935 28.4942 56.0935 29.7089C56.0935 30.9237 55.1088 31.9084 53.8941 31.9084C52.6793 31.9084 51.6946 30.9237 51.6946 29.7089C51.6959 28.4947 52.6798 27.5107 53.8941 27.5095ZM49.4952 38.5067C49.4952 36.0773 51.4646 34.1078 53.8941 34.1078C56.3235 34.1078 58.2929 36.0773 58.2929 38.5067V42.4468C57.6615 42.184 57.0082 41.9773 56.3405 41.8289C55.949 41.7484 55.5445 41.8854 55.2827 42.1876L54.1621 43.4876H53.6263L52.5066 42.1876C52.2446 41.8854 51.8399 41.7482 51.4483 41.8289C50.7803 41.9773 50.1268 42.184 49.4953 42.4468V38.5067H49.4952ZM63.7202 54.4306L62.3659 55.0283C62.0479 55.1689 61.815 55.4514 61.7377 55.7903C61.6374 56.2442 61.4989 56.6887 61.3236 57.1193C61.1929 57.4357 61.2169 57.7949 61.3886 58.0912L62.1709 59.4405C61.9938 59.7154 61.8024 59.9828 61.5969 60.2428L60.1245 59.9055C59.7793 59.8251 59.4166 59.9172 59.1515 60.1526C58.8091 60.4536 58.4418 60.7251 58.0535 60.9639C57.7598 61.1458 57.5688 61.4549 57.5374 61.7989L57.3935 63.3695C57.0977 63.4861 56.8025 63.5863 56.5081 63.6703L55.4991 62.5002C55.2901 62.2578 54.9862 62.1185 54.6662 62.1185H53.1219C52.802 62.1186 52.498 62.258 52.289 62.5002L51.28 63.6708C50.9857 63.5866 50.6899 63.4861 50.3946 63.3697L50.2512 61.7995C50.2196 61.4553 50.0281 61.1459 49.7341 60.964C49.346 60.725 48.9789 60.4536 48.6366 60.1527C48.3715 59.9175 48.0088 59.8254 47.6636 59.9057L46.1912 60.2429C45.9856 59.9829 45.7942 59.7156 45.6172 59.4406L46.3995 58.0913C46.5712 57.7951 46.5951 57.4359 46.4645 57.1194C46.2891 56.689 46.1505 56.2443 46.0505 55.7904C45.9721 55.4466 45.7337 55.1612 45.4093 55.0231L43.9964 54.4211V53.3848L45.4092 52.7828C45.7336 52.6447 45.972 52.3593 46.0503 52.0155C46.1505 51.5616 46.2891 51.117 46.4644 50.6865C46.5951 50.37 46.571 50.0108 46.3993 49.7146L45.617 48.3652C45.7942 48.0903 45.9854 47.8229 46.1905 47.563L47.6635 47.9002C48.0086 47.9795 48.3709 47.8876 48.6364 47.6532C48.9789 47.3521 49.3462 47.0808 49.7345 46.8419C50.0281 46.66 50.2192 46.3508 50.2505 46.0069L50.3945 44.4362C50.6897 44.3197 50.9852 44.2193 51.2804 44.135L52.2883 45.3057C52.4974 45.548 52.8016 45.6874 53.1216 45.6874H54.6659C54.9858 45.6873 55.2899 45.5479 55.4988 45.3057L56.5078 44.135C56.8021 44.2193 57.0979 44.3198 57.3932 44.4362L57.5366 46.0063C57.5682 46.3506 57.7597 46.66 58.0537 46.8419C58.4418 47.0809 58.809 47.3523 59.1513 47.6532C59.4168 47.8876 59.7791 47.9795 60.1242 47.9002L61.5969 47.5627C61.8025 47.8227 61.9939 48.09 62.1709 48.365L61.3886 49.7143C61.2169 50.0106 61.193 50.3698 61.3236 50.6862C61.4989 51.1167 61.6373 51.5613 61.7377 52.0152C61.815 52.3541 62.0481 52.6366 62.3659 52.7772L63.7202 53.3749V54.4306Z" fill="#702206"/> <path d="M12.106 48.4043C9.06928 48.4043 6.60742 50.8662 6.60742 53.9029C6.611 56.9383 9.07065 59.3979 12.106 59.4015C15.1427 59.4015 17.6046 56.9396 17.6046 53.9029C17.6046 50.8662 15.1427 48.4043 12.106 48.4043ZM12.106 57.202C10.2839 57.202 8.80686 55.725 8.80686 53.9029C8.80878 52.0816 10.2847 50.6057 12.106 50.6037C13.9281 50.6037 15.4052 52.0808 15.4052 53.9029C15.4052 55.725 13.9281 57.202 12.106 57.202Z" fill="#702206"/> <path d="M23.4755 51.6518L21.9564 50.9816C21.8973 50.7695 21.8336 50.5643 21.7651 50.3658L22.6103 48.9074C22.8047 48.5719 22.808 48.1586 22.6189 47.8201C22.1745 47.0266 21.6438 46.2846 21.0364 45.6077C20.7692 45.31 20.3616 45.1805 19.9716 45.2694L18.7038 45.5597V38.5068C18.7017 36.1027 17.3931 33.8898 15.2873 32.7299C16.9647 30.9726 16.9001 28.1882 15.1429 26.5105C13.3857 24.8329 10.6012 24.8977 8.9236 26.6549C7.30083 28.3548 7.30083 31.03 8.9236 32.7297C6.81791 33.8897 5.50911 36.1026 5.50705 38.5067V45.5596L4.23921 45.2693C3.8495 45.1806 3.44219 45.3098 3.17496 45.607C2.5675 46.2838 2.03661 47.0255 1.59192 47.8188C1.4029 48.1577 1.4062 48.5709 1.60044 48.9067L2.44557 50.3651C2.37684 50.5643 2.31306 50.7698 2.25436 50.9815L0.735785 51.6518C0.337412 51.8278 0.0802156 52.2224 0.0800781 52.658V55.1473C0.0802156 55.583 0.337275 55.9776 0.735785 56.1537L2.25491 56.8239C2.31402 57.036 2.37766 57.2412 2.44612 57.4397L1.60099 58.8981C1.40661 59.2336 1.40331 59.6468 1.59233 59.9854C2.03675 60.7789 2.5675 61.5209 3.17482 62.1978C3.44123 62.4966 3.8495 62.6264 4.23963 62.5361L5.83655 62.1704C5.9934 62.2933 6.15465 62.4124 6.32043 62.5276L6.47508 64.2217C6.51096 64.6125 6.75207 64.9545 7.1081 65.1195C7.92327 65.5009 8.77912 65.7885 9.65931 65.9764C10.0509 66.0583 10.4562 65.9209 10.7171 65.6178L11.8377 64.3178H12.3736L13.4942 65.6178C13.7555 65.9206 14.1605 66.0579 14.552 65.9764C15.4319 65.7882 16.2876 65.5008 17.1026 65.1195C17.4585 64.9548 17.6996 64.6128 17.7352 64.2222L17.8904 62.5276C18.0563 62.4126 18.2179 62.2936 18.3747 62.1704L19.9716 62.5361C20.3618 62.6265 20.77 62.4968 21.0364 62.1978C21.6435 61.521 22.1742 60.7794 22.6189 59.9865C22.808 59.6477 22.8047 59.2344 22.6103 58.8986L21.7651 57.4403C21.8339 57.2411 21.8977 57.0356 21.9564 56.8239L23.4755 56.1537C23.8739 55.9776 24.1309 55.5831 24.1312 55.1475V52.658C24.1311 52.2224 23.874 51.8278 23.4755 51.6518ZM12.1056 27.5095C13.3204 27.5095 14.3051 28.4942 14.3051 29.7089C14.3051 30.9237 13.3204 31.9084 12.1056 31.9084C10.8909 31.9084 9.9062 30.9237 9.9062 29.7089C9.90744 28.4947 10.8914 27.5107 12.1056 27.5095ZM7.70676 38.5067C7.70676 36.0773 9.67622 34.1078 12.1056 34.1078C14.5351 34.1078 16.5045 36.0773 16.5045 38.5067V42.4468C15.8731 42.184 15.2198 41.9773 14.5521 41.8289C14.1606 41.748 13.7558 41.8852 13.4943 42.1876L12.3737 43.4876H11.8379L10.7182 42.1876C10.4563 41.8853 10.0515 41.7482 9.65986 41.8289C8.99192 41.9773 8.33841 42.184 7.7069 42.4468V38.5067H7.70676ZM21.9316 54.4306L20.5773 55.0283C20.2594 55.1689 20.0265 55.4514 19.9491 55.7903C19.8492 56.2442 19.7106 56.6889 19.5351 57.1193C19.4043 57.4357 19.4284 57.7949 19.6001 58.0912L20.3824 59.4405C20.2052 59.7154 20.0138 59.9828 19.8083 60.2428L18.336 59.9056C17.9908 59.825 17.6279 59.9171 17.363 60.1526C17.0206 60.4536 16.6532 60.7251 16.2649 60.9639C15.9713 61.1458 15.7802 61.4549 15.7489 61.7989L15.6049 63.3695C15.3091 63.4861 15.014 63.5863 14.7195 63.6703L13.7105 62.5002C13.5016 62.2578 13.1977 62.1185 12.8776 62.1185H11.3334C11.0135 62.1186 10.7094 62.258 10.5005 62.5002L9.49147 63.6708C9.19716 63.5866 8.90133 63.4861 8.60606 63.3697L8.46268 61.7995C8.43106 61.4553 8.23958 61.1459 7.94554 60.964C7.55748 60.725 7.19031 60.4536 6.84802 60.1527C6.58285 59.9176 6.22022 59.8255 5.87504 59.9057L4.40266 60.2429C4.19701 59.9829 4.00566 59.7156 3.82861 59.4406L4.61092 58.0913C4.78261 57.7951 4.80653 57.4359 4.67594 57.1194C4.50053 56.689 4.36197 56.2443 4.26189 55.7904C4.1845 55.4516 3.9515 55.1691 3.63368 55.0284L2.27951 54.4307V53.375L3.63382 52.7773C3.95177 52.6367 4.18464 52.3542 4.26203 52.0153C4.36197 51.5614 4.50053 51.1167 4.67608 50.6863C4.8068 50.3699 4.78275 50.0107 4.61105 49.7145L3.82874 48.3651C4.00594 48.0902 4.19715 47.8228 4.40225 47.5629L5.87518 47.9001C6.22036 47.9791 6.58244 47.8871 6.84816 47.653C7.19058 47.352 7.55789 47.0806 7.94623 46.8417C8.23985 46.6599 8.43093 46.3507 8.46227 46.0068L8.60619 44.4361C8.90147 44.3195 9.19688 44.2192 9.49216 44.1349L10.5 45.3056C10.7091 45.5479 11.0133 45.6873 11.3335 45.6873H12.8778C13.1977 45.6872 13.5017 45.5478 13.7107 45.3056L14.7197 44.1349C15.014 44.2192 15.3098 44.3197 15.6051 44.4361L15.7485 46.0062C15.7801 46.3504 15.9716 46.6599 16.2656 46.8417C16.6537 47.0808 17.0208 47.3521 17.3631 47.653C17.6286 47.8876 17.9909 47.9795 18.3361 47.9001L19.8085 47.5627C20.0141 47.8227 20.2055 48.09 20.3825 48.365L19.6002 49.7143C19.4285 50.0106 19.4046 50.3698 19.5352 50.6862C19.7107 51.1166 19.8492 51.5613 19.9492 52.0152C20.0266 52.3541 20.2596 52.6366 20.5775 52.7772L21.9318 53.3749V54.4306H21.9316Z" fill="#702206"/> <path d="M21.4417 8.94873C14.7798 11.7665 9.37369 16.9165 6.23633 23.4341L8.21775 24.3888C11.1229 18.3528 16.1293 13.5835 22.2987 10.9741L21.4417 8.94873Z" fill="#702206"/> <path d="M41.6443 62.415C36.1879 64.2018 30.312 64.2539 24.8248 62.5643L24.1719 64.6649C30.0962 66.4985 36.4443 66.4419 42.3349 64.5027L41.6443 62.415Z" fill="#702206"/> <path d="M44.2621 8.8252L43.4277 10.8604C49.8248 13.478 54.9995 18.4113 57.9195 24.6761L59.9117 23.7451C56.7587 16.9795 51.1703 11.6519 44.2621 8.8252Z" fill="#702206"/> </symbol>
<symbol id="quotes" viewBox="0 0 19 17"> <path d="M0 8.4998V16.6427H8.14287V8.4998H2.71431C2.71431 5.50655 5.14962 3.07124 8.14287 3.07124V0.356934C3.65262 0.356934 0 4.00955 0 8.4998Z" fill="#65473C"/> <path d="M19.0003 3.07124V0.356934C14.51 0.356934 10.8574 4.00955 10.8574 8.4998V16.6427H19.0003V8.4998H13.5717C13.5717 5.50655 16.007 3.07124 19.0003 3.07124Z" fill="#65473C"/> </symbol>
<symbol id="settings" viewBox="0 0 21 21"> <path d="M8.1195 20.4231C8.1195 20.7417 8.37796 21 8.69637 21H12.3034C12.622 21 12.8803 20.7417 12.8803 20.4231V19.3046C13.6388 19.1004 14.3639 18.7998 15.0454 18.4072L15.835 19.1969C15.9431 19.3051 16.0898 19.3659 16.243 19.3659C16.3958 19.3659 16.5427 19.3051 16.6509 19.1967L19.2004 16.6451C19.4255 16.4198 19.4255 16.0545 19.2004 15.8293L18.4117 15.0406C18.8043 14.3591 19.1049 13.6339 19.309 12.8753H20.4231C20.7418 12.8753 21 12.617 21 12.2984V8.69103C21 8.37237 20.7418 8.11411 20.4231 8.11411H19.3088C19.1047 7.35577 18.8043 6.63056 18.4117 5.94907L19.1961 5.16459C19.3043 5.05642 19.3651 4.90948 19.3651 4.75646C19.3649 4.60344 19.3041 4.45651 19.1959 4.34833L16.6444 1.7986C16.4193 1.57347 16.054 1.57347 15.8286 1.79883L15.0454 2.58241C14.3639 2.18983 13.6388 1.8892 12.8803 1.68502V0.576923C12.8803 0.258263 12.622 0 12.3034 0H8.69637C8.37796 0 8.1195 0.258263 8.1195 0.576923V1.68525C7.36122 1.8892 6.63607 2.18983 5.95464 2.58241L5.17113 1.79883C4.94601 1.57369 4.58074 1.57347 4.3554 1.7986L1.80408 4.34856C1.69569 4.45673 1.63485 4.60344 1.63485 4.75646C1.63485 4.90948 1.69569 5.05642 1.80386 5.16459L2.58827 5.94907C2.19573 6.63056 1.89512 7.35554 1.69096 8.11411H0.578902C0.26027 8.11411 0.00202869 8.37237 0.00202869 8.69081L6.23645e-07 12.2982C-0.000224703 12.4512 0.0606174 12.5981 0.168781 12.7063C0.276945 12.8145 0.423642 12.8753 0.576874 12.8753H1.69096C1.89512 13.6339 2.19573 14.3591 2.58827 15.0406L1.79958 15.8293C1.57446 16.0545 1.57423 16.4198 1.79958 16.6451L4.34909 19.1967C4.45725 19.3048 4.60395 19.3659 4.75695 19.3659H4.75718C4.91019 19.3659 5.05688 19.3051 5.16505 19.1969L5.95442 18.4072C6.63607 18.7998 7.36122 19.1004 8.1195 19.3046V20.4231ZM6.18066 17.1939C5.95239 17.0463 5.65201 17.0783 5.45957 17.2705L4.75718 17.973L3.02318 16.2375L3.72489 15.5355C3.91711 15.3432 3.94911 15.0428 3.80151 14.8145C3.27849 14.005 2.91073 13.1178 2.70883 12.1771C2.65159 11.9114 2.41679 11.7215 2.1448 11.7215H1.15397L1.15533 9.26795H2.1448C2.41679 9.26795 2.65159 9.0782 2.70883 8.81227C2.91073 7.87184 3.27849 6.9846 3.80151 6.17511C3.94911 5.94682 3.91711 5.64641 3.72489 5.45418L3.02769 4.75669L4.76304 3.02254L5.45957 3.71935C5.65201 3.91158 5.95216 3.94336 6.18066 3.79597C6.98986 3.27291 7.87703 2.90512 8.8176 2.7032C9.08328 2.64596 9.27324 2.41091 9.27324 2.13912V1.15385H11.7265V2.1389C11.7265 2.41091 11.9163 2.64596 12.1822 2.70297C13.1225 2.90512 14.0099 3.27269 14.8191 3.79575C15.0474 3.94336 15.3478 3.91158 15.54 3.71913L16.2367 3.02254L17.9721 4.75669L17.2749 5.45395C17.0824 5.64641 17.0507 5.94682 17.1983 6.17511C17.7213 6.9846 18.0888 7.87184 18.2909 8.81227C18.348 9.0782 18.583 9.26795 18.855 9.26795H19.8463V11.7215H18.855C18.583 11.7215 18.3482 11.9114 18.2909 12.1771C18.089 13.1176 17.7213 14.005 17.1983 14.8143C17.0507 15.0428 17.0827 15.3432 17.2749 15.5355L17.9766 16.2372L16.2426 17.9727L15.5402 17.2705C15.3478 17.0781 15.0474 17.0463 14.8191 17.1939C14.0097 17.7169 13.1225 18.0845 12.1822 18.2867C11.9163 18.3439 11.7265 18.5787 11.7265 18.8507V19.8462H9.27324V18.8507C9.27324 18.579 9.08328 18.3439 8.8176 18.2867C7.87725 18.0847 6.99009 17.7169 6.18066 17.1939Z"/> <path d="M15.2068 10.4999C15.2068 7.90443 13.0953 5.79297 10.4999 5.79297C7.90443 5.79297 5.79297 7.90443 5.79297 10.4999C5.79297 13.0953 7.90443 15.2068 10.4999 15.2068C13.0953 15.2068 15.2068 13.0953 15.2068 10.4999ZM6.93225 10.4999C6.93225 8.53259 8.53259 6.93225 10.4999 6.93225C12.4671 6.93225 14.0675 8.53282 14.0675 10.4999C14.0675 12.4669 12.4671 14.0675 10.4999 14.0675C8.53259 14.0675 6.93225 12.4671 6.93225 10.4999Z"/> </symbol>
<symbol id="share" viewBox="0 0 16 16"> <path d="M16 7.99573L8.70575 0V4.78955H7.85841C5.75942 4.78955 3.78597 5.60669 2.30169 7.09045C0.817419 8.57422 0 10.547 0 12.6454V16L1.39989 14.4667C3.27249 12.4158 5.93062 11.2294 8.70575 11.2024V15.9916L16 7.99573ZM0.937944 13.5896V12.6454C0.937944 10.7975 1.6578 9.06006 2.96488 7.75342C4.27197 6.44678 6.00988 5.72717 7.85841 5.72717H9.64357V2.41956L14.7308 7.99573L9.64357 13.572V10.2644H8.80209C5.84161 10.2644 2.99468 11.4723 0.937944 13.5896Z" fill="#65473C"/> </symbol>
<symbol id="tg" viewBox="0 0 19 16"> <path d="M18.9459 1.45624L16.0786 15.0342C15.8621 15.9923 15.2981 16.2308 14.4967 15.7797L10.1276 12.5469L8.01969 14.5831C7.78624 14.8175 7.59147 15.0131 7.14153 15.0131L7.45574 10.5455L15.5526 3.19872C15.9049 2.88389 15.4759 2.70875 15.0056 3.02426L4.99566 9.35361L0.68627 7.99888C-0.250937 7.70517 -0.267903 7.05779 0.881719 6.60598L17.7372 0.0851558C18.5176 -0.208551 19.2003 0.259608 18.9459 1.45692V1.45624Z" fill="#65473C"/> </symbol>
<symbol id="time" viewBox="0 0 21 21"> <path d="M10.5 0C4.70156 0 0 4.70156 0 10.5C0 16.2984 4.70156 21 10.5 21C16.2984 21 21 16.2984 21 10.5C21 4.70156 16.2984 0 10.5 0ZM14.6367 13.7273L13.9664 14.6414C13.9518 14.6613 13.9335 14.6781 13.9124 14.6909C13.8913 14.7037 13.8678 14.7122 13.8434 14.7159C13.819 14.7196 13.7942 14.7184 13.7702 14.7125C13.7463 14.7065 13.7237 14.6959 13.7039 14.6813L9.82734 11.8547C9.80319 11.8373 9.78356 11.8145 9.7701 11.7879C9.75664 11.7614 9.74975 11.7321 9.75 11.7023V5.25C9.75 5.14687 9.83438 5.0625 9.9375 5.0625H11.0648C11.168 5.0625 11.2523 5.14687 11.2523 5.25V11.0508L14.5945 13.4672C14.6789 13.5258 14.6977 13.643 14.6367 13.7273Z" fill="#65473C"/> </symbol>
<symbol id="vk" viewBox="0 0 43 25"> <path d="M41.0777 19.1718C40.1452 18.0543 39.0918 17.0565 38.0729 16.0915C37.7148 15.7523 37.3444 15.4016 36.9877 15.0534C36.9876 15.0533 36.9876 15.0532 36.9875 15.0531C36.5077 14.5852 36.2728 14.253 36.2483 14.0077C36.2242 13.7665 36.389 13.4088 36.768 12.8799C37.3348 12.0845 37.9389 11.2877 38.5233 10.5172C39.0428 9.83234 39.5798 9.12407 40.0946 8.41179L40.2101 8.25186C41.2145 6.86179 42.2529 5.42441 42.8093 3.67279C42.9683 3.17058 43.1333 2.4274 42.7352 1.77498C42.337 1.12239 41.5988 0.928978 41.0785 0.840392C40.8244 0.796853 40.5832 0.793252 40.3588 0.793252L33.8442 0.787475C32.7179 0.768719 31.9365 1.30258 31.5107 2.37465C31.1699 3.23086 30.7674 4.22314 30.3011 5.16443C29.409 6.98161 28.2753 9.07459 26.6322 10.8184L26.5592 10.8961C26.4474 11.0155 26.2646 11.2108 26.1707 11.2556C25.9927 11.1437 25.7873 10.5039 25.7967 10.1688C25.797 10.1605 25.797 10.1523 25.797 10.1441L25.7913 2.61654C25.7913 2.57828 25.7886 2.54001 25.7835 2.50208C25.6374 1.42817 25.3525 0.35158 23.6528 0.0161598C23.5983 0.00535875 23.5429 0 23.4875 0H16.7108C15.4359 0 14.7615 0.583845 14.2209 1.21684C14.0644 1.40138 13.6486 1.89136 13.8604 2.49036C14.0748 3.09648 14.7134 3.21747 14.9231 3.25716C15.6616 3.39732 16.0435 3.81471 16.1617 4.61265C16.3954 6.16307 16.424 7.82166 16.252 9.82974C16.204 10.3689 16.1147 10.7786 15.9707 11.1194C15.9309 11.2138 15.8959 11.2722 15.8714 11.3066C15.8324 11.2909 15.7717 11.2608 15.6876 11.2032C15.1687 10.8481 14.7776 10.2961 14.3994 9.76243C12.8887 7.62959 11.6181 5.27395 10.5143 2.55986C10.0597 1.44768 9.20514 0.826493 8.10963 0.810417C6.02242 0.775669 4.09204 0.776506 2.21014 0.813096C1.32252 0.828502 0.700081 1.10791 0.359804 1.64369C0.0191095 2.18048 0.0315852 2.86488 0.39698 3.67823C3.009 9.48654 5.38072 13.7119 8.08685 17.3787C9.99228 19.9602 11.9104 21.7522 14.1231 23.0182C16.4479 24.3482 19.0698 25.0001 22.1115 25C22.4574 25 22.8093 24.9915 23.1659 24.9745C25.0426 24.8891 25.8061 24.1426 25.8894 22.3149C25.9361 21.3489 26.0436 20.5664 26.4166 19.8865C26.521 19.6962 26.6387 19.5686 26.7315 19.5452C26.8301 19.5206 27.005 19.5809 27.1995 19.7073C27.5551 19.9382 27.8613 20.2514 28.1131 20.5263C28.3683 20.8057 28.6262 21.0943 28.8758 21.3733C29.4069 21.9676 29.956 22.5821 30.5314 23.1682C31.8328 24.4948 33.3331 25.1032 34.9924 24.9757L40.9543 24.9785C40.9545 24.9785 40.9546 24.9785 40.9547 24.9785C40.9736 24.9785 40.9925 24.9779 41.0114 24.9766C41.6991 24.9308 42.2937 24.5501 42.6428 23.9319C43.0632 23.1873 43.0568 22.2443 42.6255 21.4083C42.1753 20.5391 41.5913 19.7909 41.0777 19.1718ZM41.1557 23.0921C41.0735 23.2377 40.9721 23.2643 40.9197 23.2707L34.959 23.2679C34.9589 23.2679 34.9587 23.2679 34.9585 23.2679C34.9349 23.2679 34.9114 23.2688 34.888 23.2708C33.7137 23.3686 32.7156 22.9558 31.7504 21.972C31.2029 21.4142 30.6672 20.815 30.1491 20.2354C29.8967 19.953 29.6357 19.6608 29.3735 19.3738C29.0483 19.0186 28.6463 18.6104 28.1297 18.275C27.3564 17.7731 26.7156 17.7882 26.3142 17.8894C25.9171 17.9894 25.3526 18.2749 24.9193 19.0657C24.358 20.0888 24.2341 21.1925 24.1837 22.2352C24.1546 22.8729 24.0468 23.0413 24.0017 23.0841C23.9427 23.1402 23.7454 23.2388 23.0872 23.2689C19.9243 23.4176 17.2699 22.8512 14.9713 21.536C12.9716 20.392 11.2207 18.7486 9.4611 16.3647C6.82991 12.7996 4.51479 8.6711 1.95477 2.97834C1.86199 2.77211 1.83336 2.64342 1.82507 2.57451C1.89038 2.55308 2.01798 2.52486 2.24171 2.52076C4.10452 2.48467 6.01472 2.48366 8.08309 2.51816C8.36626 2.52235 8.6887 2.60733 8.93286 3.20474C10.0861 6.04057 11.4184 8.50849 13.0059 10.7498C13.4274 11.3447 13.952 12.0852 14.7231 12.6127C15.4293 13.0964 16.0025 13.0733 16.359 12.9688C16.7157 12.8642 17.2107 12.5736 17.5441 11.7842C17.7592 11.2754 17.8892 10.7025 17.9536 9.97853C18.1376 7.83062 18.1049 6.04484 17.851 4.36046C17.6721 3.15367 17.049 2.28188 16.0674 1.83669C16.2418 1.74593 16.4382 1.70808 16.711 1.70808H23.399C23.7753 1.79248 23.8498 1.89161 23.8754 1.92552C23.9837 2.06962 24.0457 2.41049 24.0835 2.67683L24.0892 10.1349C24.0741 10.8499 24.4216 12.4356 25.6047 12.8704C25.6144 12.874 25.6242 12.8773 25.634 12.8805C26.7111 13.2325 27.4236 12.4722 27.806 12.0636L27.8742 11.9911C29.674 10.0808 30.886 7.84879 31.8329 5.92009C32.3264 4.92412 32.7444 3.89392 33.0978 3.00588C33.2747 2.56053 33.4356 2.48718 33.8196 2.4953C33.8248 2.49547 33.83 2.49547 33.8354 2.49547L40.3583 2.50125C40.5101 2.50125 40.6684 2.50301 40.7912 2.52402C41.102 2.57694 41.23 2.64141 41.2722 2.66812C41.2766 2.7176 41.2756 2.85994 41.1816 3.15702C40.7085 4.64648 39.7941 5.91196 38.8261 7.2518L38.7105 7.41197C38.2075 8.10793 37.6764 8.80816 37.1629 9.48545C36.5709 10.2659 35.959 11.0728 35.3789 11.8871C34.1385 13.6177 34.2475 14.7662 35.7954 16.276C36.1612 16.6331 36.5362 16.9883 36.8989 17.3317C37.9272 18.3058 38.8985 19.2257 39.7654 20.2644C40.2192 20.8115 40.7336 21.4685 41.1086 22.1926C41.3041 22.5717 41.2562 22.9141 41.1557 23.0921Z"/> <path d="M6.34035 5.26895C6.21492 5.02078 6.09059 4.77194 5.96742 4.52259C5.75843 4.09984 5.24668 3.92618 4.82359 4.13517C4.40076 4.34408 4.22727 4.85617 4.43618 5.279C4.56169 5.53304 4.68837 5.78657 4.81606 6.03935C4.96635 6.33675 5.26702 6.50823 5.57883 6.50823C5.70828 6.50823 5.83982 6.47868 5.96332 6.4163C6.38439 6.20346 6.55311 5.68986 6.34035 5.26895Z"/> <path d="M11.698 14.1279C10.2977 12.2307 8.98772 10.17 7.69326 7.82816C7.4651 7.41537 6.94547 7.26584 6.53277 7.49391C6.12007 7.72208 5.97036 8.2417 6.19852 8.6544C7.52949 11.0621 8.87895 13.1843 10.324 15.1422C10.4914 15.3691 10.7499 15.4891 11.0117 15.4891C11.1879 15.4891 11.3655 15.4348 11.5181 15.322C11.8975 15.042 11.978 14.5074 11.698 14.1279Z"/> </symbol>
<symbol id="yt" viewBox="0 0 39 28"> <path d="M30.5333 0H7.57888C3.39976 0 0 3.41065 0 7.60221V20.3978C0 24.5901 3.39976 28 7.57888 28H30.5333C34.7124 28 38.1122 24.5893 38.1122 20.3978V7.60221C38.1122 3.41065 34.7124 0 30.5333 0ZM36.5566 20.3986C36.5566 23.733 33.8545 26.4452 30.5333 26.4452H7.57888C4.25767 26.4452 1.5556 23.7322 1.5556 20.3986V7.60221C1.5556 4.26856 4.25767 1.5556 7.57888 1.5556H30.5333C33.8545 1.5556 36.5566 4.26856 36.5566 7.60221V20.3986Z"/> <path d="M25.947 13.7185L15.1706 7.40667C14.931 7.26667 14.6331 7.26433 14.3912 7.40278C14.1493 7.54123 14 7.79868 14 8.07791V20.7008C14 20.9793 14.1493 21.2375 14.3905 21.376C14.5102 21.4444 14.644 21.4786 14.7778 21.4786C14.9139 21.4786 15.0493 21.4428 15.1706 21.3721L25.947 15.0618C26.185 14.9225 26.332 14.6667 26.332 14.3905C26.332 14.1144 26.1858 13.8577 25.947 13.7185ZM15.5556 19.3436V9.43439L24.0149 14.3898L15.5556 19.3436Z"/> </symbol>
</svg>